<svg width="800" height="800" viewBox="0 0 800 800" fill="none" xmlns="http://www.w3.org/2000/svg">
<rect width="800" height="800" fill="#E7EABF"/>
<circle cx="400.5" cy="400.5" r="394.5" fill="white"/>
<g filter="url(#filter0_d_33_252)">
<path d="M454.418 75.745C439.998 74.042 417.666 80.463 404.803 84.2373C402.598 84.8709 324.867 143.684 322.111 146.515C319.355 149.346 316.598 160.669 316.598 160.669C317.517 160.669 322.111 159.537 333.137 155.007C346.919 149.346 385.508 143.684 410.316 140.853C435.123 138.023 493.008 165.622 494.578 163.266C499.333 156.134 487.495 143.684 487.495 140.853C487.495 138.023 495.764 123.869 498.52 123.869C501.277 123.869 506.79 118.207 506.79 104.053C506.79 92.7298 486.576 88.0118 476.469 87.0682C472.794 84.2374 470.804 77.6801 454.418 75.745Z" fill="#D5DDAE"/>
<path d="M498.52 123.869C501.277 123.869 506.79 118.207 506.79 104.053C506.79 92.7298 486.576 88.0118 476.469 87.0682C472.794 84.2374 470.804 77.6801 454.418 75.745C439.998 74.042 417.666 80.463 404.803 84.2373C402.598 84.8709 324.867 143.684 322.111 146.515C319.355 149.346 316.598 160.669 316.598 160.669C317.517 160.669 322.111 159.537 333.137 155.007C346.919 149.346 385.508 143.684 410.316 140.853C435.123 138.023 493.008 165.622 494.578 163.266C499.333 156.134 487.495 143.684 487.495 140.853C487.495 138.023 495.764 123.869 498.52 123.869ZM498.52 123.869C498.52 120.094 497.418 111.979 493.008 109.715" stroke="#849C5E" stroke-width="5" stroke-linecap="round"/>
<path d="M559 512C565.633 471.754 533.732 429.627 516.227 412.858L513.463 410.063L488.588 424.037C464.266 441.924 412.12 444.533 389.087 443.601C349.287 445.837 297.879 415.653 278.531 401.678C274.109 403.914 260.105 419.379 253.656 426.832C242.6 438.012 226.017 499.499 228.78 521.858C230.992 539.745 244.443 568.439 250.892 580.551C250.892 586.14 248.128 639.243 250.892 653.217C253.103 664.397 273.925 689.551 284.059 700.73V709.115C286.823 739.859 306.17 770.602 331.045 773.397C350.945 775.633 381.717 768.739 394.615 765.013C403.828 770.602 426.124 780.664 441.602 776.192C460.949 770.602 502.407 742.654 502.407 739.859V709.115L527.283 683.961C536.127 670.546 536.496 609.431 535.574 580.551C541.102 574.961 552.367 552.246 559 512Z" fill="#D5DDAE"/>
<path d="M394.615 765.013C403.828 770.602 426.124 780.664 441.602 776.192C460.949 770.602 502.407 742.654 502.407 739.859C502.407 737.623 502.407 718.431 502.407 709.115L527.283 683.961C536.127 670.546 536.496 609.431 535.574 580.551C541.102 574.961 552.367 552.246 559 512C565.633 471.754 533.732 429.627 516.227 412.858L513.463 410.063L488.588 424.037C464.266 441.924 412.12 444.533 389.087 443.601C349.287 445.837 297.879 415.653 278.531 401.678C274.109 403.914 260.105 419.379 253.656 426.832C242.6 438.012 226.017 499.499 228.78 521.858C230.992 539.745 244.443 568.439 250.892 580.551C250.892 586.14 248.128 639.243 250.892 653.217C253.103 664.397 273.925 689.551 284.059 700.73V709.115C286.823 739.859 306.17 770.602 331.045 773.397C350.945 775.633 381.717 768.739 394.615 765.013ZM394.615 765.013V602.91" stroke="#849C5E" stroke-width="5"/>
<path d="M506.5 488.5C504.598 488.5 492.366 484.887 489.988 484.887L504.253 508L506.5 488.5Z" fill="#9BB572"/>
<path d="M278 490.5C279.902 490.5 292.665 487.265 295.042 487.265L280.778 507.5L278 490.5Z" fill="#9BB572"/>
<path d="M383.5 530C381.598 521.754 370.326 491.099 366.363 482.509C366.363 478.386 423.421 477.755 423.421 480.132C423.421 482.509 402.255 599.193 397.5 609.5L391.5 611C391.5 607.564 385.402 538.246 383.5 530Z" fill="#9BB572"/>
<path d="M532 585.5C530.098 587.402 503.46 612.474 492.366 622.776L501.875 703.607L525.649 679.833C530.404 670.324 534.377 583.123 532 585.5Z" fill="#9BB572" stroke="#9BB572" stroke-width="5"/>
<path d="M254.626 587.5C256.528 589.402 279.193 612.474 290.287 622.776L280.778 691.72L266.513 672.701L255.5 656C250.745 646.49 252.249 585.123 254.626 587.5Z" fill="#9BB572" stroke="#9BB572" stroke-width="5"/>
<path d="M300.748 583.28L283.631 697.4C276.116 747.501 315.012 772.552 334.982 772.552C350.959 772.552 381.579 765.13 394.893 761.418V725.234C392.991 670.493 389.187 557.672 389.187 544.312C389.187 527.612 366.364 466.376 334.982 463.593C309.877 461.366 288.385 496.066 280.778 513.694L300.748 583.28Z" fill="#D5DDAE"/>
<path d="M383.006 541.945L385.384 537.19M283.631 697.4L300.748 583.28L280.778 513.694C288.385 496.066 309.877 461.366 334.982 463.593C366.364 466.376 389.187 527.612 389.187 544.312C389.187 557.672 392.991 670.493 394.893 725.234V761.418C381.579 765.13 350.959 772.552 334.982 772.552C315.012 772.552 276.116 747.501 283.631 697.4Z" stroke="#849C5E" stroke-width="5"/>
<path d="M485.114 582.25L498.784 706.325C499.444 718.282 503.996 731.083 498.784 739.438C482.392 765.721 437.383 777.307 435.309 777.307C419.998 777.307 402.025 767.797 394.892 758.856V722.983C396.715 668.713 400.36 556.862 400.36 543.617C400.36 527.06 422.232 466.352 452.306 463.592C476.366 461.385 496.962 495.786 504.252 513.263L485.114 582.25Z" fill="#D5DDAE" stroke="#849C5E" stroke-width="5"/>
<path d="M511.87 465.818C516.976 454.757 539.616 449.226 542.391 449.226C545.165 449.226 547.94 457.522 550.715 468.583C555.229 486.58 559.732 512.829 553.489 537.717C548.634 557.075 539.616 569.058 534.067 579.198C527.593 587.494 511.531 610.776 489.673 620.678C459.153 634.505 409.21 612.382 400.886 606.852C392.562 601.321 395.337 562.606 395.337 554.31C395.337 547.673 404.585 544.232 409.21 543.342C407.167 541.653 405.294 539.021 403.661 534.952C398.111 521.125 428.357 507.298 442.505 507.298C461.927 507.298 500.771 512.829 503.546 512.829C506.321 512.829 508.16 473.857 511.87 465.818Z" fill="#D5DDAE"/>
<path d="M425.857 546.014C419.983 546.014 414.109 547.391 409.21 543.342M409.21 543.342C407.167 541.653 405.294 539.021 403.661 534.952C398.111 521.125 428.357 507.298 442.505 507.298C461.927 507.298 500.771 512.829 503.546 512.829C506.321 512.829 508.16 473.857 511.87 465.818C516.976 454.757 539.616 449.226 542.391 449.226C545.165 449.226 547.94 457.522 550.715 468.583C555.229 486.58 559.732 512.829 553.489 537.717C548.634 557.075 539.616 569.058 534.067 579.198C527.593 587.494 511.531 610.776 489.673 620.678C459.153 634.505 409.21 612.382 400.886 606.852C392.562 601.321 395.337 562.606 395.337 554.31C395.337 547.673 404.585 544.232 409.21 543.342Z" stroke="#849C5E" stroke-width="5" stroke-linecap="round"/>
<path d="M273.16 465.818C267.611 454.757 247.275 449.5 244.5 449.5C241.725 449.5 237.775 462.939 235 474C230.485 491.997 225.298 512.829 231.541 537.717C236.397 557.075 245.414 569.058 250.963 579.198C257.437 587.494 273.499 610.776 295.357 620.678C325.878 634.505 375.82 612.382 384.144 606.852C392.468 601.321 389.693 562.606 389.693 554.31C389.693 547.673 380.445 544.232 375.82 543.342C377.863 541.653 379.737 539.021 381.37 534.952C386.919 521.125 356.673 507.298 342.525 507.298C323.103 507.298 284.259 512.829 281.484 512.829C278.709 512.829 277.131 473.733 273.16 465.818Z" fill="#D5DDAE"/>
<path d="M359.173 546.014C365.047 546.014 370.921 547.391 375.82 543.342M375.82 543.342C377.863 541.653 379.737 539.021 381.37 534.952C386.919 521.125 356.673 507.298 342.525 507.298C323.103 507.298 284.259 512.829 281.484 512.829C278.709 512.829 277.131 473.733 273.16 465.818C267.611 454.757 247.275 449.5 244.5 449.5C241.725 449.5 237.775 462.939 235 474C230.485 491.997 225.298 512.829 231.541 537.717C236.397 557.075 245.414 569.058 250.963 579.198C257.437 587.494 273.499 610.776 295.357 620.678C325.878 634.505 375.82 612.382 384.144 606.852C392.468 601.321 389.693 562.606 389.693 554.31C389.693 547.673 380.445 544.232 375.82 543.342Z" stroke="#849C5E" stroke-width="5" stroke-linecap="round"/>
<path d="M411.431 142.576C501.555 148.621 569.74 223.03 564.005 308.533C558.269 394.037 480.757 458.671 390.633 452.626C300.51 446.58 232.325 372.173 238.061 286.669C243.796 201.166 321.307 136.53 411.431 142.576Z" fill="#D5DDAE" stroke="#849C5E" stroke-width="5"/>
<path d="M413.748 82.4349C408.042 101.454 381 142.5 358 144C350.333 146.333 333.1 149.8 325.5 145M397.5 109.5C399.402 107.598 404 93.5 405 90L407 93.5" stroke="#849C5E" stroke-width="5" stroke-linecap="round"/>
<path d="M295.625 68.6485C296.169 66.7395 299.242 53.3397 300.71 46.8784C298.622 38.5439 290.718 38.8725 281.103 41.2935C271.488 43.7144 268.102 59.5189 263.659 67.2828C259.216 75.0468 268.868 84.2457 279.188 87.1852C289.508 90.1246 294.946 71.0347 295.625 68.6485Z" fill="#849C5E" stroke="#849C5E" stroke-width="5" stroke-linecap="round"/>
<path d="M342.75 25.5C374.102 25.5 399.685 51.9619 399.685 84.8125C399.685 117.663 374.102 144.124 342.75 144.124C311.397 144.124 285.815 117.663 285.815 84.8125C285.815 51.962 311.397 25.5002 342.75 25.5Z" fill="#D5DDAE" stroke="#849C5E" stroke-width="5"/>
<path d="M371.213 72.4336C370.644 70.0544 361.639 56.1802 367.168 45.1202C372.698 34.0601 381.053 35.4979 394.248 38.6315C407.443 41.7651 410.592 61.448 416.024 71.1534C421.455 80.8588 407.045 92.1637 392.328 95.6817C377.611 99.1997 371.924 75.4076 371.213 72.4336Z" fill="#849C5E" stroke="#849C5E" stroke-width="5" stroke-linecap="round"/>
<circle cx="316.477" cy="84.8738" r="2.765" transform="rotate(4.44141 316.477 84.8738)" fill="#627E4D"/>
<circle cx="361.012" cy="82.7862" r="2.765" transform="rotate(4.44141 361.012 82.7862)" fill="#627E4D"/>
<path d="M339.725 108.586C337.347 108.586 332.917 110.964 332.917 110.964L351 111.5C351 111.5 342.007 108.586 339.725 108.586Z" stroke="#627E4D" stroke-width="5" stroke-linecap="round"/>
<ellipse cx="10.243" cy="10.243" rx="10.243" ry="10.243" transform="matrix(-0.993449 0.114273 0.114274 0.993449 481.487 264.986)" fill="#627E4D"/>
<ellipse cx="10.243" cy="10.243" rx="10.243" ry="10.243" transform="matrix(-0.993449 0.114273 0.114274 0.993449 338.086 264.771)" fill="#627E4D"/>
<path d="M364.146 376.815L441.255 374.387C442.215 374.357 442.573 373.135 441.767 372.612C431.071 365.666 420.002 362.306 401.214 362.342C387.032 362.37 371.394 369.685 363.554 375.15C362.772 375.695 363.193 376.845 364.146 376.815Z" fill="#627E4D"/>
<circle cx="340.048" cy="96.699" r="2.37739" fill="#1E1E1E"/>
<path d="M264.251 137.744C263.164 135.208 261.115 133.209 258.553 132.185C255.992 131.161 253.128 131.196 250.593 132.284C248.058 133.371 246.058 135.42 245.034 137.982C244.01 140.543 244.046 143.407 245.133 145.942C246.189 148.404 248.089 151.876 253.056 153.862L273.269 158.774C273.269 158.774 281.66 145.712 283.645 140.745C285.631 135.778 284.426 132.008 283.37 129.546C282.283 127.01 280.233 125.011 277.672 123.987C275.11 122.963 272.247 122.998 269.712 124.085C267.176 125.173 265.177 127.222 264.153 129.784C263.129 132.345 263.164 135.208 264.251 137.744Z" fill="#849C5E"/>
</g>
<defs>
<filter id="filter0_d_33_252" x="221.975" y="23" width="348.867" height="764.807" filterUnits="userSpaceOnUse" color-interpolation-filters="sRGB">
<feFlood flood-opacity="0" result="BackgroundImageFix"/>
<feColorMatrix in="SourceAlpha" type="matrix" values="0 0 0 0 0 0 0 0 0 0 0 0 0 0 0 0 0 0 127 0" result="hardAlpha"/>
<feOffset dy="4"/>
<feGaussianBlur stdDeviation="2"/>
<feComposite in2="hardAlpha" operator="out"/>
<feColorMatrix type="matrix" values="0 0 0 0 0 0 0 0 0 0 0 0 0 0 0 0 0 0 0.25 0"/>
<feBlend mode="normal" in2="BackgroundImageFix" result="effect1_dropShadow_33_252"/>
<feBlend mode="normal" in="SourceGraphic" in2="effect1_dropShadow_33_252" result="shape"/>
</filter>
</defs>
</svg>
