<svg width="800" height="800" viewBox="0 0 800 800" fill="none" xmlns="http://www.w3.org/2000/svg">
<rect width="800" height="800" fill="#E7EABF"/>
<circle cx="400.5" cy="400.5" r="394.5" fill="white"/>
<g filter="url(#filter0_d_32_8)">
<path d="M472.261 220.994L439.332 698.142C443.549 698.394 456.21 697.758 462.654 698.142C467.991 608.637 492.404 297.25 494.997 253.76C497.591 210.271 509.911 188.782 517.071 187.005C544.28 180.251 613.18 170.543 636.302 161.342C665.205 149.84 632.023 114.797 623.237 114.273C614.45 113.749 583.79 125.147 527.644 149.903C482.727 169.708 472.007 205.549 472.261 220.994Z" fill="#9EC15D" stroke="#5B9652" stroke-width="5"/>
<path d="M210 416.337C210 397.679 257.939 352.849 281.909 332.767C303.287 340.54 356.539 353.756 398.518 344.427C411.475 349.61 438.554 359.975 443.219 359.975C449.049 359.975 439.332 342.484 450.992 338.597C460.71 335.358 458.766 338.597 464.597 338.597C471.075 337.949 482.477 335.487 491.806 338.597C503.467 342.484 528.732 359.975 515.128 385.241C501.523 410.506 456.823 420.223 406.292 418.28H400.462C404.997 446.137 411.345 509.624 400.462 540.72C409.531 578.294 430.003 655.386 439.332 663.159C450.992 672.877 503.467 694.255 497.636 709.803C484.032 717.577 442.83 732.348 386.857 729.238C375.196 729.238 370.921 716.8 369.366 713.69C367.811 710.581 342.805 646.316 330.496 614.572C327.257 624.938 320.779 649.166 320.779 663.159C320.779 677.153 335.031 691.016 342.157 696.199C348.635 703.325 359.26 720.687 349.931 733.125C340.602 745.563 263.77 732.477 227.491 723.408C227.491 709.803 231.378 680.651 235.265 670.933L249.551 529.059C220.269 497.719 210 434.207 210 416.337Z" fill="#D5DDAE"/>
<path d="M297.457 416.337C294.218 417.632 286.573 422.556 281.909 431.884C277.245 441.213 279.966 459.093 281.909 466.867C363.536 499.906 336.327 552.381 281.909 546.55C227.491 540.72 210 439.658 210 416.337C210 397.679 257.939 352.849 281.909 332.767C303.287 340.54 356.539 353.756 398.518 344.427C411.475 349.61 438.554 359.975 443.219 359.975C449.049 359.975 439.332 342.484 450.992 338.597C460.71 335.358 458.766 338.597 464.597 338.597C471.075 337.949 482.477 335.487 491.806 338.597C503.467 342.484 528.732 359.975 515.128 385.241C501.523 410.506 456.823 420.223 406.292 418.28H400.462C404.997 446.137 411.345 509.624 400.462 540.72C409.531 578.294 430.003 655.386 439.332 663.159C450.992 672.877 503.467 694.255 497.636 709.803C484.032 717.577 442.83 732.348 386.857 729.238C375.196 729.238 370.921 716.8 369.366 713.69C367.811 710.581 342.805 646.316 330.496 614.572M330.496 614.572L334.383 567.929M330.496 614.572C327.257 624.938 320.779 649.166 320.779 663.159C320.779 677.153 335.031 691.016 342.157 696.199C348.635 703.325 359.26 720.687 349.931 733.125C340.602 745.563 263.77 732.477 227.491 723.408C227.491 709.803 231.378 680.651 235.265 670.933L249.551 529.059" stroke="#849C5E" stroke-width="5"/>
<path d="M472.536 216.383L443.218 653.442C445.162 659.272 458.153 668.606 464.597 668.99C469.721 583.064 491.26 318.156 493.749 276.405C496.239 234.655 508.344 220.044 522.901 212.27C533.744 206.48 626.131 195.785 649.228 187.005C678.099 176.03 632.023 114.797 623.237 114.273C614.45 113.749 583.821 124.62 527.742 148.256C482.878 167.165 472.245 201.553 472.536 216.383Z" fill="#9EC15D" stroke="#5B9652" stroke-width="5"/>
<path d="M446.368 664.48L447.486 649.347C452.197 651.046 461.451 658.344 461.32 659.893L460.173 673.449C452.172 669.652 447.636 665.887 446.368 664.48Z" fill="#9EC15D"/>
<path d="M349.931 86.5C425.899 86.5 487.362 146.356 487.362 220.044C487.362 293.732 425.899 353.588 349.931 353.588C273.963 353.588 212.5 293.732 212.5 220.044C212.5 146.356 273.963 86.5002 349.931 86.5Z" fill="#D5DDAE" stroke="#849C5E" stroke-width="5"/>
<path d="M478.201 387.184C469.805 351.36 485.975 333.444 499.579 334.71C518.82 336.501 537.673 370.686 521.93 392.181C509.336 409.376 497.636 410.506 485.975 410.506L478.201 387.184Z" fill="#D5DDAE" stroke="#849C5E" stroke-width="5"/>
<circle cx="7.77395" cy="7.77395" r="7.77395" transform="matrix(-0.993449 0.114273 0.114273 0.993449 418.96 201.975)" fill="#627E4D"/>
<circle cx="7.77395" cy="7.77395" r="7.77395" transform="matrix(-0.993449 0.114273 0.114273 0.993449 319.449 221.247)" fill="#627E4D"/>
<path d="M352.747 287.76L390.799 281.892C391.636 281.763 391.934 280.725 391.265 280.206C385.257 275.544 379.377 274.701 369.802 274.283C362.406 273.96 355.349 281.306 351.805 286.294C351.312 286.988 351.905 287.89 352.747 287.76Z" fill="#627E4D"/>
</g>
<defs>
<filter id="filter0_d_32_8" x="203.5" y="84" width="461.622" height="664.728" filterUnits="userSpaceOnUse" color-interpolation-filters="sRGB">
<feFlood flood-opacity="0" result="BackgroundImageFix"/>
<feColorMatrix in="SourceAlpha" type="matrix" values="0 0 0 0 0 0 0 0 0 0 0 0 0 0 0 0 0 0 127 0" result="hardAlpha"/>
<feOffset dy="4"/>
<feGaussianBlur stdDeviation="2"/>
<feComposite in2="hardAlpha" operator="out"/>
<feColorMatrix type="matrix" values="0 0 0 0 0 0 0 0 0 0 0 0 0 0 0 0 0 0 0.25 0"/>
<feBlend mode="normal" in2="BackgroundImageFix" result="effect1_dropShadow_32_8"/>
<feBlend mode="normal" in="SourceGraphic" in2="effect1_dropShadow_32_8" result="shape"/>
</filter>
</defs>
</svg>
