<svg width="800" height="800" viewBox="0 0 800 800" fill="none" xmlns="http://www.w3.org/2000/svg">
<rect width="800" height="800" fill="#E7EABF"/>
<circle cx="400.5" cy="400.5" r="394.5" fill="white"/>
<g filter="url(#filter0_d_33_240)">
<path d="M225.57 375.282C232.235 359.764 284.912 328.36 312.513 315.249C324.243 322.15 358.13 329.344 404.5 331C450.87 332.656 469.838 317 482.259 311.109L496.749 325.6L500.077 344.23L505.03 352.511C509.17 350.441 518.692 347.129 523.66 350.441C529.87 354.581 542.902 369.071 544.361 375.282C545.82 381.492 545.741 399.432 546.431 408.403C546.431 408.403 548.501 431.174 546.431 437.384C544.361 443.594 528.628 460.569 507.1 462.225C503.064 462.535 498.889 462.194 494.679 461.326C494.679 461.326 494.679 534.677 492.609 551.238C490.539 567.798 466.327 592.58 459.488 615.41C452.667 638.181 447.068 685.792 447.068 694.073C447.068 702.353 447.068 747.895 426.367 754.105C405.666 760.315 364.265 758.245 349.774 756.175C338.182 754.519 335.284 744.445 335.284 739.614C332.524 742.374 325.761 747.895 320.793 747.895C314.583 747.895 275.252 749.965 264.901 739.614C254.551 729.264 252.481 714.773 256.621 702.353C260.761 689.933 269.041 669.232 271.112 658.882C273.182 648.531 266.487 596.353 271.112 571.938C274.64 553.308 280.732 532.379 291.812 526.397C299.481 522.257 309.287 498.422 311.701 484.995C296.293 482.615 271.82 466.928 271.112 466.365C258.08 456.014 251.258 447.734 241.519 435.314C233.043 424.503 216.678 395.982 225.57 375.282Z" fill="#D5DDAE"/>
<path d="M312.513 315.249L313.78 313.095L312.638 312.422L311.44 312.991L312.513 315.249ZM225.57 375.282L227.867 376.268L227.867 376.268L225.57 375.282ZM241.519 435.314L243.487 433.771L243.487 433.771L241.519 435.314ZM271.112 466.365L272.666 464.407L272.666 464.407L271.112 466.365ZM345.634 474.645L347.335 476.477L347.471 476.351L347.586 476.207L345.634 474.645ZM360.125 418.753L357.68 419.277L357.68 419.277L360.125 418.753ZM326.392 383.562L327.05 381.15L327.024 381.143L326.999 381.136L326.392 383.562ZM404.5 331L404.589 328.502L404.589 328.502L404.5 331ZM482.259 311.109L484.027 309.342L482.78 308.095L481.188 308.85L482.259 311.109ZM496.749 325.6L499.21 325.16L499.072 324.387L498.517 323.832L496.749 325.6ZM505.03 352.511L502.884 353.794L504.074 355.784L506.148 354.747L505.03 352.511ZM523.66 350.441L525.047 348.361L525.047 348.361L523.66 350.441ZM544.361 375.282L546.795 374.71L546.795 374.71L544.361 375.282ZM546.431 408.403L543.938 408.594L543.94 408.612L543.941 408.629L546.431 408.403ZM546.431 437.384L548.803 438.174L548.803 438.174L546.431 437.384ZM438.787 418.753L436.503 419.768L436.503 419.768L438.787 418.753ZM436.717 360.791L438.837 362.116L438.837 362.116L436.717 360.791ZM459.488 615.41L457.093 614.693L457.093 614.693L459.488 615.41ZM426.367 754.105L427.085 756.499L427.085 756.499L426.367 754.105ZM349.774 756.175L349.421 758.65L349.421 758.65L349.774 756.175ZM347.704 681.652L345.383 680.724L345.383 680.724L347.704 681.652ZM353.914 613.34L356.34 613.946L356.34 613.946L353.914 613.34ZM264.901 739.614L263.134 741.382L263.134 741.382L264.901 739.614ZM256.621 702.353L258.993 703.144L258.993 703.144L256.621 702.353ZM271.112 658.882L268.66 658.391L268.66 658.391L271.112 658.882ZM271.112 571.938L268.655 571.473L268.655 571.473L271.112 571.938ZM291.812 526.397L293 528.597L293 528.597L291.812 526.397ZM311.701 484.995L312.083 482.525L312.083 482.525L311.701 484.995ZM333.576 422.757C332.357 422.108 330.843 422.57 330.195 423.789C329.546 425.007 330.008 426.521 331.227 427.17L332.401 424.963L333.576 422.757ZM312.513 315.249L311.44 312.991C297.532 319.598 277.364 330.783 259.821 342.271C251.05 348.016 242.886 353.868 236.471 359.289C230.168 364.618 225.195 369.82 223.273 374.295L225.57 375.282L227.867 376.268C229.278 372.984 233.389 368.442 239.699 363.108C245.899 357.868 253.879 352.14 262.56 346.454C279.922 335.084 299.893 324.012 313.586 317.508L312.513 315.249ZM225.57 375.282L223.273 374.295C218.452 385.519 220.564 398.575 224.683 409.863C228.827 421.218 235.179 431.279 239.552 436.856L241.519 435.314L243.487 433.771C239.383 428.538 233.315 418.933 229.38 408.149C225.421 397.3 223.796 385.745 227.867 376.268L225.57 375.282ZM241.519 435.314L239.552 436.856C249.327 449.323 256.293 457.788 269.557 468.322L271.112 466.365L272.666 464.407C259.867 454.241 253.189 446.145 243.487 433.771L241.519 435.314ZM345.634 474.645L347.586 476.207C351.794 470.947 356.546 463.908 358.677 456.442C360.842 448.855 360.331 440.611 353.656 433.591L351.844 435.314L350.033 437.036C355.167 442.436 355.691 448.684 353.869 455.07C352.012 461.576 347.754 467.993 343.682 473.083L345.634 474.645ZM351.844 435.314L353.297 437.348C358.284 433.786 364.565 427.541 362.569 418.229L360.125 418.753L357.68 419.277C359.002 425.446 355.065 429.941 350.391 433.279L351.844 435.314ZM360.125 418.753L362.569 418.229C361.42 412.865 357.281 404.944 351.222 397.783C345.138 390.593 336.821 383.815 327.05 381.15L326.392 383.562L325.735 385.974C334.181 388.277 341.694 394.264 347.405 401.013C353.14 407.79 356.76 414.981 357.68 419.277L360.125 418.753ZM326.392 383.562L326.999 381.136C321.645 379.798 314.479 377.774 308.545 376.368C305.537 375.655 302.695 375.062 300.363 374.756C299.199 374.604 298.097 374.514 297.131 374.53C296.237 374.545 295.152 374.651 294.223 375.116L295.341 377.352L296.459 379.588C296.359 379.638 296.52 379.541 297.216 379.529C297.84 379.519 298.673 379.578 299.713 379.714C301.788 379.986 304.431 380.532 307.392 381.233C313.395 382.656 320.099 384.565 325.786 385.987L326.392 383.562ZM312.513 315.249L311.245 317.404C317.516 321.093 329.295 324.676 345.068 327.551C360.939 330.444 381.125 332.667 404.411 333.498L404.5 331L404.589 328.502C381.505 327.677 361.563 325.475 345.965 322.632C330.27 319.771 319.24 316.306 313.78 313.095L312.513 315.249ZM404.5 331L404.411 333.498C427.908 334.338 444.567 330.79 456.973 326.231C463.164 323.956 468.259 321.442 472.568 319.14C476.968 316.79 480.288 314.811 483.33 313.368L482.259 311.109L481.188 308.85C478.02 310.353 474.311 312.54 470.212 314.73C466.022 316.969 461.148 319.37 455.248 321.538C443.472 325.866 427.461 329.318 404.589 328.502L404.5 331ZM482.259 311.109L480.491 312.877L494.982 327.368L496.749 325.6L498.517 323.832L484.027 309.342L482.259 311.109ZM496.749 325.6L494.288 326.039L497.616 344.67L500.077 344.23L502.538 343.791L499.21 325.16L496.749 325.6ZM500.077 344.23L497.932 345.514L502.884 353.794L505.03 352.511L507.175 351.228L502.223 342.947L500.077 344.23ZM505.03 352.511L506.148 354.747C508.057 353.792 511.254 352.534 514.504 351.913C517.89 351.266 520.652 351.44 522.274 352.521L523.66 350.441L525.047 348.361C521.7 346.129 517.217 346.304 513.565 347.002C509.776 347.726 506.142 349.159 503.912 350.275L505.03 352.511ZM523.66 350.441L522.274 352.521C525.09 354.399 529.723 358.849 533.895 363.712C535.958 366.118 537.85 368.557 539.301 370.745C540.798 373 541.67 374.759 541.927 375.853L544.361 375.282L546.795 374.71C546.322 372.699 545.018 370.318 543.467 367.98C541.871 365.575 539.844 362.969 537.69 360.457C533.428 355.488 528.44 350.623 525.047 348.361L523.66 350.441ZM544.361 375.282L541.927 375.853C542.589 378.671 542.934 384.431 543.186 390.905C543.432 397.211 543.589 404.047 543.938 408.594L546.431 408.403L548.924 408.211C548.583 403.788 548.434 397.169 548.182 390.71C547.937 384.418 547.592 378.102 546.795 374.71L544.361 375.282ZM546.431 408.403C543.941 408.629 543.941 408.629 543.941 408.629C543.941 408.629 543.941 408.629 543.941 408.63C543.941 408.63 543.941 408.631 543.942 408.632C543.942 408.634 543.942 408.638 543.943 408.643C543.944 408.654 543.945 408.669 543.947 408.69C543.951 408.732 543.956 408.794 543.963 408.877C543.978 409.042 543.999 409.286 544.024 409.6C544.076 410.227 544.149 411.132 544.229 412.238C544.389 414.453 544.581 417.465 544.709 420.664C544.838 423.87 544.9 427.232 544.806 430.155C544.708 433.171 544.449 435.424 544.059 436.593L546.431 437.384L548.803 438.174C549.448 436.238 549.706 433.316 549.803 430.316C549.903 427.223 549.836 423.728 549.705 420.464C549.575 417.195 549.379 414.126 549.216 411.877C549.134 410.751 549.061 409.829 549.007 409.187C548.981 408.866 548.959 408.615 548.944 408.443C548.937 408.357 548.931 408.291 548.927 408.246C548.925 408.224 548.924 408.207 548.922 408.195C548.922 408.189 548.922 408.185 548.921 408.182C548.921 408.18 548.921 408.179 548.921 408.178C548.921 408.178 548.921 408.177 548.921 408.177C548.921 408.177 548.921 408.176 546.431 408.403ZM546.431 437.384L544.059 436.593C543.69 437.701 542.556 439.639 540.529 442.04C538.549 444.386 535.85 447.016 532.55 449.521C525.939 454.541 517.071 458.95 506.908 459.732L507.1 462.225L507.291 464.717C518.657 463.843 528.419 458.936 535.574 453.503C539.158 450.781 542.126 447.899 544.35 445.265C546.528 442.684 548.137 440.172 548.803 438.174L546.431 437.384ZM438.787 418.753L441.072 417.738C432.873 399.291 429.179 377.569 438.837 362.116L436.717 360.791L434.597 359.466C423.554 377.135 428.141 400.954 436.503 419.768L438.787 418.753ZM436.717 360.791L438.837 362.116C443.903 354.011 448.81 348.631 453.828 345.273C458.796 341.948 463.997 340.52 469.838 340.52V338.02V335.52C463.088 335.52 456.903 337.198 451.047 341.118C445.239 345.005 439.882 351.011 434.597 359.466L436.717 360.791ZM469.838 338.02V340.52C473.066 340.52 476.1 340.251 478.842 340.027C481.631 339.799 484.086 339.621 486.38 339.741C490.759 339.968 494.501 341.261 498.125 345.792L500.077 344.23L502.03 342.669C497.374 336.849 492.206 335.037 486.64 334.747C483.963 334.608 481.187 334.818 478.435 335.043C475.637 335.272 472.821 335.52 469.838 335.52V338.02ZM507.1 462.225L506.908 459.732C503.142 460.022 499.204 459.706 495.184 458.878L494.679 461.326L494.175 463.775C498.575 464.681 502.987 465.048 507.291 464.717L507.1 462.225ZM494.679 461.326L495.184 458.878C483.75 456.522 471.89 450.068 461.98 442.179C452.046 434.27 444.368 425.155 441.072 417.738L438.787 418.753L436.503 419.768C440.245 428.188 448.581 437.902 458.866 446.091C469.177 454.3 481.743 461.214 494.175 463.775L494.679 461.326ZM507.1 462.225L507.28 459.731L494.86 458.833L494.679 461.326L494.499 463.82L506.919 464.718L507.1 462.225ZM492.609 551.238L495.09 551.548C496.147 543.093 496.662 520.441 496.92 500.104C497.05 489.891 497.115 480.197 497.147 473.058C497.163 469.488 497.171 466.555 497.175 464.516C497.177 463.496 497.178 462.699 497.179 462.157C497.179 461.886 497.179 461.678 497.179 461.539C497.179 461.469 497.179 461.416 497.179 461.38C497.179 461.363 497.179 461.349 497.179 461.34C497.179 461.336 497.179 461.332 497.179 461.33C497.179 461.329 497.179 461.328 497.179 461.327C497.179 461.327 497.179 461.326 494.679 461.326C492.179 461.326 492.179 461.327 492.179 461.327C492.179 461.328 492.179 461.329 492.179 461.33C492.179 461.332 492.179 461.335 492.179 461.34C492.179 461.348 492.179 461.362 492.179 461.379C492.179 461.414 492.179 461.467 492.179 461.536C492.179 461.675 492.179 461.882 492.179 462.152C492.178 462.692 492.177 463.488 492.175 464.506C492.171 466.542 492.163 469.47 492.147 473.035C492.115 480.166 492.05 489.845 491.921 500.04C491.661 520.519 491.142 542.822 490.128 550.928L492.609 551.238ZM492.609 551.238L490.128 550.928C489.669 554.608 487.941 558.937 485.316 563.865C482.705 568.767 479.329 574.043 475.736 579.618C468.632 590.639 460.636 602.866 457.093 614.693L459.488 615.41L461.883 616.127C465.179 605.124 472.708 593.545 479.938 582.327C483.511 576.784 487.004 571.332 489.729 566.216C492.439 561.127 494.515 556.148 495.09 551.548L492.609 551.238ZM459.488 615.41L457.093 614.693C453.625 626.271 450.499 644.026 448.245 659.822C445.996 675.583 444.568 689.728 444.568 694.073H447.068H449.568C449.568 690.138 450.939 676.336 453.195 660.528C455.445 644.756 458.53 627.32 461.883 616.127L459.488 615.41ZM447.068 694.073H444.568C444.568 698.205 444.563 711.447 442.027 724.384C440.757 730.858 438.88 737.109 436.146 742.061C433.411 747.014 429.966 750.415 425.649 751.71L426.367 754.105L427.085 756.499C433.118 754.69 437.436 750.069 440.523 744.478C443.611 738.885 445.615 732.068 446.933 725.346C449.572 711.89 449.568 698.22 449.568 694.073H447.068ZM426.367 754.105L425.649 751.71C415.673 754.703 400.462 755.745 385.742 755.745C371.079 755.745 357.228 754.714 350.128 753.7L349.774 756.175L349.421 758.65C356.811 759.705 370.906 760.745 385.742 760.745C400.52 760.745 416.36 759.717 427.085 756.499L426.367 754.105ZM349.774 756.175L350.128 753.7C345.099 752.982 342.087 750.493 340.275 747.718C338.406 744.855 337.784 741.621 337.784 739.614H335.284H332.784C332.784 742.438 333.611 746.656 336.088 750.452C338.624 754.336 342.857 757.712 349.421 758.65L349.774 756.175ZM335.284 739.614L337.747 740.043C339.124 732.125 341.396 719.729 343.736 708.288C346.1 696.728 348.472 686.464 350.025 682.581L347.704 681.652L345.383 680.724C343.624 685.12 341.166 695.902 338.838 707.286C336.485 718.788 334.204 731.233 332.821 739.186L335.284 739.614ZM347.704 681.652L350.025 682.581C351.221 679.592 351.881 674.695 352.331 669.142C352.789 663.483 353.049 656.763 353.307 649.919C353.83 636.062 354.349 621.908 356.34 613.946L353.914 613.34L351.489 612.734C349.339 621.333 348.823 636.159 348.311 649.731C348.052 656.601 347.795 663.207 347.347 668.739C346.891 674.378 346.257 678.538 345.383 680.724L347.704 681.652ZM353.914 613.34L356.34 613.946C358.36 605.864 365.025 587.38 372.253 570.599C375.861 562.223 379.574 554.357 382.875 548.484C384.53 545.541 386.043 543.167 387.353 541.496C388.009 540.66 388.571 540.054 389.033 539.652C389.525 539.223 389.746 539.164 389.712 539.173L389.106 536.747L388.499 534.322C387.43 534.589 386.503 535.225 385.749 535.881C384.966 536.564 384.186 537.432 383.418 538.411C381.882 540.371 380.226 542.994 378.517 546.034C375.091 552.129 371.299 560.177 367.661 568.621C360.4 585.478 353.609 604.256 351.489 612.734L353.914 613.34ZM335.284 739.614L333.516 737.847C332.239 739.123 329.993 741.077 327.505 742.693C324.917 744.373 322.508 745.395 320.793 745.395V747.895V750.395C324.047 750.395 327.503 748.656 330.228 746.886C333.053 745.052 335.568 742.865 337.052 741.382L335.284 739.614ZM320.793 747.895V745.395C317.531 745.395 306.359 745.911 294.563 745.141C288.679 744.757 282.757 744.058 277.713 742.844C272.577 741.608 268.749 739.926 266.669 737.847L264.901 739.614L263.134 741.382C266.229 744.478 271.199 746.419 276.543 747.705C281.978 749.014 288.217 749.738 294.237 750.131C306.246 750.914 317.845 750.395 320.793 750.395V747.895ZM264.901 739.614L266.669 737.847C257.081 728.259 255.108 714.797 258.993 703.144L256.621 702.353L254.249 701.562C249.854 714.75 252.021 730.269 263.134 741.382L264.901 739.614ZM256.621 702.353L258.993 703.144C261.054 696.958 264.127 688.77 266.999 680.677C269.834 672.686 272.487 664.753 273.563 659.372L271.112 658.882L268.66 658.391C267.666 663.36 265.144 670.953 262.286 679.005C259.466 686.955 256.328 695.327 254.249 701.562L256.621 702.353ZM271.112 658.882L273.563 659.372C274.151 656.429 274.093 650.891 273.833 644.265C273.568 637.529 273.067 629.207 272.651 620.564C271.81 603.102 271.321 584.266 273.568 572.404L271.112 571.938L268.655 571.473C266.278 584.026 266.823 603.486 267.657 620.804C268.077 629.551 268.572 637.74 268.836 644.461C269.105 651.293 269.107 656.159 268.66 658.391L271.112 658.882ZM271.112 571.938L273.568 572.404C275.32 563.153 277.689 553.446 280.949 545.359C284.256 537.154 288.273 531.149 293 528.597L291.812 526.397L290.625 524.197C284.271 527.627 279.703 535.076 276.311 543.49C272.873 552.02 270.432 562.093 268.655 571.473L271.112 571.938ZM271.112 466.365L269.557 468.322C269.775 468.496 270.379 468.89 271.086 469.339C271.871 469.838 272.962 470.517 274.296 471.32C276.962 472.926 280.611 475.038 284.727 477.21C292.869 481.504 303.164 486.206 311.319 487.466L311.701 484.995L312.083 482.525C304.83 481.404 295.184 477.072 287.06 472.787C283.044 470.669 279.479 468.605 276.876 467.037C275.575 466.253 274.517 465.595 273.768 465.119C272.941 464.594 272.625 464.374 272.666 464.407L271.112 466.365ZM311.701 484.995L311.319 487.466C323.839 489.401 336.655 486.394 347.335 476.477L345.634 474.645L343.933 472.813C334.471 481.599 323.228 484.247 312.083 482.525L311.701 484.995ZM291.812 526.397L293 528.597C295.478 527.259 297.809 524.559 299.89 521.465C302.027 518.288 304.111 514.37 306.003 510.214C309.778 501.921 312.909 492.404 314.161 485.438L311.701 484.995L309.24 484.553C308.079 491.014 305.101 500.127 301.452 508.143C299.632 512.142 297.676 515.798 295.741 518.674C293.752 521.633 291.981 523.465 290.625 524.197L291.812 526.397ZM351.844 435.314L353.019 433.107L333.576 422.757L332.401 424.963L331.227 427.17L350.67 437.52L351.844 435.314Z" fill="#849C5E"/>
<path d="M520.979 315.249L487.858 329.74L442.317 352.511C442.317 352.511 437.162 350.051 434.036 346.301C423.686 333.88 393.547 342.739 382.285 348.371C369.864 354.581 366.414 360.101 355.374 369.071C352.614 369.761 346.265 371.555 342.953 373.212C339.641 374.868 323.633 382.182 316.042 385.632C299.482 393.912 268.431 422.479 268.431 453.944C268.431 493.276 303.622 526.397 316.042 530.537C328.463 534.677 336.743 534.677 351.234 524.327C363.654 515.455 380.215 491.206 392.635 478.785C400.915 476.715 420.788 470.919 434.036 464.295C450.597 456.014 450.597 439.454 450.597 431.174C450.597 425.937 447.147 412.543 444.387 406.333L539.61 352.511L520.979 315.249Z" fill="#9EC15D" stroke="#5B9652" stroke-width="5"/>
<path d="M348.814 457.392L354.033 468.639L337.302 478.712L333.95 471.799" stroke="#1E1E1E" stroke-width="5" stroke-linecap="round"/>
<line x1="393.398" y1="400.061" x2="521.743" y2="321.398" stroke="#627C3B" stroke-width="5"/>
<path d="M400 406L525.903 329.666" stroke="#627C3B" stroke-width="5"/>
<path d="M404.5 413.5L530.043 337.947" stroke="#627C3B" stroke-width="5"/>
<path d="M404.5 425.5L534.5 347.5" stroke="#627C3B" stroke-width="5"/>
<path d="M390.118 399.645C394.838 400.399 398.881 403.589 401.526 408.46C404.172 413.335 405.334 419.78 404.241 426.621C403.149 433.461 400.039 439.224 396.006 443.032C391.976 446.838 387.14 448.61 382.42 447.857C377.7 447.103 373.656 443.913 371.011 439.041C368.365 434.166 367.203 427.722 368.295 420.881C369.388 414.04 372.498 408.278 376.531 404.469C380.561 400.664 385.398 398.891 390.118 399.645Z" fill="#253C1F" stroke="#60913F" stroke-width="5"/>
<path d="M497.326 342.979L502.278 351.259C506.418 349.189 515.94 345.877 520.909 349.189C527.119 353.329 541.484 365.413 543.75 373.212C547.96 387.702 545.13 393.222 545.82 402.193C545.82 402.193 552.03 417.501 547.89 437.384C543.75 457.267 523.049 464.295 502.278 464.295C500.278 464.295 489.928 462.225 489.928 462.225C469.227 451.875 443.074 433.338 436.036 417.501C427.755 398.87 421.615 375.282 431.966 358.721C442.316 342.161 454.565 333.88 467.157 333.88C479.577 333.88 489.928 335.95 497.326 342.979Z" fill="#D5DDAE"/>
<path d="M502.278 351.259L497.326 342.979C489.928 335.95 479.577 333.88 467.157 333.88C454.565 333.88 442.316 342.161 431.966 358.721C421.615 375.282 427.755 398.87 436.036 417.501C443.074 433.338 469.227 451.875 489.928 462.225M502.278 351.259C506.418 349.189 515.94 345.877 520.909 349.189C527.119 353.329 541.484 365.413 543.75 373.212C547.96 387.702 545.13 393.222 545.82 402.193C545.82 402.193 552.03 417.501 547.89 437.384C543.75 457.267 523.049 464.295 502.278 464.295M502.278 351.259C502.301 357.196 503.59 369.9 508.558 373.212M502.278 464.295C500.278 464.295 489.928 462.225 489.928 462.225M502.278 464.295L489.928 462.225" stroke="#849C5E" stroke-width="5"/>
<path d="M229.659 377.538C232.696 362.639 284.06 335.325 309.363 323.53L293.271 377.352C296.308 375.862 316.321 382.505 326.443 384.988C343.142 389.457 351.113 407.957 353.011 416.648C354.531 423.611 349.848 428.443 345.42 431.546C356.246 442.721 347.317 457.619 339.727 466.931C330.494 475.344 319.466 477.888 308.619 476.243C294.494 474.101 271.963 460.087 271.409 459.482C261.176 448.308 252.506 444.583 245.659 431.546C239.39 419.609 225.864 396.162 229.659 377.538Z" fill="#D5DDAE"/>
<path d="M345.023 431.173C355.849 442.348 348.474 459.123 340.883 468.435C331.651 476.848 322.253 480.855 307.762 478.785C293.272 476.715 250.628 448.148 245.66 441.524M345.023 431.173C349.451 428.07 355.374 427.033 356.294 419.362C357.354 410.53 336.743 377.352 295.342 375.282M345.023 431.173C345.023 431.173 342.953 429.103 338.813 424.963C334.673 420.823 330.533 419.362 330.533 419.362" stroke="#849C5E" stroke-width="5" stroke-linecap="round"/>
<path d="M405.319 54.4698C486.139 59.8912 547.264 127.958 542.005 206.364C536.745 284.77 467.077 344.063 386.257 338.642C305.438 333.22 244.313 265.154 249.572 186.748C254.831 108.342 324.5 49.0486 405.319 54.4698Z" fill="#D5DDAE" stroke="#849C5E" stroke-width="5"/>
<path d="M542.103 352.092L524.499 313.217L529.413 307.558C528.79 305.615 527.573 300.902 527.689 297.592C527.804 294.282 533.398 292.267 536.18 291.674C537.996 291.737 541.258 296.148 541.977 298.66L548.593 292.106C548.593 292.106 542.603 285.683 542.747 281.546C542.891 277.408 547.101 275.483 551.166 277.696C555.232 279.909 559.122 287.159 559.122 287.159L571.854 278.417L597.019 329.005L579.118 335.855C579.118 335.855 588.24 343.199 586.027 347.264C583.814 351.33 579.604 353.255 577.535 353.183C575.467 353.111 569.728 339.447 569.728 339.447L562.344 342.827C563.701 347.146 567.038 354.967 564.978 356.888C562.922 358.806 555.254 357.295 551.304 347.881L542.103 352.092Z" fill="#446131"/>
<path d="M559.122 287.159L571.854 278.417L597.019 329.005L569.728 339.447M559.122 287.159C559.122 287.159 555.232 279.909 551.166 277.696C547.101 275.483 542.891 277.408 542.747 281.546C542.603 285.683 548.593 292.106 548.593 292.106L541.084 299.544M559.122 287.159L541.084 299.544M541.084 299.544L529.413 307.558M529.413 307.558L524.499 313.217L542.103 352.092L569.728 339.447M529.413 307.558C528.79 305.615 527.573 300.902 527.689 297.592C527.804 294.282 533.398 292.267 536.18 291.674C538.249 291.746 542.192 297.458 542.119 299.58M579.118 335.855C579.118 335.855 588.24 343.199 586.027 347.264C583.814 351.33 579.604 353.255 577.535 353.183C575.467 353.111 569.728 339.447 569.728 339.447M562.192 342.331C563.427 346.516 567.119 354.891 564.978 356.888C562.837 358.885 554.612 357.164 550.835 346.676" stroke="#33392D" stroke-width="5"/>
<ellipse cx="10.4217" cy="11.5392" rx="10.4217" ry="11.5392" transform="matrix(-0.976642 -0.214874 -0.214873 0.976642 419.242 170.125)" fill="#627E4D"/>
<ellipse cx="8.33485" cy="10.382" rx="8.33485" ry="10.382" transform="matrix(-0.976642 -0.214874 -0.214873 0.976642 311.943 157.366)" fill="#627E4D"/>
<path d="M366.025 246.226L314.351 238.347C313.503 238.218 313.211 237.16 313.898 236.647C322.039 230.576 330.319 230.319 343.064 232.447C350.862 233.748 361.934 239.29 366.864 244.807C367.438 245.449 366.876 246.356 366.025 246.226Z" fill="#627E4D"/>
<path d="M623 194.637V197.742C622.996 199.187 622.656 200.612 622.006 201.903C621.376 203.205 620.451 204.343 619.305 205.225C618.16 206.098 616.834 206.703 615.424 206.995C614.801 207.119 614.169 207.182 613.53 207.182C612.72 207.182 611.923 207.088 611.139 206.902L597.973 203.176V228.7C597.981 232.124 596.807 235.447 594.65 238.106C592.492 240.766 589.483 242.599 586.13 243.297C582.777 243.995 579.287 243.514 576.247 241.936C573.208 240.359 570.806 237.78 569.447 234.637C568.088 231.494 567.856 227.978 568.789 224.683C569.722 221.388 571.764 218.516 574.569 216.551C577.374 214.587 580.771 213.651 584.187 213.902C587.602 214.152 590.826 215.573 593.315 217.925V182.123C593.281 181.918 593.281 181.708 593.315 181.502V181.254C593.466 180.909 593.696 180.605 593.988 180.367C594.28 180.13 594.624 179.965 594.992 179.888H596.358L615.92 185.446C617.916 185.983 619.676 187.168 620.924 188.815C622.172 190.462 622.837 192.478 622.814 194.544L623 194.637Z" fill="#849C5E"/>
</g>
<defs>
<filter id="filter0_d_33_240" x="216.5" y="51.6259" width="410.5" height="717.119" filterUnits="userSpaceOnUse" color-interpolation-filters="sRGB">
<feFlood flood-opacity="0" result="BackgroundImageFix"/>
<feColorMatrix in="SourceAlpha" type="matrix" values="0 0 0 0 0 0 0 0 0 0 0 0 0 0 0 0 0 0 127 0" result="hardAlpha"/>
<feOffset dy="4"/>
<feGaussianBlur stdDeviation="2"/>
<feComposite in2="hardAlpha" operator="out"/>
<feColorMatrix type="matrix" values="0 0 0 0 0 0 0 0 0 0 0 0 0 0 0 0 0 0 0.25 0"/>
<feBlend mode="normal" in2="BackgroundImageFix" result="effect1_dropShadow_33_240"/>
<feBlend mode="normal" in="SourceGraphic" in2="effect1_dropShadow_33_240" result="shape"/>
</filter>
</defs>
</svg>
