<svg width="800" height="800" viewBox="0 0 800 800" fill="none" xmlns="http://www.w3.org/2000/svg">
<rect width="800" height="800" fill="#E7EABF"/>
<circle cx="400.5" cy="400.5" r="394.5" fill="white"/>
<g filter="url(#filter0_d_33_295)">
<path d="M295.072 361.988C298.341 345.645 329.12 315.683 344.101 302.745L393.13 315.002H460.545L505.488 294.573L511.617 300.702C519.788 302.745 531.116 319.705 534.088 323.173C546.346 337.473 546.346 361.988 544.303 396.717C541.779 439.617 523.874 470.26 515.703 482.517C515.703 482.517 509.574 615.304 509.574 623.475C509.574 631.647 515.703 729.296 515.703 744.004C515.703 758.713 506.169 765.114 501.402 766.476C462.588 780.776 401.302 766.476 397.216 760.347C393.947 755.444 401.302 729.704 405.388 717.447C398.85 723.984 397.216 754.219 393.13 756.262C389.045 758.304 329.801 752.176 325.716 733.79C322.447 719.081 346.144 693.614 358.401 682.718C357.04 664.332 354.316 626.744 354.316 623.475C354.316 619.389 325.716 537.675 325.716 523.374V427.36C289.625 425.998 214.583 423.274 203.143 423.274C188.843 423.274 154.114 406.931 141.857 400.802C132.051 395.899 129.6 374.245 129.6 364.031L186.8 374.245L203.143 353.816C197.695 342.24 189.251 318.679 199.057 317.045C208.863 315.41 239.915 346.326 254.215 361.988L264.429 370.159C273.282 374.245 291.804 378.331 295.072 361.988Z" fill="#D5DDAE"/>
<path d="M405.388 717.447C398.85 723.984 397.216 754.219 393.13 756.262C389.045 758.304 329.801 752.176 325.716 733.79C322.447 719.081 346.144 693.614 358.401 682.718C357.04 664.332 354.316 626.744 354.316 623.475C354.316 619.389 325.716 537.675 325.716 523.374C325.716 511.934 325.716 454.598 325.716 427.36C289.625 425.998 214.583 423.274 203.143 423.274C188.843 423.274 154.114 406.931 141.857 400.802C132.051 395.899 129.6 374.245 129.6 364.031L186.8 374.245L203.143 353.816C197.695 342.24 189.251 318.679 199.057 317.045C208.863 315.41 239.915 346.326 254.215 361.988L264.429 370.159C273.282 374.245 291.804 378.331 295.072 361.988C298.341 345.645 329.12 315.683 344.101 302.745L393.13 315.002H460.545L505.488 294.573C507.531 296.616 511.617 300.702 511.617 300.702M405.388 717.447C408.531 714.304 409.569 712.677 409.473 711.318C406.749 672.504 401.302 598.961 399.259 592.832C397.216 586.703 391.087 582.618 384.959 582.618M405.388 717.447C401.302 729.704 393.947 755.444 397.216 760.347C401.302 766.476 462.588 780.776 501.403 766.476C506.169 765.114 515.703 758.713 515.703 744.004C515.703 729.296 509.574 631.647 509.574 623.475C509.574 615.304 515.703 482.517 515.703 482.517M515.703 482.517C523.874 470.26 541.779 439.617 544.303 396.717C546.346 361.988 546.346 337.473 534.088 323.173C531.116 319.705 519.788 302.745 511.617 300.702M515.703 482.517C499.36 496.136 460.136 523.374 433.988 523.374C401.302 523.374 376.787 504.989 370.659 494.774L395.173 482.517C394.492 479.112 393.539 471.894 395.173 470.26C397.216 468.217 419.688 455.96 425.816 455.96C430.539 455.96 443.755 452.32 452.374 445.041M468.717 382.416C468.717 386.502 464.631 425.317 458.502 437.574C457.097 440.385 454.939 442.874 452.374 445.041M511.617 300.702C495.955 300.99 470.759 316.636 462.588 347.688C454.416 378.739 452.374 425.528 452.374 445.041" stroke="#849C5E" stroke-width="5" stroke-linecap="round"/>
<path d="M409.473 325.216C396.399 325.216 367.254 315.682 354.316 310.916C354.316 312.959 326.35 367.383 323.673 374.245C290.988 458.002 327.76 504.988 331.845 509.074C335.93 513.16 431.946 532.363 431.946 519.288C431.946 506.214 449.65 351.773 462.588 317.044C450.331 319.768 422.548 325.216 409.473 325.216Z" fill="white" stroke="#33392D" stroke-width="5" stroke-linecap="round"/>
<path d="M192.93 429.402C183.124 432.671 177.949 443.021 176.587 447.788C176.587 454.325 182.034 459.364 184.758 460.045C238.554 472.983 349.005 498.451 360.445 496.817C374.745 494.774 452.374 447.788 452.374 439.617C452.374 431.445 431.946 425.317 427.86 423.274C424.591 421.639 313.459 390.588 303.245 390.588C293.03 390.588 202.735 426.134 192.93 429.402Z" fill="#446131" stroke="#33392D" stroke-width="5" stroke-linecap="round"/>
<path d="M426.076 41.3388C505.816 46.6878 566.124 113.845 560.935 191.202C555.746 268.558 487.009 327.059 407.268 321.711C327.528 316.362 267.22 249.204 272.409 171.848C277.598 94.4909 346.335 35.9898 426.076 41.3388Z" fill="#D5DDAE" stroke="#849C5E" stroke-width="5"/>
<path d="M397.219 480.474C397.219 480.474 377.546 495 375.5 495C373.454 495 403.346 517.246 436.031 519.289C468.716 521.332 442.16 480.474 442.16 480.474L444.206 451.874L419.691 460.046L395.177 472.303L397.219 480.474Z" fill="#D5DDAE" stroke="#D5DDAE" stroke-width="5" stroke-linecap="round"/>
<path d="M534.088 323.173C546.346 337.473 544.302 376.288 542.259 411.017C540.625 438.8 523.873 470.26 515.702 482.517C499.359 496.136 460.136 523.374 433.987 523.374C407.839 523.374 370.659 502.946 372.701 494.774C374.743 486.603 393.129 484.56 395.173 482.517C397.216 480.474 391.086 476.388 395.173 470.26C399.259 464.131 417.643 458.003 425.816 455.96C433.988 453.917 448.286 450.464 452.373 445.041C456.46 439.617 457.096 440.385 458.502 437.574C464.63 425.317 468.716 386.502 468.716 382.416" stroke="#849C5E" stroke-width="5" stroke-linecap="round"/>
<ellipse cx="9.08031" cy="9.38353" rx="9.08031" ry="9.38353" transform="matrix(-0.994275 0.106855 0.106855 0.994275 413.23 167.915)" fill="#627E4D"/>
<ellipse cx="9.76536" cy="8.40938" rx="9.76536" ry="8.40938" transform="matrix(-0.0667805 -0.997768 -0.997768 0.0667804 327.459 187.402)" fill="#627E4D"/>
<path d="M332.842 245.091L387.314 245.896C388.287 245.91 388.674 244.708 387.84 244.206C380.35 239.7 371.778 238.642 358.542 238.565C350.51 238.518 338.782 240.684 332.449 243.569C331.571 243.969 331.877 245.076 332.842 245.091Z" fill="#627E4D"/>
<path d="M131.931 301.025L215.244 324.568C221.486 326.232 212.041 339.091 210.002 339.216C208.371 339.317 157.942 324.672 132.932 317.338C129.658 319.585 123.569 324.871 125.401 328.033C127.69 331.986 176.177 388.366 176.427 392.444C176.627 395.707 168.688 399.741 164.693 401.351C144.924 379.368 104.928 334.611 103.097 331.448C100.807 327.495 110.002 310.557 117.783 303.94C124.007 298.646 129.808 299.791 131.931 301.025Z" fill="#446131" stroke="#33392D" stroke-width="5" stroke-linecap="round"/>
<ellipse cx="324.992" cy="447.511" rx="68.5972" ry="32.2033" transform="rotate(7.60764 324.992 447.511)" fill="#9C9898"/>
<g clip-path="url(#clip0_33_295)">
<path d="M392.881 352.423L395.154 344.532C395.528 343.235 395.371 341.844 394.718 340.663C394.065 339.482 392.97 338.609 391.674 338.236C388.965 337.456 386.133 339.021 385.358 341.71L385.372 341.736C385.214 342.285 385.522 342.842 386.071 343C386.621 343.158 387.177 342.851 387.336 342.301L387.322 342.276C387.568 341.524 388.097 340.897 388.796 340.527C389.495 340.157 390.311 340.073 391.071 340.292C391.832 340.511 392.477 341.016 392.873 341.701C393.268 342.387 393.382 343.199 393.191 343.966L390.404 353.644L387.279 355.784C384.729 357.402 382.594 359.596 381.046 362.189L379.917 361.339C378.783 360.48 378.275 358.995 378.671 357.621L381.278 348.571L381.248 348.562L381.258 348.565L383.492 340.811C384.125 338.613 383.122 336.262 381.186 335.236C381.081 335.177 380.964 335.142 380.844 335.135C380.724 335.128 380.603 335.147 380.492 335.193C380.381 335.239 380.281 335.309 380.201 335.399C380.121 335.488 380.062 335.595 380.029 335.711L377.973 342.848C377.857 342.807 377.74 342.769 377.623 342.735L376.916 342.531C376.229 342.333 375.857 341.631 376.049 340.964L377.667 335.349C377.709 335.195 377.718 335.034 377.692 334.876C377.667 334.719 377.607 334.569 377.518 334.436C377.429 334.303 377.313 334.192 377.177 334.108C377.041 334.025 376.888 333.972 376.73 333.953C373.38 333.626 370.114 335.81 369.147 339.167L367.327 345.488C366.714 347.617 366.929 349.898 367.93 351.874C368.931 353.85 370.643 355.374 372.722 356.139C372.247 357.977 372.324 359.915 372.946 361.709C373.567 363.503 374.704 365.074 376.214 366.224L378.725 368.115C378.495 369.202 378.36 370.308 378.319 371.419L376.699 370.446C376.47 370.309 376.278 370.117 376.14 369.888C376.002 369.66 375.922 369.4 375.908 369.134L375.816 367.237C375.802 366.965 375.68 366.71 375.477 366.528C375.274 366.346 375.007 366.252 374.735 366.266C374.463 366.281 374.208 366.403 374.026 366.606C373.844 366.809 373.75 367.075 373.765 367.347L373.856 369.244C373.913 370.451 374.592 371.561 375.621 372.197L378.339 373.831L378.357 374.58L373.901 373.297C372.782 372.974 371.914 372.15 371.546 371.066L370.938 369.042C370.86 368.783 370.683 368.565 370.445 368.437C370.207 368.309 369.928 368.28 369.669 368.357C369.41 368.435 369.192 368.612 369.064 368.85C368.936 369.088 368.907 369.368 368.984 369.627L369.6 371.696C370.188 373.418 371.569 374.751 373.335 375.26L378.404 376.72L378.422 377.55L373.743 377.46C372.579 377.444 371.514 376.861 370.893 375.917L370.02 374.517C369.879 374.29 369.654 374.127 369.394 374.064C369.133 374.001 368.859 374.043 368.629 374.18C368.163 374.471 368.001 375.105 368.292 375.571L369.193 377.021C369.917 378.123 371.01 378.905 372.266 379.267C372.737 379.403 373.206 379.474 373.711 379.492L378.468 379.582L378.497 380.832L377.003 381.716C376.29 382.127 375.428 382.24 374.623 382.008L372.837 381.494C372.287 381.335 371.731 381.643 371.572 382.192C371.414 382.742 371.735 383.324 372.266 383.476L374.072 383.997C375.406 384.381 376.86 384.205 378.046 383.483L378.548 383.186L378.601 385.586L375.274 387.425C373.757 388.264 373.202 390.188 374.041 391.705L374.055 391.73C374.894 393.247 376.817 393.801 378.334 392.963L379.348 392.402C379.966 393.579 380.994 394.528 382.292 395.017C383.064 395.308 383.891 395.424 384.713 395.358C385.535 395.291 386.332 395.042 387.047 394.63L387.6 395.632C388.439 397.149 390.362 397.703 391.88 396.864L391.905 396.85C393.422 396.012 393.976 394.088 393.137 392.571L391.302 389.251L392.546 387.368L392.836 387.934C393.456 389.176 394.594 390.099 395.928 390.483L397.734 391.004C398.264 391.156 398.866 390.84 399.024 390.291C399.182 389.741 398.875 389.185 398.325 389.027L396.519 388.506C395.714 388.275 395.045 387.72 394.659 386.993L393.841 385.405L393.953 385.237L393.93 385.25L394.496 384.392L398.625 386.879C399.394 387.34 400.262 387.609 401.157 387.663C402.052 387.717 402.946 387.555 403.765 387.19L405.299 386.441C405.793 386.201 405.994 385.578 405.754 385.084C405.513 384.59 404.891 384.389 404.396 384.629L402.913 385.35C401.885 385.819 400.673 385.746 399.678 385.141L395.614 382.695L396.072 382L401.199 383.477C402.966 383.986 404.839 383.611 406.258 382.446L407.88 381.022C408.083 380.843 408.208 380.591 408.226 380.322C408.244 380.052 408.154 379.786 407.976 379.582C407.798 379.379 407.546 379.255 407.276 379.237C407.006 379.219 406.74 379.309 406.537 379.487L404.945 380.878C404.057 381.6 402.884 381.836 401.765 381.514L397.25 380.213L397.651 379.602L400.893 379.668C402.103 379.676 403.268 379.098 403.958 378.106L405.044 376.548C405.122 376.438 405.178 376.314 405.207 376.182C405.237 376.05 405.241 375.914 405.218 375.781C405.195 375.648 405.146 375.521 405.074 375.407C405.002 375.293 404.908 375.194 404.798 375.117C404.688 375.039 404.563 374.983 404.432 374.954C404.3 374.924 404.164 374.92 404.031 374.943C403.898 374.966 403.771 375.015 403.657 375.087C403.543 375.159 403.444 375.253 403.366 375.363L402.28 376.921C401.962 377.361 401.462 377.621 400.912 377.611L398.967 377.572C399.57 376.565 400.079 375.504 400.487 374.404L403.677 374.135C405.568 373.964 407.367 373.239 408.847 372.05C410.328 370.861 411.424 369.261 411.999 367.452C414.166 367.91 416.427 367.531 418.326 366.39C420.224 365.249 421.621 363.432 422.234 361.303L424.054 354.982C425.021 351.625 423.418 348.038 420.408 346.533C420.263 346.465 420.106 346.429 419.946 346.427C419.787 346.425 419.628 346.458 419.482 346.523C419.337 346.588 419.206 346.684 419.101 346.803C418.996 346.923 418.917 347.065 418.871 347.218L417.254 352.832C417.062 353.499 416.374 353.896 415.686 353.698L414.98 353.495C414.862 353.461 414.743 353.431 414.623 353.405L416.673 346.287C416.735 346.071 416.694 345.846 416.596 345.669C416.536 345.548 416.444 345.445 416.331 345.371C416.218 345.298 416.087 345.256 415.952 345.25C413.766 345.088 411.667 346.545 411.033 348.744L408.8 356.498L408.78 356.493L406.174 365.542C405.778 366.916 404.558 367.904 403.141 368.028L401.683 368.15C401.752 365.26 401.167 362.392 399.973 359.76L398.283 355.884L401.063 346.234C401.527 344.624 403.221 343.688 404.83 344.151C406.44 344.615 407.377 346.309 406.913 347.919L406.927 347.944C406.769 348.494 407.076 349.05 407.626 349.208C408.175 349.367 408.732 349.059 408.89 348.509L408.876 348.484C409.651 345.795 408.085 342.963 405.396 342.188C402.706 341.414 399.875 342.979 399.1 345.668L396.829 353.552C396.304 353.07 395.674 352.716 394.988 352.521C394.303 352.325 393.582 352.291 392.881 352.423ZM390.688 360.038C390.7 360.24 390.672 360.443 390.605 360.634C390.538 360.826 390.433 361.002 390.298 361.153C390.162 361.304 389.998 361.426 389.815 361.513C389.632 361.6 389.434 361.649 389.231 361.659C389.029 361.669 388.826 361.638 388.636 361.569C388.445 361.5 388.27 361.393 388.121 361.256C387.972 361.119 387.851 360.953 387.767 360.769C387.682 360.585 387.634 360.386 387.627 360.183C387.613 359.78 387.758 359.388 388.031 359.091C388.304 358.794 388.683 358.617 389.086 358.598C389.489 358.579 389.883 358.72 390.183 358.989C390.482 359.259 390.664 359.635 390.688 360.038ZM394.616 361.235C394.724 361.065 394.864 360.918 395.029 360.803C395.194 360.687 395.379 360.605 395.576 360.561C395.772 360.517 395.975 360.512 396.174 360.547C396.372 360.581 396.562 360.655 396.732 360.763C396.901 360.87 397.048 361.011 397.164 361.175C397.28 361.34 397.362 361.526 397.406 361.722C397.45 361.919 397.455 362.122 397.42 362.32C397.385 362.519 397.312 362.708 397.204 362.878C396.986 363.221 396.641 363.464 396.245 363.553C395.848 363.641 395.432 363.569 395.089 363.351C394.746 363.133 394.503 362.788 394.414 362.391C394.326 361.994 394.398 361.579 394.616 361.235Z" fill="#BB0000"/>
</g>
<path d="M340.535 429.009L336.004 425.988C337.515 424.478 349.598 425.988 351.108 425.988C352.618 425.988 361.681 432.03 363.191 432.03C364.702 432.03 367.722 436.561 369.233 439.582C370.743 442.603 370.743 448.644 370.743 451.665C370.743 454.082 367.722 455.693 366.212 456.197C365.205 457.707 363.191 461.03 363.191 462.238C363.191 463.749 358.661 462.238 358.66 463.749C358.659 464.957 355.639 466.266 354.129 466.769C353.122 465.763 350.806 464.051 349.598 465.259C348.088 466.769 340.535 468.28 339.024 468.28C337.513 468.28 339.024 465.259 336.004 466.769C332.984 468.28 326.941 463.749 325.431 463.749C323.92 463.749 319.389 462.238 317.879 460.728C316.368 459.217 313.348 450.155 316.368 448.644C319.389 447.134 320.9 448.644 322.41 448.644C323.921 448.644 337.515 451.665 336.004 450.155C334.494 448.644 343.556 450.155 343.556 448.644C343.556 447.134 352.619 445.624 352.619 444.113C352.619 442.905 356.647 439.582 358.661 438.071C358.157 436.058 356.848 432.332 355.64 433.54C354.129 435.051 349.598 430.519 349.598 429.009C349.598 427.801 343.556 428.505 340.535 429.009Z" fill="#BA6D39" stroke="#9C4925" stroke-width="5" stroke-linecap="round"/>
<path d="M301.483 450.994C302.337 451.849 312.559 457.539 318.097 460.057L315.076 455.525C314.069 454.518 311.754 452.505 310.545 452.505H307.524L306.014 450.994C305.007 449.987 299.972 449.484 301.483 450.994Z" fill="#BA6D39"/>
<path d="M312.056 452.505C301.483 444.952 306.014 434.379 306.014 435.89C306.014 437.098 311.049 446.463 313.566 450.994L315.076 454.015L312.056 452.505Z" fill="#BA6D39"/>
<path d="M310.545 435.89C309.337 439.515 313.063 445.456 315.076 447.973H318.097C316.889 447.973 312.559 439.918 310.545 435.89Z" fill="#BA6D39"/>
<path d="M316.587 438.911C316.587 440.119 318.601 444.449 319.608 446.463H318.097L315.076 440.421C315.58 439.414 316.587 437.702 316.587 438.911Z" fill="#BA6D39"/>
<path d="M301.483 450.994C302.337 451.849 312.559 457.539 318.097 460.057L315.076 455.525C314.069 454.518 311.754 452.505 310.545 452.505H307.524L306.014 450.994C305.007 449.987 299.972 449.484 301.483 450.994Z" stroke="#9C4925" stroke-width="5" stroke-linecap="round"/>
<path d="M312.056 452.505C301.483 444.952 306.014 434.379 306.014 435.89C306.014 437.098 311.049 446.463 313.566 450.994L315.076 454.015L312.056 452.505Z" stroke="#9C4925" stroke-width="5" stroke-linecap="round"/>
<path d="M310.545 435.89C309.337 439.515 313.063 445.456 315.076 447.973H318.097C316.889 447.973 312.559 439.918 310.545 435.89Z" stroke="#9C4925" stroke-width="5" stroke-linecap="round"/>
<path d="M316.587 438.911C316.587 440.119 318.601 444.449 319.608 446.463H318.097L315.076 440.421C315.58 439.414 316.587 437.702 316.587 438.911Z" stroke="#9C4925" stroke-width="5" stroke-linecap="round"/>
<ellipse cx="320.906" cy="443.425" rx="68.5972" ry="32.2033" transform="rotate(9.07756 320.906 443.425)" fill="#D9D9D9"/>
<path d="M326.73 416.634C342.485 419.152 356.149 424.415 365.502 430.777C375.037 437.263 379.327 444.303 378.367 450.31C377.407 456.316 371.137 461.668 360.057 464.86C349.186 467.991 334.563 468.735 318.808 466.217C303.052 463.7 289.389 458.437 280.035 452.074C270.501 445.589 266.21 438.55 267.169 432.543C268.129 426.537 274.399 421.184 285.48 417.992C296.351 414.861 310.974 414.117 326.73 416.634Z" stroke="#BDBDBD" stroke-width="5"/>
<path d="M340.535 424.923L336.004 421.902C337.515 420.392 349.598 421.902 351.108 421.902C352.618 421.902 361.681 427.944 363.191 427.944C364.702 427.944 367.722 432.475 369.233 435.496C370.743 438.517 370.743 444.559 370.743 447.58C370.743 449.996 367.722 451.607 366.212 452.111C365.205 453.621 363.191 456.944 363.191 458.153C363.191 459.663 358.661 458.153 358.66 459.663C358.659 460.871 355.639 462.18 354.129 462.684C353.122 461.677 350.806 459.965 349.598 461.173C348.088 462.684 340.535 464.194 339.024 464.194C337.513 464.194 339.024 461.173 336.004 462.684C332.984 464.194 326.941 459.663 325.431 459.663C323.92 459.663 319.389 458.153 317.879 456.642C316.368 455.132 313.348 446.069 316.368 444.559C319.389 443.048 320.9 444.559 322.41 444.559C323.921 444.559 337.515 447.58 336.004 446.069C334.494 444.559 343.556 446.069 343.556 444.559C343.556 443.048 352.619 441.538 352.619 440.028C352.619 438.819 356.647 435.496 358.661 433.986C358.157 431.972 356.848 428.246 355.64 429.455C354.129 430.965 349.598 426.434 349.598 424.923C349.598 423.715 343.556 424.42 340.535 424.923Z" fill="#E98947" stroke="#D7612D" stroke-width="5" stroke-linecap="round"/>
<path d="M301.483 446.908C302.337 447.763 312.559 453.453 318.097 455.971L315.076 451.439C314.069 450.433 311.754 448.419 310.545 448.419H307.524L306.014 446.908C305.007 445.901 299.972 445.398 301.483 446.908Z" fill="#E98947"/>
<path d="M312.056 448.419C301.483 440.867 306.014 430.294 306.014 431.804C306.014 433.012 311.049 442.377 313.566 446.908L315.076 449.929L312.056 448.419Z" fill="#E98947"/>
<path d="M310.545 431.804C309.337 435.429 313.063 441.37 315.076 443.887H318.097C316.889 443.887 312.559 435.832 310.545 431.804Z" fill="#E98947"/>
<path d="M316.587 434.825C316.587 436.033 318.601 440.363 319.608 442.377H318.097L315.076 436.335C315.58 435.328 316.587 433.616 316.587 434.825Z" fill="#E98947"/>
<path d="M301.483 446.908C302.337 447.763 312.559 453.453 318.097 455.971L315.076 451.439C314.069 450.433 311.754 448.419 310.545 448.419H307.524L306.014 446.908C305.007 445.901 299.972 445.398 301.483 446.908Z" stroke="#D7612D" stroke-width="5" stroke-linecap="round"/>
<path d="M312.056 448.419C301.483 440.867 306.014 430.294 306.014 431.804C306.014 433.012 311.049 442.377 313.566 446.908L315.076 449.929L312.056 448.419Z" stroke="#D7612D" stroke-width="5" stroke-linecap="round"/>
<path d="M310.545 431.804C309.337 435.429 313.063 441.37 315.076 443.887H318.097C316.889 443.887 312.559 435.832 310.545 431.804Z" stroke="#D7612D" stroke-width="5" stroke-linecap="round"/>
<path d="M316.587 434.825C316.587 436.033 318.601 440.363 319.608 442.377H318.097L315.076 436.335C315.58 435.328 316.587 433.616 316.587 434.825Z" stroke="#D7612D" stroke-width="5" stroke-linecap="round"/>
<path d="M299.408 425.851C299.611 425.965 299.837 426.035 300.072 426.057C300.307 426.079 300.547 426.052 300.777 425.979C301.008 425.905 301.224 425.786 301.415 425.628C301.606 425.47 301.767 425.276 301.889 425.058C302.011 424.84 302.092 424.601 302.127 424.356C302.162 424.111 302.15 423.864 302.093 423.629C302.035 423.394 301.932 423.176 301.791 422.987C301.65 422.798 301.472 422.642 301.268 422.528C300.857 422.298 300.364 422.252 299.899 422.401C299.433 422.549 299.033 422.88 298.787 423.321C298.54 423.762 298.467 424.276 298.583 424.75C298.7 425.225 298.996 425.621 299.408 425.851Z" fill="#FCD53F"/>
<path d="M297.828 422.403C298.292 422.293 298.745 422.493 298.97 422.887L298.971 422.887L300.822 426.113L300.822 426.114C301.051 426.528 301.008 427.084 300.677 427.493L300.675 427.495C300.506 427.707 300.27 427.858 300.021 427.916L300.014 427.917C299.548 428.034 299.1 427.836 298.88 427.44L298.878 427.436L298.612 426.961L298.176 427.206L297.74 427.452L297.74 427.453L297.809 427.575L299.004 429.701C299.417 430.441 299.327 431.43 298.744 432.158L298.741 432.162C298.441 432.545 298.026 432.809 297.572 432.916L297.567 432.918C297.175 433.015 296.777 432.99 296.421 432.852C296.065 432.713 295.76 432.466 295.547 432.138L294.693 432.655L294.992 433.187L294.994 433.19C295.476 434.032 295.373 435.162 294.709 435.977L294.708 435.979C294.481 436.261 294.2 436.491 293.888 436.652C293.576 436.812 293.241 436.9 292.907 436.913C292.573 436.925 292.248 436.861 291.952 436.727C291.657 436.593 291.397 436.392 291.19 436.136L290.323 436.598C290.498 437.161 290.464 437.791 290.218 438.365C289.972 438.94 289.535 439.409 288.997 439.684C288.46 439.958 287.864 440.018 287.325 439.864C286.788 439.71 286.334 439.351 286.052 438.852L285.731 438.282L284.804 438.619C284.849 438.862 284.848 439.119 284.797 439.372C284.747 439.625 284.648 439.868 284.507 440.088C284.367 440.308 284.188 440.499 283.982 440.649C283.775 440.799 283.546 440.905 283.309 440.963L283.308 440.963C282.559 441.148 281.825 440.83 281.457 440.171L281.456 440.168L281.22 439.75L280.943 439.26L280.489 439.593L279.594 440.249L277.528 436.366L278.418 435.862L278.851 435.616L278.607 435.182L278.406 434.824C278.034 434.157 278.113 433.275 278.642 432.62L278.643 432.619C278.923 432.27 279.301 432.033 279.707 431.934L279.708 431.934C279.978 431.868 280.251 431.866 280.509 431.927C280.766 431.987 281.003 432.108 281.201 432.281L281.965 431.658L281.65 431.098C281.468 430.775 281.363 430.402 281.35 430.011C281.336 429.62 281.413 429.223 281.577 428.855C281.741 428.487 281.986 428.159 282.29 427.902C282.593 427.644 282.944 427.465 283.313 427.376C283.717 427.278 284.129 427.291 284.507 427.41C284.885 427.528 285.221 427.748 285.482 428.051L286.328 427.547C286.179 427.151 286.137 426.71 286.211 426.27C286.285 425.829 286.473 425.408 286.754 425.055L286.754 425.054C287.107 424.618 287.584 424.313 288.095 424.188L288.096 424.189C289.047 423.955 289.998 424.367 290.47 425.198L290.47 425.199L290.673 425.561L291.564 425.109C291.401 424.753 291.342 424.343 291.399 423.931C291.457 423.518 291.629 423.122 291.895 422.795C292.205 422.412 292.622 422.147 293.069 422.034C293.914 421.833 294.739 422.184 295.155 422.918L295.155 422.919L296.114 424.62L296.998 424.153C296.901 423.956 296.862 423.723 296.891 423.485C296.921 423.246 297.018 423.016 297.171 422.825L297.174 422.822C297.324 422.633 297.518 422.5 297.733 422.43L297.828 422.403Z" fill="#F9C23C" stroke="#DCB419"/>
<path d="M300.449 424.484L300.14 423.936C299.972 423.633 299.713 423.399 299.4 423.265C299.087 423.132 298.735 423.106 298.395 423.192C297.974 423.294 297.598 423.558 297.345 423.93C297.092 424.302 296.981 424.752 297.037 425.187L296.875 424.896C296.345 423.959 295.287 423.506 294.229 423.765C293.661 423.901 293.145 424.237 292.767 424.703C292.466 425.073 292.263 425.514 292.179 425.98C292.095 426.446 292.133 426.92 292.289 427.351C292.056 426.985 291.741 426.685 291.368 426.475C290.995 426.265 290.575 426.151 290.141 426.143C289.707 426.135 289.271 426.232 288.868 426.426C288.465 426.621 288.106 426.908 287.82 427.265C287.131 428.111 286.939 429.255 287.303 430.222C286.978 429.85 286.56 429.577 286.091 429.429C285.621 429.282 285.115 429.266 284.623 429.383C283.989 429.537 283.399 429.914 282.977 430.449C282.596 430.923 282.356 431.498 282.289 432.097C282.223 432.696 282.332 433.292 282.603 433.804C282.343 433.571 282.031 433.406 281.69 433.324C281.35 433.241 280.991 433.243 280.642 433.33C280.127 433.455 279.654 433.755 279.307 434.187C278.658 434.991 278.553 436.098 279.024 436.951L279.886 438.487C280.365 439.345 281.328 439.759 282.293 439.521C282.808 439.396 283.28 439.096 283.628 438.663C283.866 438.371 284.038 438.028 284.131 437.664C284.223 437.299 284.233 436.922 284.16 436.562C284.459 437.06 284.902 437.443 285.43 437.662C285.958 437.881 286.548 437.926 287.121 437.79C287.757 437.636 288.346 437.259 288.768 436.724C289.094 436.319 289.318 435.84 289.417 435.332C289.517 434.824 289.488 434.306 289.334 433.829C289.589 434.148 289.911 434.401 290.279 434.57C290.647 434.738 291.05 434.819 291.462 434.805C291.873 434.791 292.281 434.684 292.658 434.49C293.035 434.296 293.371 434.021 293.642 433.685C294.018 433.212 294.253 432.64 294.315 432.044C294.376 431.449 294.261 430.859 293.984 430.353C294.269 430.691 294.641 430.939 295.06 431.072C295.479 431.206 295.931 431.219 296.37 431.111C296.937 430.977 297.454 430.639 297.832 430.174C298.547 429.295 298.664 428.081 298.134 427.145L297.958 426.83C298.323 427.11 298.807 427.215 299.29 427.095C299.666 427.007 300.007 426.785 300.25 426.481C300.479 426.199 300.622 425.855 300.658 425.497C300.693 425.139 300.62 424.785 300.449 424.485" fill="#FCD53F"/>
</g>
<defs>
<filter id="filter0_d_33_295" x="96.2402" y="38.4994" width="471.506" height="744.626" filterUnits="userSpaceOnUse" color-interpolation-filters="sRGB">
<feFlood flood-opacity="0" result="BackgroundImageFix"/>
<feColorMatrix in="SourceAlpha" type="matrix" values="0 0 0 0 0 0 0 0 0 0 0 0 0 0 0 0 0 0 127 0" result="hardAlpha"/>
<feOffset dy="4"/>
<feGaussianBlur stdDeviation="2"/>
<feComposite in2="hardAlpha" operator="out"/>
<feColorMatrix type="matrix" values="0 0 0 0 0 0 0 0 0 0 0 0 0 0 0 0 0 0 0.25 0"/>
<feBlend mode="normal" in2="BackgroundImageFix" result="effect1_dropShadow_33_295"/>
<feBlend mode="normal" in="SourceGraphic" in2="effect1_dropShadow_33_295" result="shape"/>
</filter>
<clipPath id="clip0_33_295">
<rect width="65.3719" height="65.3718" fill="white" transform="translate(368.325 327.259) rotate(16.0681)"/>
</clipPath>
</defs>
</svg>
