<svg width="800" height="800" viewBox="0 0 800 800" fill="none" xmlns="http://www.w3.org/2000/svg">
<rect width="800" height="800" fill="#E7EABF"/>
<circle cx="400.5" cy="400.5" r="394.5" fill="white"/>
<g filter="url(#filter0_d_33_267)">
<path d="M298.486 572.573C300.765 556.62 300.005 540.668 303.044 531.552C307.601 531.552 337.228 531.552 339.507 526.994C341.331 523.348 353.181 515.599 355.46 511.041L423.829 513.32C426.867 515.599 440.237 518.79 442.061 522.436C444.339 526.994 480.803 536.11 487.64 536.11C494.477 536.11 501.312 530.604 505.87 533.831C510.428 537.058 503.591 581.689 503.591 588.526C503.592 595.363 503.592 652.337 501.312 666.01C499.033 679.684 508.149 727.542 503.591 741.216C499.034 754.89 478.523 759.448 464.849 761.727C451.175 764.006 419.269 759.448 414.712 752.611C410.154 745.774 403.318 725.263 405.597 707.032C407.876 688.8 407.876 675.126 407.876 661.452C407.876 647.779 403.317 606.757 403.317 609.036C403.317 611.315 402.481 643.455 401.039 647.779C398.759 654.616 396.48 670.568 396.48 677.405C396.48 684.242 401.039 727.542 401.039 736.658C401.039 745.774 398.76 757.169 394.202 761.727C389.644 766.285 348.623 777.679 321.275 768.564C293.928 759.448 300.766 732.1 303.044 720.705C305.322 709.311 303.046 661.452 300.765 645.5C298.485 629.547 296.206 588.526 298.486 572.573Z" fill="#D5DDAE" stroke="#849C5E" stroke-width="5"/>
<path d="M241.51 449.509C243.333 418.515 292.407 360.63 316.716 335.561C318.995 333.211 321.274 333.282 332.669 335.561C344.063 337.84 403.316 344.677 410.153 344.677C416.99 344.677 453.453 337.84 464.848 333.282C476.243 328.724 487.638 324.167 492.196 324.167C496.754 324.167 535.496 367.467 553.728 401.651C571.959 435.835 551.449 490.53 542.333 508.762C533.217 526.994 489.917 542.947 462.569 538.389C435.222 533.831 432.943 520.157 432.943 513.32C432.943 507.851 452.694 492.809 462.569 485.973V474.578C462.569 470.931 470.166 466.981 473.964 465.462L458.011 454.067L419.269 483.694L378.248 501.925L287.726 452.354C293.069 457.48 299.052 467.741 307.6 467.741C318.995 467.741 353.179 495.088 355.458 513.32C357.737 531.552 309.879 540.668 275.695 531.552C241.51 522.436 239.231 488.251 241.51 449.509Z" fill="#D5DDAE"/>
<path d="M316.716 335.561C292.407 360.63 243.333 418.515 241.51 449.509C239.231 488.251 241.51 522.436 275.695 531.552C309.879 540.668 357.737 531.552 355.458 513.32C353.179 495.088 318.995 467.741 307.6 467.741C296.205 467.741 289.369 449.509 282.532 449.509L378.248 501.925L419.269 483.694L458.011 454.067L473.964 465.462C470.166 466.981 462.569 470.931 462.569 474.578C462.569 478.224 462.569 483.694 462.569 485.973C452.694 492.809 432.943 507.851 432.943 513.32C432.943 520.157 435.222 533.831 462.569 538.389C489.917 542.946 533.217 526.994 542.333 508.762C551.449 490.53 571.959 435.835 553.728 401.651C535.496 367.467 496.754 324.167 492.196 324.167C487.638 324.167 476.243 328.724 464.848 333.282C453.453 337.84 416.99 344.677 410.153 344.677C403.316 344.677 344.063 337.84 332.669 335.561C321.274 333.282 318.995 333.211 316.716 335.561Z" stroke="#849C5E" stroke-width="5"/>
<path d="M467.237 335.561C478.631 331.003 490.026 326.446 494.584 326.446L509.5 343.5C495.278 352.616 473.964 369.746 473.964 387.977C473.964 406.209 467.237 415.325 467.237 417.604L380.527 470.02L316.716 419.883L302.518 413.046H291.123V421.795C291.131 421.911 291.131 422.033 291.123 422.162V421.795C290.957 419.19 287.047 419.979 280.5 422.162C269.561 425.808 249.077 453.865 243 464.5C240.5 450 250.5 422.162 256.5 414C277.011 379.816 308.673 345.437 318 337.84C320.279 335.49 323.662 335.561 335.057 337.84C346.452 340.119 405.705 346.956 412.542 346.956C419.378 346.956 455.842 340.119 467.237 335.561Z" fill="#9BB572"/>
<path d="M458.986 536.454C468.5 538 500.276 536.454 504.5 536.454C504.5 536.454 506.779 539.268 504.5 557.5C502.221 575.732 502 581 502 581C497.5 571 503.385 551.09 483.081 552.567C457.739 554.41 432.777 540.667 430.665 540.667C428.553 540.667 411.385 550.852 410.154 558.899C408.465 569.948 410.154 645.499 407.875 650.057C405.596 654.615 401.039 652.336 398.76 650.057C396.481 647.778 401.038 577.887 387.365 561.178C385.086 558.899 366.854 542.946 348.622 529.273C342.287 530.807 324.575 534.614 314.438 547.504C301.767 563.617 306.933 603.207 311.156 626.225C315.38 649.243 313.268 686.072 311.156 706.788C309.045 727.505 314.438 734.379 317.492 739.014C324.824 750.141 351.697 762.896 370 767.5C370 767.5 360.017 770.842 353.18 770.842C348.786 770.842 335.511 770.736 324.5 767.5C318.379 765.701 313.5 762.5 309.88 759.447C306.938 756.966 303.459 751.236 302.5 743C300.53 726.08 303.625 700.195 304.821 681.468C306.457 655.851 301 639 300.597 619.319C300.265 603.072 298.664 537 305 537C311.336 537 338.611 531.851 347.058 527.247C355.505 522.643 353.393 520.341 355.505 524.945C357.617 529.549 387.183 552.567 391.407 552.567C394.786 552.567 420.106 530.707 430.665 521.5C437.001 521.5 447.616 534.607 458.986 536.454Z" fill="#9BB572"/>
<path d="M510.516 344.677C496.842 347.716 469.95 366.099 471.773 415.325" stroke="#849C5E" stroke-width="5" stroke-linecap="round"/>
<path d="M309.879 413.5C304.41 411.677 300.004 415.779 298.484 418.058L382.806 479.59L483.08 420.337C480.801 418.058 475.332 413.5 471.685 413.5C468.039 413.5 410.913 448.444 382.806 465.916C360.776 449.204 315.349 415.324 309.879 413.5Z" fill="white" stroke="white" stroke-width="5"/>
<path d="M241.511 476.857C246.828 457.99 264.756 420.648 284.811 422.209" stroke="#849C5E" stroke-width="5" stroke-linecap="round"/>
<path d="M289.369 415.325C287.546 417.148 284.052 437.355 282.532 447.23C282.532 450.877 294.687 459.385 300.764 463.183C307.601 463.183 330.39 479.136 341.785 485.973C350.901 491.442 353.18 515.599 353.18 526.994C362.296 534.59 380.983 550.239 382.806 552.062C384.63 553.886 394.201 554.341 398.759 554.341L430.665 529.273C431.424 526.234 432.943 518.79 432.943 513.32C432.943 506.483 462.57 488.252 462.57 485.973C462.57 483.694 464.849 476.857 467.128 470.02C468.951 464.55 486.119 460.144 494.475 458.625C493.716 450.269 492.196 432.645 492.196 428.999C492.196 425.352 484.6 422.922 480.802 422.162L382.806 481.415L293.927 413.046C293.167 413.046 291.192 413.502 289.369 415.325Z" fill="#5B9652" stroke="#53894A" stroke-width="5"/>
<path d="M441.5 505.5C473.5 486.5 465 473 471.686 470.02L492.197 463.183" stroke="#D5DDAE" stroke-width="5"/>
<path d="M282.531 454.067C284.81 456.346 301.286 466.288 303.041 467.741C310 473.5 321 470 346.342 492.809C348.621 499.646 352.723 514.687 350.9 520.157C349.076 525.626 346.779 506.135 344.5 495.5L332 485" stroke="#D5DDAE" stroke-width="5"/>
<path d="M314.437 467.741L313.947 470.192L314.437 467.741ZM284.299 447.741C283.323 446.765 281.74 446.765 280.764 447.741C279.788 448.718 279.788 450.301 280.764 451.277L282.532 449.509L284.299 447.741ZM467.127 467.741L464.891 466.623L467.127 467.741ZM460.29 485.973L462.058 487.74L462.593 487.205L462.742 486.463L460.29 485.973ZM241.51 449.509L239.015 449.362C237.875 468.735 237.835 487.38 242.543 502.389C247.32 517.614 257.015 529.158 275.05 533.967L275.695 531.552L276.339 529.136C260.19 524.83 251.653 514.724 247.314 500.892C242.907 486.844 242.867 469.026 244.006 449.656L241.51 449.509ZM275.695 531.552L275.05 533.967C292.548 538.633 312.892 538.668 328.926 535.188C336.936 533.449 344.043 530.797 349.212 527.267C354.367 523.746 357.958 519.075 357.958 513.32H355.458H352.958C352.958 516.752 350.852 520.092 346.393 523.137C341.948 526.173 335.523 528.639 327.865 530.301C312.563 533.623 293.026 533.586 276.339 529.136L275.695 531.552ZM355.458 513.32H357.958C357.958 500.878 349.873 489.421 340.843 480.995C336.278 476.735 331.355 473.137 326.838 470.452C322.368 467.794 318.124 465.929 314.927 465.289L314.437 467.741L313.947 470.192C316.336 470.67 320.014 472.212 324.283 474.75C328.504 477.259 333.138 480.643 337.432 484.65C346.12 492.757 352.958 502.972 352.958 513.32H355.458ZM314.437 467.741L314.927 465.289C309.679 464.24 303.151 461.015 297.236 457.354C291.343 453.706 286.391 449.833 284.299 447.741L282.532 449.509L280.764 451.277C283.23 453.743 288.534 457.847 294.605 461.605C300.655 465.351 307.8 468.963 313.947 470.192L314.437 467.741ZM492.196 458.625L490.428 456.857C490.573 456.712 490.49 456.844 489.692 457.139C489.02 457.387 488.112 457.657 486.996 457.954C484.722 458.558 482.007 459.165 479.055 459.903C476.195 460.618 473.214 461.433 470.776 462.386C469.557 462.862 468.392 463.403 467.415 464.03C466.478 464.632 465.47 465.465 464.891 466.623L467.127 467.741L469.363 468.859C469.354 468.878 469.485 468.643 470.116 468.238C470.706 467.859 471.534 467.457 472.595 467.043C474.714 466.215 477.43 465.463 480.268 464.754C483.013 464.067 485.996 463.393 488.28 462.786C489.442 462.477 490.529 462.16 491.424 461.829C492.192 461.546 493.249 461.108 493.964 460.393L492.196 458.625ZM467.127 467.741L464.891 466.623C464.515 467.374 464.084 468.108 463.506 469.15C462.948 470.155 462.321 471.332 461.67 472.785C460.364 475.701 459.01 479.625 457.839 485.482L460.29 485.973L462.742 486.463C463.849 480.925 465.098 477.364 466.234 474.828C466.804 473.556 467.356 472.515 467.877 471.576C468.378 470.675 468.924 469.738 469.363 468.859L467.127 467.741ZM460.29 485.973L458.523 484.205C454.034 488.694 447.396 493.99 441.547 499.137C438.684 501.656 436.019 504.136 434.056 506.372C433.074 507.489 432.211 508.608 431.581 509.694C430.975 510.739 430.443 511.993 430.443 513.32H432.943H435.443C435.443 513.32 435.444 513.228 435.515 513.022C435.585 512.818 435.708 512.546 435.907 512.203C436.31 511.508 436.942 510.662 437.812 509.671C439.552 507.691 442.014 505.385 444.85 502.89C450.395 498.01 457.431 492.367 462.058 487.74L460.29 485.973ZM432.943 513.32H430.443C430.443 517.028 431.064 522.826 435.571 528.298C440.067 533.758 448.116 538.514 462.158 540.855L462.569 538.389L462.98 535.923C449.675 533.705 442.91 529.345 439.431 525.12C435.961 520.906 435.443 516.449 435.443 513.32H432.943ZM462.569 538.389L462.158 540.855C476.404 543.229 494.526 540.255 510.156 534.466C518 531.561 525.317 527.911 531.291 523.78C537.23 519.674 542.025 514.968 544.569 509.88L542.333 508.762L540.097 507.644C538.083 511.672 534.047 515.797 528.448 519.667C522.885 523.513 515.959 526.985 508.42 529.777C493.284 535.383 476.082 538.106 462.98 535.923L462.569 538.389ZM542.333 508.762L544.569 509.88C549.208 500.601 556.699 482.156 560.738 461.673C564.761 441.272 565.462 418.341 555.934 400.475L553.728 401.651L551.522 402.828C560.225 419.146 559.786 440.654 555.833 460.705C551.895 480.673 544.573 498.692 540.097 507.644L542.333 508.762Z" fill="#849C5E"/>
<path d="M411.608 28.9363C503.56 35.1045 573.124 112.227 567.167 201.036C561.209 289.846 481.968 356.987 390.016 350.819C298.064 344.651 228.5 267.528 234.457 178.718C240.415 89.9091 319.656 22.7682 411.608 28.9363Z" fill="#D5DDAE" stroke="#849C5E" stroke-width="5"/>
<ellipse cx="10.1297" cy="10.468" rx="10.1297" ry="10.468" transform="matrix(-0.912591 -0.408874 -0.408874 0.912591 470.063 252.687)" fill="#627E4D"/>
<ellipse cx="10.9173" cy="9.59465" rx="10.9173" ry="9.59465" transform="matrix(-0.919785 -0.392422 -0.392422 0.919785 339.771 255.703)" fill="#627E4D"/>
<path d="M425.948 316.549L366.694 315.257C365.636 315.233 365.32 316.559 366.302 316.953C374.481 320.23 383.878 321.103 398.074 321.324C406.658 321.458 419.003 320.049 426.199 318.023C427.206 317.739 426.995 316.572 425.948 316.549Z" fill="#627E4D"/>
<g opacity="0.7">
<path d="M318.711 306.063H333.809C347.261 306.063 353.987 306.063 359.284 303.782C362.788 302.274 365.973 300.063 368.655 297.275C371.337 294.487 373.464 291.177 374.915 287.534C377.109 282.028 377.109 275.036 377.109 261.053C377.109 247.07 377.109 240.079 374.915 234.573C373.464 230.93 371.337 227.62 368.655 224.832C365.973 222.044 362.788 219.832 359.284 218.324C353.987 216.044 347.261 216.044 333.809 216.044C333.809 216.044 257.464 213.385 254.425 216.044C251.386 218.703 255.185 236.175 259.742 254.406L259.925 255.016C266.621 277.333 268.899 284.93 273.434 292.275C275.673 295.899 278.636 298.979 282.123 301.307C289.253 306.063 299.082 306.063 318.711 306.063H318.711Z" stroke="black" stroke-width="7" stroke-linecap="round" stroke-linejoin="round"/>
<path d="M478.807 306.063H463.709C450.257 306.063 443.531 306.063 438.234 303.782C434.73 302.274 431.545 300.063 428.863 297.275C426.181 294.487 424.054 291.177 422.603 287.534C420.409 282.028 420.409 275.036 420.409 261.053C420.409 247.07 420.409 240.079 422.603 234.573C424.054 230.93 426.181 227.62 428.863 224.832C431.545 222.044 434.73 219.832 438.234 218.324C443.531 216.044 450.257 216.044 463.709 216.044H543.093C543.093 216.044 544.612 220.222 542.333 238.454C540.054 256.685 527.717 286.106 524.084 292.275C521.845 295.899 518.882 298.979 515.395 301.307C508.265 306.063 498.436 306.063 478.807 306.063Z" stroke="black" stroke-width="7" stroke-linecap="round" stroke-linejoin="round"/>
<path d="M375.97 267.689C378.249 265.41 378.371 262.953 382.645 261.243C386.918 259.534 392.715 258.573 398.759 258.573C404.803 258.573 410.6 259.534 414.874 261.243C419.148 262.953 419.27 265.41 421.549 267.689" stroke="black" stroke-width="7"/>
</g>
</g>
<defs>
<filter id="filter0_d_33_267" x="221.558" y="5.99994" width="354.402" height="776.5" filterUnits="userSpaceOnUse" color-interpolation-filters="sRGB">
<feFlood flood-opacity="0" result="BackgroundImageFix"/>
<feColorMatrix in="SourceAlpha" type="matrix" values="0 0 0 0 0 0 0 0 0 0 0 0 0 0 0 0 0 0 127 0" result="hardAlpha"/>
<feOffset dy="4"/>
<feGaussianBlur stdDeviation="2"/>
<feComposite in2="hardAlpha" operator="out"/>
<feColorMatrix type="matrix" values="0 0 0 0 0 0 0 0 0 0 0 0 0 0 0 0 0 0 0.25 0"/>
<feBlend mode="normal" in2="BackgroundImageFix" result="effect1_dropShadow_33_267"/>
<feBlend mode="normal" in="SourceGraphic" in2="effect1_dropShadow_33_267" result="shape"/>
</filter>
</defs>
</svg>
