<svg width="800" height="800" viewBox="0 0 800 800" fill="none" xmlns="http://www.w3.org/2000/svg">
<rect width="800" height="800" fill="#E7EABF"/>
<circle cx="400.5" cy="400.5" r="394.5" fill="white"/>
<g filter="url(#filter0_d_33_317)">
<path d="M301.567 142.699C318.06 142.699 327.181 157.068 329.68 167.064C330.305 175.334 318.81 204.549 312.812 212.046C305.315 221.417 290.321 253.279 292.195 283.267C294.07 313.254 301.567 356.807 342.8 373.23C384.033 389.653 445.883 384.475 460.876 373.23C475.87 361.984 520.852 317.003 513.355 272.021C512.613 260.263 505.858 230.788 500.235 223.291C494.613 215.794 492.738 206.423 484.282 187.681C477.518 172.687 481.464 162.394 484.282 159.122C485.532 155.999 491.779 147.502 506.773 138.506C525.516 127.26 541.425 147.877 544.258 153.5C547.091 159.122 541.425 179.294 542.384 185.361C543.343 191.429 563 240.806 563 275.325C563 315.129 539.595 378.852 537.72 386.349C535.846 393.846 514.196 429.457 506.773 473.993C504.899 485.239 493.654 573.327 493.654 582.699C493.654 592.07 480.534 691.404 493.654 713.895C504.149 731.887 505.524 751.38 501.15 762.625C488.656 770.122 460.367 769.042 433.678 766.373C414.936 764.499 406.189 723.891 407.439 708.272C409.938 665.79 412.312 580.45 401.816 578.95C391.32 577.451 392.445 654.544 394.319 693.278C395.569 719.518 390.571 764.874 368.08 766.373C339.966 768.248 293.415 768.856 287.488 757.002C281.865 745.757 303.107 712.645 308.104 693.278C308.729 665.165 304.356 608.938 298.733 563.956C293.614 522.999 282.572 483.325 250.003 395.275C226.597 331.997 238.758 245.337 242.506 237.84C246.255 230.343 256.585 199.213 256.585 174.561C256.585 148.322 280.95 142.699 301.567 142.699Z" fill="#D5DDAE" stroke="#849C5E" stroke-width="5"/>
<path d="M411.164 182.951C473.917 187.161 521.311 238.137 517.397 296.492C513.483 354.847 459.705 399.037 396.952 394.828C334.199 390.618 286.804 339.642 290.719 281.286C294.633 222.931 348.411 178.742 411.164 182.951Z" fill="#D5DDAE" stroke="#849C5E" stroke-width="5"/>
<path d="M317.109 101.466C326.105 69.9792 367.089 60.8579 386.456 60.2332H416.444C417.268 60.2332 418.544 60.2332 420.192 60.2879C433.534 60.7313 471.188 64.7652 489.539 101.466C506.032 134.453 473.555 174.561 459.551 183.932C442.745 195.178 361.542 193.304 347.097 183.932C332.652 174.561 305.864 140.825 317.109 101.466Z" fill="#9EC15D"/>
<path d="M459.551 183.932C442.745 195.178 361.542 193.304 347.097 183.932C332.652 174.561 305.864 140.825 317.109 101.466C326.105 69.9792 367.089 60.8579 386.456 60.2332C393.953 60.2332 410.446 60.2332 416.444 60.2332C417.268 60.2332 418.544 60.2332 420.192 60.2879M459.551 183.932C473.555 174.561 506.032 134.453 489.539 101.466C471.188 64.7652 433.534 60.7313 420.192 60.2879M459.551 183.932C485.04 114.961 443.932 72.7645 420.192 60.2879" stroke="#5B9652" stroke-width="5"/>
<path d="M408.946 62.1074C419.567 85.2229 435.761 150.946 417.769 191.429" stroke="#5B9652" stroke-width="5"/>
<path d="M397.7 62.1074C386.455 87.0972 372.412 155.444 385.907 191.429" stroke="#5B9652" stroke-width="5"/>
<path d="M380.834 60.233C358.968 82.099 325.557 140.825 354.046 185.807" stroke="#5B9652" stroke-width="5"/>
<path d="M399.755 21.5442C404.254 15.5466 411.626 21.5442 414.749 25.2927C397.881 27.1669 403.504 49.6576 405.378 53.4061C406.878 56.4049 417.068 59.6082 422.066 60.2329C419.567 63.3566 412.5 68.4 403.504 68.4C392.258 68.4 378.779 61.437 380.833 60.2329C382.127 59.4747 386.636 57.7793 388.51 57.1546V42.1607C388.51 32.7896 394.133 29.0411 399.755 21.5442Z" fill="#446131" stroke="#33392D" stroke-width="5"/>
<ellipse cx="7.49695" cy="7.51553" rx="7.49695" ry="7.51553" transform="matrix(-0.999462 -0.0328015 -0.0326393 0.999467 461.552 255.645)" fill="#627E4D"/>
<ellipse cx="7.49695" cy="7.51553" rx="7.49695" ry="7.51553" transform="matrix(-0.999462 -0.0328015 -0.0326393 0.999467 363.899 259.959)" fill="#627E4D"/>
<path d="M386.326 328.289L423.31 328.075C424.156 328.071 424.603 327.089 424.017 326.479C418.959 321.208 413.475 319.572 404.429 317.82C397.448 316.467 389.711 322.438 385.611 326.702C385.021 327.315 385.475 328.294 386.326 328.289Z" fill="#627E4D"/>
<path d="M299.693 142.699C316.186 142.699 327.182 158.943 329.681 168.939C330.306 177.209 318.81 204.549 312.813 212.046M507.733 138.951C492.739 147.947 483.658 158.318 482.409 161.442C479.59 164.714 475.644 173.132 482.409 188.126C490.865 206.868 492.739 216.24 498.362 223.736" stroke="#849C5E" stroke-width="5"/>
</g>
<defs>
<filter id="filter0_d_33_317" x="229.5" y="16.4996" width="340" height="762.379" filterUnits="userSpaceOnUse" color-interpolation-filters="sRGB">
<feFlood flood-opacity="0" result="BackgroundImageFix"/>
<feColorMatrix in="SourceAlpha" type="matrix" values="0 0 0 0 0 0 0 0 0 0 0 0 0 0 0 0 0 0 127 0" result="hardAlpha"/>
<feOffset dy="4"/>
<feGaussianBlur stdDeviation="2"/>
<feComposite in2="hardAlpha" operator="out"/>
<feColorMatrix type="matrix" values="0 0 0 0 0 0 0 0 0 0 0 0 0 0 0 0 0 0 0.25 0"/>
<feBlend mode="normal" in2="BackgroundImageFix" result="effect1_dropShadow_33_317"/>
<feBlend mode="normal" in="SourceGraphic" in2="effect1_dropShadow_33_317" result="shape"/>
</filter>
</defs>
</svg>
