<svg width="800" height="800" viewBox="0 0 800 800" fill="none" xmlns="http://www.w3.org/2000/svg">
<rect width="800" height="800" fill="#D5DDAE"/>
<ellipse cx="400.5" cy="400" rx="389.5" ry="389" fill="white"/>
<g filter="url(#filter0_d_33_221)">
<path d="M645.941 176.682L633.518 356.692C635.109 356.786 639.885 356.547 642.316 356.692C644.33 322.925 653.54 205.451 654.518 189.044C655.497 172.637 660.145 164.53 662.846 163.86C673.111 161.312 699.104 157.649 707.827 154.178C718.731 149.839 706.213 136.619 702.898 136.421C699.583 136.223 688.016 140.523 666.835 149.863C649.889 157.334 645.845 170.856 645.941 176.682Z" fill="#9EC15D" stroke="#5B9652" stroke-width="2"/>
<path d="M547 250.377C547 243.339 565.086 226.426 574.128 218.85C582.194 221.783 602.283 226.768 618.121 223.249C623.009 225.204 633.224 229.115 634.984 229.115C637.184 229.115 633.518 222.516 637.917 221.049C641.583 219.827 640.85 221.049 643.049 221.049C645.493 220.805 649.795 219.876 653.314 221.049C657.713 222.516 667.245 229.115 662.113 238.646C656.98 248.178 640.117 251.844 621.053 251.111H618.854C620.565 261.62 622.96 285.571 618.854 297.302C622.275 311.477 629.998 340.561 633.518 343.494C637.917 347.16 657.713 355.225 655.514 361.091C650.381 364.024 634.837 369.596 613.721 368.423C609.322 368.423 607.709 363.73 607.122 362.557C606.536 361.384 597.102 337.14 592.458 325.164C591.236 329.074 588.792 338.215 588.792 343.494C588.792 348.773 594.169 354.003 596.858 355.958C599.302 358.647 603.31 365.197 599.79 369.889C596.271 374.582 567.285 369.645 553.599 366.223C553.599 361.091 555.065 350.093 556.532 346.427L561.921 292.903C550.874 281.08 547 257.119 547 250.377Z" fill="#D5DDAE"/>
<path d="M579.994 250.377C578.772 250.866 575.888 252.724 574.128 256.243C572.369 259.762 573.395 266.508 574.128 269.441C604.923 281.905 594.658 301.701 574.128 299.502C553.599 297.302 547 259.176 547 250.377C547 243.339 565.086 226.426 574.128 218.85C582.194 221.783 602.283 226.768 618.121 223.249C623.009 225.204 633.224 229.115 634.984 229.115C637.184 229.115 633.518 222.516 637.917 221.049C641.583 219.827 640.85 221.049 643.049 221.049C645.493 220.805 649.795 219.876 653.314 221.049C657.713 222.516 667.245 229.115 662.113 238.646C656.98 248.178 640.117 251.844 621.053 251.111H618.854C620.565 261.62 622.96 285.571 618.854 297.302C622.275 311.477 629.998 340.561 633.518 343.494C637.917 347.16 657.713 355.225 655.514 361.091C650.381 364.024 634.837 369.596 613.721 368.423C609.322 368.423 607.709 363.73 607.122 362.557C606.536 361.384 597.102 337.14 592.458 325.164M592.458 325.164L593.925 307.567M592.458 325.164C591.236 329.074 588.792 338.215 588.792 343.494C588.792 348.773 594.169 354.003 596.858 355.958C599.302 358.647 603.31 365.197 599.79 369.889C596.271 374.582 567.285 369.645 553.599 366.223C553.599 361.091 555.065 350.093 556.532 346.427L561.921 292.903" stroke="#849C5E" stroke-width="2"/>
<path d="M646.045 174.943L634.984 339.828C635.717 342.028 640.619 345.549 643.049 345.694C644.982 313.277 653.108 213.338 654.048 197.587C654.987 181.836 659.553 176.324 665.046 173.391C669.136 171.207 703.99 167.172 712.704 163.86C723.596 159.719 706.213 136.619 702.898 136.421C699.583 136.223 688.028 140.324 666.872 149.241C649.946 156.375 645.935 169.348 646.045 174.943Z" fill="#9EC15D" stroke="#5B9652" stroke-width="2"/>
<path d="M636.172 343.992L636.594 338.283C638.371 338.924 641.862 341.677 641.813 342.262L641.38 347.376C638.362 345.943 636.651 344.523 636.172 343.992Z" fill="#9EC15D"/>
<path d="M599.79 126C628.42 126 651.581 148.557 651.581 176.324C651.581 204.091 628.42 226.648 599.79 226.648C571.16 226.648 548 204.091 548 176.324C548 148.558 571.16 126 599.79 126Z" fill="#D5DDAE" stroke="#849C5E" stroke-width="2"/>
<path d="M648.182 239.379C645.014 225.864 651.115 219.105 656.247 219.583C663.506 220.259 670.618 233.155 664.679 241.264C659.928 247.752 655.514 248.178 651.115 248.178L648.182 239.379Z" fill="#D5DDAE" stroke="#849C5E" stroke-width="2"/>
<circle cx="2.9328" cy="2.9328" r="2.9328" transform="matrix(-0.993449 0.114273 0.114273 0.993449 625.832 169.507)" fill="#627E4D"/>
<circle cx="2.9328" cy="2.9328" r="2.9328" transform="matrix(-0.993449 0.114273 0.114273 0.993449 588.291 176.778)" fill="#627E4D"/>
<path d="M602.182 201.666L613.899 199.859C614.736 199.73 615.021 198.704 614.289 198.279C612.368 197.164 610.319 196.919 607.287 196.786C604.99 196.686 602.78 198.546 601.324 200.257C600.772 200.906 601.34 201.796 602.182 201.666Z" fill="#627E4D"/>
</g>
<g filter="url(#filter1_d_33_221)">
<path d="M134.966 560.697C137.452 554.908 157.106 543.191 167.403 538.3C171.78 540.874 184.858 546.178 202.158 546.796C219.458 547.413 228.417 540.36 230.734 536.755L236.14 542.162L237.381 549.113L239.229 552.202C240.774 551.43 244.326 550.194 246.18 551.43C248.497 552.974 253.359 558.38 253.903 560.697C254.447 563.014 254.418 569.708 254.676 573.055C254.676 573.055 255.448 581.55 254.676 583.867C253.903 586.184 248.034 592.517 240.001 593.135C238.496 593.251 236.938 593.123 235.367 592.8C235.367 592.8 235.368 620.166 234.595 626.345C233.823 632.523 224.79 641.769 222.238 650.287C219.693 658.782 217.604 676.545 217.604 679.635C217.604 682.724 217.604 699.715 209.881 702.032C202.158 704.349 186.711 703.577 181.305 702.804C176.98 702.187 175.899 698.428 175.899 696.626C174.869 697.656 172.346 699.715 170.493 699.715C168.176 699.715 153.501 700.487 149.64 696.626C145.778 692.764 145.006 687.358 146.551 682.724C148.095 678.09 151.185 670.367 151.957 666.505C152.729 662.644 150.232 643.177 151.957 634.068C153.273 627.117 155.546 619.308 159.68 617.077C162.541 615.532 166.2 606.64 167.1 601.63C161.352 600.742 152.221 594.889 151.957 594.679C147.095 590.818 144.55 587.729 140.916 583.095C137.754 579.061 131.648 568.421 134.966 560.697Z" fill="#D5DDAE"/>
<path d="M167.403 538.3L167.91 537.438L167.453 537.169L166.974 537.397L167.403 538.3ZM134.966 560.697L135.885 561.092L135.885 561.092L134.966 560.697ZM140.916 583.095L140.129 583.712L140.129 583.712L140.916 583.095ZM151.957 594.679L151.335 595.463L151.335 595.463L151.957 594.679ZM179.76 597.769L180.441 598.502L180.495 598.451L180.541 598.393L179.76 597.769ZM185.167 576.916L184.189 577.126L184.189 577.126L185.167 576.916ZM172.581 563.787L172.845 562.822L172.834 562.819L172.824 562.817L172.581 563.787ZM202.158 546.796L202.122 547.795L202.122 547.795L202.158 546.796ZM230.734 536.755L231.441 536.048L230.563 535.171L229.892 536.215L230.734 536.755ZM236.14 542.162L237.124 541.986L237.069 541.677L236.847 541.455L236.14 542.162ZM239.229 552.202L238.371 552.715L238.847 553.511L239.676 553.096L239.229 552.202ZM246.18 551.43L245.625 552.262L246.18 551.43ZM253.903 560.697L252.93 560.926L252.93 560.926L253.903 560.697ZM254.676 573.055L253.678 573.131L253.68 573.145L254.676 573.055ZM254.676 583.867L253.727 583.551L253.727 583.551L254.676 583.867ZM214.515 576.916L213.601 577.322L213.601 577.322L214.515 576.916ZM213.743 555.291L214.59 555.821L214.59 555.821L213.743 555.291ZM222.238 650.287L221.28 650L221.28 650L222.238 650.287ZM209.881 702.032L209.594 701.074L209.594 701.074L209.881 702.032ZM181.305 702.804L181.446 701.814L181.446 701.814L181.305 702.804ZM180.533 675.001L181.461 675.372L181.461 675.372L180.533 675.001ZM182.85 649.514L183.82 649.757L183.82 649.757L182.85 649.514ZM149.64 696.626L148.933 697.333L148.933 697.333L149.64 696.626ZM151.957 666.505L150.976 666.309L150.976 666.309L151.957 666.505ZM151.957 634.068L150.974 633.882L150.974 633.882L151.957 634.068ZM159.68 617.077L160.155 617.957L160.155 617.957L159.68 617.077ZM175.293 578.35C174.806 578.091 174.2 578.276 173.941 578.763C173.681 579.251 173.866 579.856 174.353 580.116L174.823 579.233L175.293 578.35ZM167.403 538.3L166.974 537.397C161.782 539.863 154.255 544.037 147.708 548.325C144.434 550.469 141.386 552.654 138.99 554.679C136.638 556.667 134.771 558.617 134.047 560.303L134.966 560.697L135.885 561.092C136.404 559.883 137.926 558.197 140.281 556.207C142.591 554.254 145.566 552.119 148.803 549.999C155.278 545.758 162.727 541.629 167.832 539.203L167.403 538.3ZM134.966 560.697L134.047 560.303C132.238 564.514 133.033 569.405 134.572 573.623C136.12 577.867 138.494 581.626 140.129 583.712L140.916 583.095L141.703 582.478C140.176 580.53 137.916 576.952 136.451 572.937C134.976 568.895 134.376 564.604 135.885 561.092L134.966 560.697ZM140.916 583.095L140.129 583.712C143.777 588.364 146.38 591.527 151.335 595.463L151.957 594.679L152.579 593.896C147.81 590.109 145.322 587.093 141.703 582.478L140.916 583.095ZM179.76 597.769L180.541 598.393C182.113 596.429 183.893 593.794 184.691 590.996C185.504 588.149 185.313 585.047 182.802 582.406L182.077 583.095L181.353 583.784C183.247 585.777 183.443 588.081 182.768 590.447C182.079 592.861 180.497 595.247 178.98 597.144L179.76 597.769ZM182.077 583.095L182.659 583.908C184.523 582.577 186.898 580.223 186.144 576.707L185.167 576.916L184.189 577.126C184.673 579.385 183.236 581.038 181.496 582.281L182.077 583.095ZM185.167 576.916L186.144 576.707C185.712 574.691 184.162 571.726 181.896 569.049C179.622 566.361 176.508 563.821 172.845 562.822L172.581 563.787L172.318 564.751C175.452 565.606 178.244 567.829 180.37 570.341C182.505 572.864 183.848 575.537 184.189 577.126L185.167 576.916ZM172.581 563.787L172.824 562.817C170.831 562.318 168.152 561.562 165.938 561.037C164.816 560.771 163.753 560.549 162.879 560.435C162.443 560.378 162.028 560.344 161.663 560.35C161.327 560.355 160.91 560.395 160.549 560.575L160.997 561.47L161.444 562.364C161.393 562.39 161.44 562.354 161.697 562.349C161.926 562.346 162.233 562.367 162.619 562.418C163.39 562.519 164.373 562.722 165.477 562.983C167.718 563.514 170.213 564.225 172.339 564.757L172.581 563.787ZM167.403 538.3L166.896 539.162C171.419 541.823 184.66 547.171 202.122 547.795L202.158 546.796L202.193 545.796C185.056 545.184 172.14 539.926 167.91 537.438L167.403 538.3ZM202.158 546.796L202.122 547.795C219.687 548.422 229.024 541.264 231.575 537.296L230.734 536.755L229.892 536.215C227.809 539.455 219.228 546.405 202.193 545.796L202.158 546.796ZM230.734 536.755L230.026 537.463L235.433 542.869L236.14 542.162L236.847 541.455L231.441 536.048L230.734 536.755ZM236.14 542.162L235.155 542.338L236.397 549.288L237.381 549.113L238.366 548.937L237.124 541.986L236.14 542.162ZM237.381 549.113L236.523 549.626L238.371 552.715L239.229 552.202L240.087 551.689L238.24 548.599L237.381 549.113ZM239.229 552.202L239.676 553.096C240.384 552.742 241.571 552.275 242.776 552.045C244.036 551.804 245.044 551.874 245.625 552.262L246.18 551.43L246.735 550.597C245.463 549.749 243.767 549.819 242.401 550.08C240.98 550.352 239.618 550.889 238.782 551.307L239.229 552.202ZM246.18 551.43L245.625 552.262C246.668 552.957 248.392 554.612 249.947 556.425C250.716 557.321 251.42 558.229 251.959 559.042C252.517 559.882 252.837 560.53 252.93 560.926L253.903 560.697L254.877 560.469C254.698 559.706 254.205 558.809 253.626 557.936C253.028 557.036 252.27 556.061 251.465 555.123C249.874 553.268 248.008 551.447 246.735 550.597L246.18 551.43ZM253.903 560.697L252.93 560.926C253.175 561.97 253.303 564.111 253.398 566.529C253.489 568.879 253.548 571.433 253.678 573.131L254.676 573.055L255.673 572.978C255.546 571.329 255.49 568.863 255.396 566.451C255.305 564.106 255.176 561.742 254.877 560.469L253.903 560.697ZM254.676 573.055C253.68 573.145 253.68 573.145 253.68 573.145C253.68 573.145 253.68 573.145 253.68 573.145C253.68 573.145 253.68 573.146 253.68 573.146C253.68 573.147 253.68 573.148 253.68 573.15C253.68 573.154 253.681 573.16 253.682 573.168C253.683 573.183 253.685 573.207 253.688 573.237C253.693 573.299 253.701 573.39 253.711 573.507C253.73 573.74 253.757 574.078 253.787 574.49C253.847 575.316 253.918 576.439 253.966 577.632C254.014 578.827 254.037 580.08 254.002 581.168C253.966 582.293 253.869 583.125 253.727 583.551L254.676 583.867L255.624 584.183C255.868 583.45 255.965 582.351 256.001 581.232C256.038 580.076 256.013 578.77 255.964 577.552C255.916 576.331 255.842 575.186 255.782 574.346C255.751 573.926 255.724 573.581 255.704 573.342C255.694 573.222 255.686 573.128 255.68 573.064C255.677 573.032 255.675 573.007 255.674 572.99C255.673 572.982 255.672 572.975 255.672 572.971C255.672 572.969 255.672 572.967 255.672 572.966C255.672 572.965 255.671 572.965 255.671 572.965C255.671 572.964 255.671 572.964 255.671 572.964C255.671 572.964 255.671 572.964 254.676 573.055ZM254.676 583.867L253.727 583.551C253.593 583.952 253.176 584.667 252.422 585.561C251.687 586.432 250.683 587.41 249.456 588.342C246.997 590.209 243.7 591.847 239.925 592.138L240.001 593.135L240.078 594.132C244.335 593.804 247.989 591.967 250.666 589.934C252.007 588.916 253.117 587.838 253.951 586.851C254.765 585.886 255.372 584.94 255.624 584.183L254.676 583.867ZM214.515 576.916L215.429 576.51C212.372 569.633 211.006 561.556 214.59 555.821L213.743 555.291L212.895 554.761C208.756 561.383 210.479 570.298 213.601 577.322L214.515 576.916ZM213.743 555.291L214.59 555.821C216.478 552.802 218.302 550.803 220.164 549.557C222.005 548.325 223.933 547.796 226.1 547.796V546.796V545.796C223.569 545.796 221.248 546.425 219.051 547.895C216.874 549.353 214.869 551.602 212.895 554.761L213.743 555.291ZM226.1 546.796V547.796C227.307 547.796 228.442 547.695 229.464 547.611C230.505 547.526 231.417 547.46 232.268 547.505C233.885 547.589 235.262 548.064 236.601 549.737L237.381 549.113L238.162 548.488C236.411 546.299 234.464 545.616 232.372 545.507C231.368 545.455 230.328 545.534 229.301 545.618C228.257 545.703 227.209 545.796 226.1 545.796V546.796ZM240.001 593.135L239.925 592.138C238.527 592.245 237.064 592.128 235.569 591.82L235.367 592.8L235.166 593.779C236.812 594.118 238.465 594.256 240.078 594.132L240.001 593.135ZM235.367 592.8L235.569 591.82C231.317 590.944 226.901 588.543 223.21 585.603C219.508 582.656 216.653 579.264 215.429 576.51L214.515 576.916L213.601 577.322C215.003 580.477 218.122 584.109 221.964 587.168C225.816 590.235 230.514 592.821 235.166 593.779L235.367 592.8ZM240.001 593.135L240.074 592.137L235.44 591.802L235.367 592.8L235.295 593.797L239.929 594.132L240.001 593.135ZM234.595 626.345L235.587 626.469C235.982 623.31 236.175 614.854 236.271 607.268C236.319 603.457 236.343 599.841 236.355 597.177C236.361 595.845 236.364 594.751 236.366 593.99C236.367 593.609 236.367 593.312 236.367 593.11C236.367 593.008 236.367 592.931 236.367 592.879C236.367 592.853 236.367 592.833 236.367 592.82C236.367 592.813 236.367 592.808 236.367 592.805C236.367 592.803 236.367 592.802 236.367 592.801C236.367 592.801 236.367 592.8 236.367 592.8C236.367 592.8 236.367 592.8 235.367 592.8C234.367 592.8 234.367 592.8 234.367 592.8C234.367 592.8 234.367 592.801 234.367 592.801C234.367 592.802 234.367 592.803 234.367 592.805C234.367 592.808 234.367 592.813 234.367 592.819C234.367 592.832 234.367 592.852 234.367 592.878C234.367 592.93 234.367 593.007 234.367 593.108C234.367 593.309 234.367 593.606 234.366 593.986C234.364 594.745 234.361 595.838 234.355 597.168C234.343 599.828 234.319 603.439 234.271 607.243C234.174 614.885 233.98 623.201 233.603 626.221L234.595 626.345ZM234.595 626.345L233.603 626.221C233.433 627.581 232.793 629.188 231.815 631.024C230.842 632.85 229.584 634.816 228.243 636.897C225.595 641.006 222.605 645.576 221.28 650L222.238 650.287L223.196 650.574C224.422 646.479 227.225 642.168 229.924 637.98C231.257 635.913 232.562 633.876 233.58 631.964C234.592 630.064 235.371 628.197 235.587 626.469L234.595 626.345ZM222.238 650.287L221.28 650C219.985 654.324 218.818 660.953 217.977 666.847C217.138 672.726 216.604 678.008 216.604 679.635H217.604H218.604C218.604 678.172 219.115 673.028 219.957 667.129C220.796 661.245 221.947 654.744 223.196 650.574L222.238 650.287ZM217.604 679.635H216.604C216.604 681.176 216.602 686.111 215.657 690.931C215.184 693.343 214.486 695.667 213.47 697.506C212.455 699.346 211.181 700.598 209.594 701.074L209.881 702.032L210.168 702.99C212.442 702.308 214.065 700.567 215.221 698.473C216.378 696.378 217.128 693.827 217.62 691.315C218.606 686.288 218.604 681.182 218.604 679.635H217.604ZM209.881 702.032L209.594 701.074C205.882 702.188 200.215 702.577 194.724 702.577C189.256 702.577 184.092 702.192 181.446 701.814L181.305 702.804L181.164 703.794C183.925 704.189 189.187 704.577 194.724 704.577C200.238 704.577 206.157 704.193 210.168 702.99L209.881 702.032ZM181.305 702.804L181.446 701.814C179.591 701.549 178.483 700.633 177.817 699.613C177.128 698.557 176.899 697.363 176.899 696.626H175.899H174.899C174.899 697.69 175.21 699.277 176.143 700.706C177.099 702.17 178.694 703.442 181.164 703.794L181.305 702.804ZM175.899 696.626L176.884 696.797C177.398 693.844 178.245 689.22 179.118 684.952C180.001 680.637 180.884 676.814 181.461 675.372L180.533 675.001L179.604 674.629C178.945 676.277 178.027 680.306 177.159 684.551C176.281 688.843 175.43 693.487 174.914 696.454L175.899 696.626ZM180.533 675.001L181.461 675.372C181.912 674.246 182.158 672.409 182.326 670.339C182.497 668.226 182.594 665.717 182.69 663.164C182.886 657.99 183.079 652.718 183.82 649.757L182.85 649.514L181.88 649.272C181.075 652.489 180.883 658.029 180.692 663.089C180.595 665.652 180.499 668.116 180.332 670.178C180.162 672.283 179.926 673.825 179.604 674.629L180.533 675.001ZM182.85 649.514L183.82 649.757C184.572 646.747 187.057 639.854 189.754 633.595C191.099 630.471 192.483 627.539 193.713 625.35C194.33 624.253 194.893 623.371 195.378 622.752C195.621 622.441 195.828 622.219 195.996 622.073C196.176 621.916 196.249 621.902 196.222 621.909L195.979 620.938L195.737 619.968C195.323 620.072 194.967 620.317 194.683 620.565C194.386 620.823 194.092 621.15 193.804 621.518C193.228 622.253 192.608 623.235 191.97 624.37C190.69 626.647 189.274 629.652 187.917 632.803C185.207 639.094 182.672 646.103 181.88 649.272L182.85 649.514ZM175.899 696.626L175.192 695.919C174.718 696.392 173.884 697.118 172.96 697.718C171.996 698.344 171.112 698.715 170.493 698.715V699.715V700.715C171.727 700.715 173.03 700.057 174.049 699.395C175.108 698.708 176.05 697.889 176.606 697.333L175.899 696.626ZM170.493 699.715V698.715C169.271 698.715 165.109 698.908 160.711 698.621C158.517 698.478 156.312 698.217 154.435 697.765C152.522 697.305 151.109 696.681 150.347 695.919L149.64 696.626L148.933 697.333C150.101 698.502 151.971 699.229 153.967 699.71C156.001 700.199 158.333 700.47 160.58 700.616C165.064 700.909 169.397 700.715 170.493 700.715V699.715ZM149.64 696.626L150.347 695.919C146.79 692.362 146.057 687.367 147.499 683.04L146.551 682.724L145.602 682.408C143.955 687.348 144.766 693.166 148.933 697.333L149.64 696.626ZM146.551 682.724L147.499 683.04C148.268 680.733 149.414 677.681 150.486 674.659C151.543 671.679 152.535 668.715 152.937 666.701L151.957 666.505L150.976 666.309C150.607 668.158 149.667 670.986 148.601 673.991C147.549 676.955 146.378 680.081 145.602 682.408L146.551 682.724ZM151.957 666.505L152.937 666.701C153.159 665.594 153.136 663.519 153.039 661.05C152.941 658.536 152.753 655.429 152.598 652.206C152.285 645.689 152.103 638.67 152.939 634.254L151.957 634.068L150.974 633.882C150.085 638.574 150.29 645.843 150.601 652.302C150.758 655.567 150.942 658.62 151.041 661.128C151.141 663.679 151.141 665.486 150.976 666.309L151.957 666.505ZM151.957 634.068L152.939 634.254C153.593 630.804 154.476 627.188 155.689 624.176C156.922 621.118 158.413 618.897 160.155 617.957L159.68 617.077L159.205 616.197C156.813 617.488 155.101 620.287 153.834 623.429C152.549 626.617 151.637 630.381 150.974 633.882L151.957 634.068ZM151.957 594.679L151.335 595.463C151.42 595.53 151.649 595.679 151.911 595.846C152.205 596.032 152.612 596.286 153.11 596.586C154.106 597.186 155.468 597.974 157.005 598.785C160.043 600.387 163.893 602.147 166.948 602.619L167.1 601.63L167.253 600.642C164.559 600.226 160.969 598.615 157.938 597.016C156.441 596.226 155.113 595.457 154.142 594.873C153.657 594.58 153.263 594.335 152.984 594.158C152.674 593.961 152.56 593.881 152.579 593.896L151.957 594.679ZM167.1 601.63L166.948 602.619C171.637 603.343 176.44 602.217 180.441 598.502L179.76 597.769L179.08 597.036C175.566 600.299 171.393 601.282 167.253 600.642L167.1 601.63ZM159.68 617.077L160.155 617.957C161.095 617.45 161.972 616.431 162.75 615.274C163.55 614.085 164.329 612.62 165.036 611.067C166.446 607.969 167.616 604.413 168.084 601.807L167.1 601.63L166.116 601.453C165.684 603.857 164.575 607.252 163.215 610.239C162.537 611.728 161.809 613.089 161.09 614.158C160.349 615.26 159.696 615.932 159.205 616.197L159.68 617.077ZM182.077 583.095L182.547 582.212L175.293 578.35L174.823 579.233L174.353 580.116L181.607 583.977L182.077 583.095Z" fill="#849C5E"/>
<path d="M245.18 538.3L232.823 543.706L215.832 552.202C215.832 552.202 213.908 551.284 212.742 549.885C208.881 545.251 197.636 548.556 193.434 550.657C188.8 552.974 187.513 555.034 183.394 558.381C182.364 558.638 179.996 559.307 178.76 559.925C177.524 560.543 171.552 563.272 168.72 564.559C162.541 567.648 150.957 578.306 150.957 590.046C150.957 604.72 164.086 617.077 168.72 618.622C173.354 620.166 176.443 620.166 181.849 616.305C186.483 612.995 192.662 603.947 197.296 599.314C200.385 598.541 207.799 596.379 212.742 593.907C218.921 590.818 218.921 584.639 218.921 581.55C218.921 579.596 217.634 574.599 216.604 572.282L252.131 552.202L245.18 538.3Z" fill="#9EC15D" stroke="#5B9652" stroke-width="2"/>
<path d="M180.947 591.332L182.894 595.528L176.652 599.286L175.401 596.707" stroke="#1E1E1E" stroke-linecap="round"/>
<line x1="197.807" y1="570.311" x2="245.691" y2="540.963" stroke="#627C3B"/>
<line x1="200.9" y1="571.853" x2="247.24" y2="544.05" stroke="#627C3B"/>
<line x1="202.445" y1="574.943" x2="248.784" y2="547.139" stroke="#627C3B"/>
<line x1="202.445" y1="579.577" x2="248.784" y2="551.773" stroke="#627C3B"/>
<path d="M196.426 569.36C198.346 569.667 199.957 570.96 200.994 572.869C202.03 574.779 202.475 577.281 202.054 579.919C201.632 582.558 200.431 584.797 198.851 586.289C197.272 587.78 195.338 588.508 193.417 588.201C191.496 587.894 189.884 586.601 188.848 584.692C187.811 582.782 187.367 580.28 187.788 577.642C188.209 575.003 189.411 572.764 190.991 571.272C192.57 569.781 194.504 569.053 196.426 569.36Z" fill="#253C1F" stroke="#60913F"/>
<path d="M236.355 548.646L238.203 551.735C239.747 550.962 243.3 549.727 245.153 550.962C247.47 552.507 252.83 557.016 253.675 559.925C255.246 565.331 254.19 567.391 254.447 570.738C254.447 570.738 256.764 576.449 255.22 583.867C253.675 591.285 245.952 593.907 238.203 593.907C237.456 593.907 233.595 593.135 233.595 593.135C225.872 589.273 216.114 582.358 213.488 576.449C210.399 569.498 208.108 560.698 211.97 554.519C215.831 548.34 220.401 545.251 225.099 545.251C229.733 545.251 233.595 546.023 236.355 548.646Z" fill="#D5DDAE"/>
<path d="M238.203 551.735L236.355 548.646C233.595 546.023 229.733 545.251 225.099 545.251C220.401 545.251 215.831 548.34 211.97 554.519C208.108 560.698 210.399 569.498 213.488 576.449C216.114 582.358 225.872 589.273 233.595 593.135M238.203 551.735C239.747 550.962 243.3 549.727 245.153 550.962C247.47 552.507 252.83 557.016 253.675 559.925C255.246 565.331 254.19 567.391 254.447 570.738C254.447 570.738 256.764 576.449 255.22 583.867C253.675 591.285 245.952 593.907 238.203 593.907M238.203 551.735C238.211 553.95 238.692 558.69 240.546 559.925M238.203 593.907C237.456 593.907 233.595 593.135 233.595 593.135M238.203 593.907L233.595 593.135" stroke="#849C5E" stroke-width="2"/>
<path d="M136.492 561.539C137.624 555.981 156.788 545.79 166.228 541.39L160.224 561.47C161.357 560.914 168.824 563.392 172.6 564.319C178.831 565.986 181.805 572.888 182.513 576.131C183.08 578.729 181.333 580.531 179.68 581.689C183.72 585.858 180.389 591.417 177.556 594.891C174.112 598.03 169.997 598.979 165.95 598.365C160.68 597.566 152.275 592.337 152.068 592.112C148.25 587.943 145.015 586.553 142.461 581.689C140.122 577.235 135.076 568.488 136.492 561.539Z" fill="#D5DDAE"/>
<path d="M179.533 581.55C183.572 585.719 180.82 591.978 177.988 595.452C174.543 598.591 171.037 600.086 165.631 599.313C160.225 598.541 144.315 587.883 142.461 585.412M179.533 581.55C181.185 580.392 183.394 580.005 183.738 577.143C184.133 573.848 176.443 561.47 160.997 560.697M179.533 581.55C179.533 581.55 178.76 580.778 177.216 579.233C175.671 577.688 174.126 577.143 174.126 577.143" stroke="#849C5E" stroke-width="1.5" stroke-linecap="round"/>
<path d="M202.024 441.073C232.142 443.094 254.916 468.458 252.957 497.672C250.997 526.885 225.039 548.98 194.921 546.96C164.804 544.94 142.028 519.576 143.988 490.362C145.947 461.148 171.906 439.053 202.024 441.073Z" fill="#D5DDAE" stroke="#849C5E" stroke-width="2"/>
<path d="M253.675 551.43L247.497 536.756L249.386 534.694C249.173 533.963 248.766 532.193 248.842 530.96C248.918 529.726 251.024 529.031 252.068 528.837C252.745 528.879 253.917 530.556 254.16 531.5L256.693 529.122C256.693 529.122 254.523 526.667 254.618 525.125C254.713 523.584 256.302 522.908 257.796 523.773C259.291 524.639 260.669 527.382 260.669 527.382L265.505 524.248L274.386 543.366L267.642 545.742C267.642 545.742 270.971 548.572 270.105 550.067C269.239 551.561 267.65 552.237 266.879 552.189C266.108 552.142 264.104 546.989 264.104 546.989L261.316 548.176C261.779 549.8 262.946 552.75 262.159 553.446C261.373 554.141 258.528 553.501 257.148 549.951L253.675 551.43Z" fill="#446131"/>
<path d="M260.669 527.382L265.505 524.248L274.386 543.366L264.104 546.989M260.669 527.382C260.669 527.382 259.291 524.639 257.796 523.773C256.302 522.908 254.713 523.584 254.618 525.125C254.523 526.667 256.693 529.122 256.693 529.122L253.819 531.821M260.669 527.382L253.819 531.821M253.819 531.821L249.386 534.694M249.386 534.694L247.497 536.756L253.675 551.43L264.104 546.989M249.386 534.694C249.173 533.963 248.766 532.193 248.842 530.96C248.918 529.726 251.024 529.031 252.068 528.837C252.839 528.885 254.253 531.054 254.204 531.845M267.642 545.742C267.642 545.742 270.971 548.572 270.105 550.067C269.239 551.561 267.65 552.237 266.879 552.189C266.108 552.142 264.104 546.989 264.104 546.989M261.265 547.989C261.684 549.562 262.977 552.723 262.159 553.446C261.34 554.169 258.29 553.446 256.986 549.497" stroke="#33392D" stroke-width="2"/>
<ellipse cx="3.88824" cy="4.30516" rx="3.88824" ry="4.30516" transform="matrix(-0.976642 -0.214873 -0.214873 0.976642 207.223 484.156)" fill="#627E4D"/>
<ellipse cx="3.10964" cy="3.87339" rx="3.10964" ry="3.87339" transform="matrix(-0.976642 -0.214873 -0.214873 0.976642 167.191 479.395)" fill="#627E4D"/>
<path d="M185.994 512.339L169.45 509.816C168.602 509.687 168.324 508.643 169.071 508.221C171.76 506.699 174.644 506.713 178.802 507.407C181.259 507.818 184.589 509.357 186.672 511.066C187.338 511.612 186.845 512.469 185.994 512.339Z" fill="#627E4D"/>
<path d="M283.242 493.301V494.459C283.241 494.999 283.114 495.53 282.872 496.012C282.637 496.498 282.292 496.922 281.864 497.251C281.437 497.577 280.942 497.803 280.416 497.912C280.183 497.958 279.948 497.981 279.709 497.981C279.407 497.981 279.11 497.946 278.817 497.877L273.905 496.487V506.009C273.908 507.287 273.47 508.527 272.665 509.519C271.86 510.511 270.738 511.195 269.487 511.455C268.236 511.716 266.933 511.536 265.799 510.948C264.666 510.359 263.769 509.397 263.262 508.224C262.755 507.052 262.669 505.74 263.017 504.511C263.365 503.281 264.127 502.21 265.173 501.477C266.22 500.744 267.487 500.395 268.762 500.488C270.036 500.582 271.239 501.112 272.167 501.989V488.632C272.154 488.556 272.154 488.477 272.167 488.401V488.308C272.223 488.179 272.31 488.066 272.418 487.977C272.527 487.888 272.656 487.827 272.793 487.798H273.303L280.601 489.872C281.346 490.072 282.002 490.514 282.468 491.129C282.933 491.743 283.181 492.495 283.173 493.266L283.242 493.301Z" fill="#849C5E"/>
</g>
<g filter="url(#filter2_d_33_221)">
<path d="M417.108 542.66C412.106 542.069 404.36 544.296 399.899 545.605C399.134 545.825 372.173 566.225 371.217 567.207C370.261 568.189 369.304 572.116 369.304 572.116C369.623 572.116 371.217 571.723 375.041 570.152C379.821 568.189 393.206 566.225 401.811 565.243C410.415 564.261 430.493 573.834 431.038 573.017C432.687 570.543 428.581 566.225 428.581 565.243C428.581 564.261 431.449 559.352 432.405 559.352C433.361 559.352 435.273 557.388 435.273 552.479C435.273 548.551 428.262 546.915 424.757 546.587C423.482 545.605 422.792 543.331 417.108 542.66Z" fill="#D5DDAE"/>
<path d="M432.405 559.352C433.361 559.352 435.273 557.388 435.273 552.479C435.273 548.551 428.262 546.915 424.757 546.587C423.482 545.605 422.792 543.331 417.108 542.66C412.106 542.069 404.36 544.296 399.899 545.605C399.134 545.825 372.173 566.225 371.217 567.207C370.261 568.189 369.304 572.116 369.304 572.116C369.623 572.116 371.217 571.723 375.041 570.152C379.821 568.189 393.206 566.225 401.811 565.243C410.415 564.261 430.493 573.834 431.038 573.017C432.687 570.543 428.581 566.225 428.581 565.243C428.581 564.261 431.449 559.352 432.405 559.352ZM432.405 559.352C432.405 558.043 432.023 555.228 430.493 554.442" stroke="#849C5E" stroke-linecap="round"/>
<path d="M453.885 694.488C456.186 680.529 444.618 665.406 438.547 659.589L437.588 658.62L428.96 663.467C420.524 669.671 402.437 670.576 394.448 670.253C380.643 671.028 362.811 660.559 356.101 655.711C354.567 656.487 349.709 661.851 347.472 664.436C343.638 668.314 337.886 689.641 338.844 697.396C339.611 703.601 344.277 713.553 346.514 717.754C346.514 719.693 345.555 738.112 346.514 742.959C347.281 746.837 354.503 755.562 358.018 759.439V762.347C358.977 773.011 365.687 783.675 374.315 784.644C381.218 785.42 391.891 783.028 396.365 781.736C399.561 783.675 407.294 787.165 412.662 785.613C419.373 783.675 433.753 773.98 433.753 773.011V762.347L442.381 753.623C445.449 748.969 445.577 727.772 445.257 717.754C447.175 715.815 451.585 708.448 453.885 694.488Z" fill="#D5DDAE"/>
<path d="M396.365 781.736C399.561 783.675 407.294 787.165 412.662 785.613C419.373 783.675 433.753 773.98 433.753 773.011C433.753 772.235 433.753 765.579 433.753 762.347L442.381 753.623C445.449 748.969 445.577 727.772 445.257 717.754C447.175 715.815 451.585 708.448 453.885 694.488C456.186 680.529 444.618 665.406 438.547 659.589L437.588 658.62L428.96 663.467C420.524 669.671 402.437 670.576 394.448 670.253C380.643 671.028 362.811 660.559 356.101 655.711C354.567 656.487 349.709 661.851 347.472 664.436C343.638 668.314 337.886 689.641 338.844 697.396C339.611 703.601 344.277 713.553 346.514 717.754C346.514 719.693 345.555 738.112 346.514 742.959C347.281 746.837 354.503 755.562 358.018 759.439V762.347C358.977 773.011 365.687 783.675 374.315 784.644C381.218 785.42 391.891 783.028 396.365 781.736ZM396.365 781.736V725.51" stroke="#849C5E" stroke-width="2"/>
<path d="M434.393 685.397C433.734 685.397 430.27 684.573 429.446 684.573L433.569 689.521L434.393 685.397Z" fill="#9BB572"/>
<path d="M356.88 686.222C357.539 686.222 361.003 685.397 361.827 685.397L357.704 690.345L356.88 686.222Z" fill="#9BB572"/>
<path d="M394.812 699.687C394.152 696.827 387.94 686.727 386.566 683.748C386.566 682.318 406.356 682.099 406.356 682.923C406.356 683.748 398.935 702.368 397.286 705.943L395.636 706.837C395.636 705.645 395.471 702.547 394.812 699.687Z" fill="#9BB572"/>
<path d="M443.464 721.68C442.804 722.34 434.118 728.827 430.27 732.4L433.568 760.437L441.815 752.191C443.464 748.892 444.288 720.856 443.464 721.68Z" fill="#9BB572"/>
<path d="M347.809 721.68C348.469 722.34 356.33 728.827 360.178 732.4L356.88 756.314L351.932 749.717L347.809 743.12C346.16 739.822 346.985 720.856 347.809 721.68Z" fill="#9BB572"/>
<path d="M363.807 718.701L357.869 758.284C355.263 775.662 368.754 784.351 375.681 784.351C381.222 784.351 391.843 781.776 396.461 780.489V767.938C395.802 748.951 394.482 709.819 394.482 705.185C394.482 699.392 386.566 678.152 375.681 677.187C366.973 676.414 359.519 688.45 356.88 694.565L363.807 718.701Z" fill="#D5DDAE"/>
<path d="M392.338 704.364L393.163 702.714M357.869 758.284L363.807 718.701L356.88 694.565C359.519 688.45 366.973 676.414 375.681 677.187C386.566 678.152 394.482 699.392 394.482 705.185C394.482 709.819 395.802 748.951 396.461 767.938V780.489C391.843 781.776 381.222 784.351 375.681 784.351C368.754 784.351 355.263 775.662 357.869 758.284Z" stroke="#849C5E" stroke-width="2"/>
<path d="M427.755 718.343L432.496 761.379C432.725 765.527 434.304 769.967 432.496 772.865C426.81 781.981 411.199 786 410.479 786C405.169 786 398.935 782.702 396.461 779.6V767.157C397.093 748.334 398.357 709.538 398.357 704.944C398.357 699.201 405.944 678.144 416.375 677.187C424.72 676.421 431.864 688.353 434.393 694.415L427.755 718.343Z" fill="#D5DDAE" stroke="#849C5E" stroke-width="2"/>
<path d="M437.035 677.959C438.806 674.122 446.659 672.204 447.621 672.204C448.584 672.204 449.546 675.081 450.508 678.918C452.074 685.16 453.636 694.265 451.471 702.897C449.787 709.612 446.659 713.768 444.734 717.285C442.489 720.163 436.917 728.238 429.336 731.673C418.75 736.469 401.427 728.795 398.54 726.877C395.652 724.958 396.615 711.53 396.615 708.652C396.615 706.35 399.823 705.157 401.427 704.848C400.718 704.262 400.068 703.349 399.502 701.938C397.577 697.142 408.068 692.346 412.975 692.346C419.712 692.346 433.185 694.265 434.148 694.265C435.11 694.265 435.748 680.747 437.035 677.959Z" fill="#D5DDAE"/>
<path d="M407.201 705.775C405.164 705.775 403.126 706.253 401.427 704.848M401.427 704.848C400.718 704.262 400.068 703.349 399.502 701.938C397.577 697.142 408.068 692.346 412.975 692.346C419.712 692.346 433.185 694.265 434.148 694.265C435.11 694.265 435.748 680.747 437.035 677.959C438.806 674.122 446.659 672.204 447.621 672.204C448.584 672.204 449.546 675.081 450.508 678.918C452.074 685.16 453.636 694.265 451.471 702.897C449.787 709.612 446.659 713.768 444.734 717.285C442.489 720.163 436.917 728.238 429.336 731.673C418.75 736.469 401.427 728.795 398.54 726.877C395.652 724.958 396.615 711.53 396.615 708.652C396.615 706.35 399.823 705.157 401.427 704.848Z" stroke="#849C5E" stroke-width="2" stroke-linecap="round"/>
<path d="M354.238 677.959C352.313 674.122 344.614 672.204 343.651 672.204C342.689 672.204 341.727 675.081 340.764 678.918C339.198 685.16 337.636 694.265 339.802 702.897C341.486 709.612 344.614 713.768 346.539 717.285C348.784 720.163 354.355 728.238 361.937 731.673C372.523 736.469 389.846 728.795 392.733 726.877C395.62 724.958 394.658 711.53 394.658 708.652C394.658 706.35 391.45 705.157 389.846 704.848C390.554 704.262 391.204 703.349 391.771 701.938C393.695 697.142 383.205 692.346 378.297 692.346C371.561 692.346 358.087 694.265 357.125 694.265C356.162 694.265 355.615 680.704 354.238 677.959Z" fill="#D5DDAE"/>
<path d="M384.072 705.775C386.109 705.775 388.147 706.253 389.846 704.848M389.846 704.848C390.554 704.262 391.204 703.349 391.771 701.938C393.695 697.142 383.205 692.346 378.297 692.346C371.561 692.346 358.087 694.265 357.125 694.265C356.162 694.265 355.615 680.704 354.238 677.959C352.313 674.122 344.614 672.204 343.651 672.204C342.689 672.204 341.727 675.081 340.764 678.918C339.198 685.16 337.636 694.265 339.802 702.897C341.486 709.612 344.614 713.768 346.539 717.285C348.784 720.163 354.355 728.238 361.937 731.673C372.523 736.469 389.846 728.795 392.733 726.877C395.62 724.958 394.658 711.53 394.658 708.652C394.658 706.35 391.45 705.157 389.846 704.848Z" stroke="#849C5E" stroke-width="2" stroke-linecap="round"/>
<path d="M402.188 565.973C433.381 568.065 456.97 593.816 454.986 623.394C453.002 652.972 426.185 675.343 394.992 673.25C363.799 671.158 340.211 645.406 342.195 615.828C344.18 586.25 370.996 563.881 402.188 565.973Z" fill="#D5DDAE" stroke="#849C5E" stroke-width="2"/>
<path d="M403.001 544.98C401.022 551.577 392.875 564.017 387.333 564.771M399.703 548.279C399.428 549.103 398.713 550.918 398.053 551.577" stroke="#849C5E" stroke-width="2" stroke-linecap="round"/>
<path d="M362.029 540.198C362.218 539.536 363.284 534.888 363.793 532.647C363.069 529.756 360.327 529.87 356.992 530.71C353.657 531.55 352.483 537.032 350.942 539.725C349.401 542.418 352.749 545.608 356.328 546.628C359.908 547.648 361.794 541.026 362.029 540.198Z" fill="#849C5E" stroke="#849C5E" stroke-width="2" stroke-linecap="round"/>
<path d="M378.375 524.865C389.466 524.865 398.49 534.221 398.49 545.804C398.49 557.388 389.466 566.745 378.375 566.745C367.284 566.745 358.26 557.388 358.26 545.804C358.26 534.221 367.284 524.865 378.375 524.865Z" fill="#D5DDAE" stroke="#849C5E"/>
<path d="M388.248 541.511C388.051 540.686 384.927 535.874 386.845 532.038C388.763 528.201 391.661 528.7 396.238 529.787C400.815 530.874 401.907 537.701 403.791 541.067C405.675 544.434 400.676 548.355 395.572 549.575C390.467 550.795 388.495 542.543 388.248 541.511Z" fill="#849C5E" stroke="#849C5E" stroke-linecap="round"/>
<ellipse cx="369.262" cy="545.826" rx="0.959055" ry="0.959055" transform="rotate(4.44141 369.262 545.826)" fill="#627E4D"/>
<ellipse cx="384.709" cy="545.102" rx="0.959055" ry="0.959055" transform="rotate(4.44141 384.709 545.102)" fill="#627E4D"/>
<path d="M377.326 554.051C376.501 554.051 374.964 554.876 374.964 554.876L379.912 554.876C379.912 554.876 378.117 554.051 377.326 554.051Z" stroke="#627E4D" stroke-width="0.5" stroke-linecap="round"/>
<ellipse cx="3.55285" cy="3.55285" rx="3.55285" ry="3.55285" transform="matrix(-0.993449 0.114273 0.114274 0.993449 426.497 608.299)" fill="#627E4D"/>
<ellipse cx="3.55285" cy="3.55285" rx="3.55285" ry="3.55285" transform="matrix(-0.993449 0.114273 0.114274 0.993449 376.757 608.224)" fill="#627E4D"/>
<path d="M387.706 647.027L410.585 646.307C411.545 646.277 411.884 645.085 411.037 644.631C407.801 642.898 404.195 642.057 398.654 642.068C394.577 642.075 390.153 643.82 387.21 645.496C386.382 645.967 386.753 647.057 387.706 647.027Z" fill="#627E4D"/>
<ellipse cx="377.438" cy="549.928" rx="0.824611" ry="0.824611" fill="#1E1E1E"/>
<path d="M351.148 564.165C350.771 563.285 350.06 562.592 349.171 562.236C348.283 561.881 347.29 561.894 346.41 562.271C345.531 562.648 344.837 563.359 344.482 564.247C344.127 565.136 344.139 566.129 344.516 567.008C344.883 567.862 345.542 569.066 347.264 569.755L354.276 571.459C354.276 571.459 357.186 566.928 357.875 565.205C358.563 563.483 358.145 562.175 357.779 561.321C357.402 560.442 356.691 559.748 355.803 559.393C354.914 559.038 353.921 559.05 353.042 559.427C352.162 559.804 351.469 560.515 351.113 561.404C350.758 562.292 350.771 563.285 351.148 564.165Z" fill="#849C5E"/>
</g>
<g filter="url(#filter3_d_33_221)">
<path d="M555.428 465.391C562.087 465.391 565.769 471.192 566.778 475.228C567.03 478.567 562.39 490.361 559.968 493.388C556.941 497.171 550.888 510.034 551.645 522.141C552.401 534.248 555.428 551.831 572.075 558.461C588.722 565.091 613.692 563.001 619.745 558.461C625.798 553.921 643.958 535.761 640.932 517.601C640.632 512.854 637.905 500.954 635.635 497.928C633.365 494.901 632.608 491.118 629.194 483.551C626.463 477.498 628.056 473.342 629.194 472.021C629.699 470.76 632.221 467.33 638.274 463.698C645.841 459.158 652.264 467.481 653.408 469.751C654.552 472.021 652.264 480.165 652.651 482.615C653.038 485.064 660.974 504.999 660.974 518.935C660.974 535.005 651.525 560.731 650.768 563.758C650.012 566.785 641.271 581.161 638.274 599.142C637.518 603.682 632.978 639.245 632.978 643.028C632.978 646.812 627.681 686.915 632.978 695.995C637.215 703.259 637.77 711.128 636.004 715.668C630.96 718.695 619.539 718.259 608.764 717.182C601.198 716.425 597.667 700.03 598.171 693.725C599.18 676.574 600.138 642.12 595.901 641.515C591.664 640.91 592.118 672.034 592.874 687.672C593.379 698.265 591.361 716.576 582.281 717.182C570.931 717.938 552.137 718.184 549.744 713.398C547.474 708.858 556.05 695.49 558.068 687.672C558.32 676.322 556.554 653.622 554.284 635.462C552.217 618.926 547.759 602.909 534.611 567.361C525.161 541.815 530.071 506.828 531.584 503.801C533.098 500.775 537.268 488.207 537.268 478.254C537.268 467.661 547.105 465.391 555.428 465.391Z" fill="#D5DDAE" stroke="#849C5E" stroke-width="2"/>
<path d="M599.675 481.632C625.014 483.332 644.153 503.916 642.573 527.481C640.992 551.046 619.275 568.89 593.936 567.19C568.597 565.49 549.459 544.906 551.039 521.341C552.62 497.776 574.336 479.933 599.675 481.632Z" fill="#D5DDAE" stroke="#849C5E" stroke-width="2"/>
<path d="M561.703 448.745C565.335 436.033 581.881 432.35 589.7 432.098H601.806C602.139 432.098 602.655 432.098 603.32 432.12C608.706 432.299 623.908 433.928 631.316 448.745C637.975 462.062 624.864 478.255 619.21 482.038C612.425 486.578 579.642 485.821 573.81 482.038C567.978 478.255 557.163 464.635 561.703 448.745Z" fill="#9EC15D"/>
<path d="M619.21 482.038C612.425 486.578 579.642 485.821 573.81 482.038C567.978 478.255 557.163 464.635 561.703 448.745C565.335 436.033 581.881 432.35 589.7 432.098C592.726 432.098 599.385 432.098 601.806 432.098C602.139 432.098 602.655 432.098 603.32 432.12M619.21 482.038C624.864 478.255 637.975 462.062 631.316 448.745C623.908 433.928 608.706 432.299 603.32 432.12M619.21 482.038C629.5 454.193 612.904 437.157 603.32 432.12" stroke="#5B9652" stroke-width="2"/>
<path d="M598.78 432.855C603.068 442.187 609.606 468.721 602.342 485.065" stroke="#5B9652" stroke-width="2"/>
<path d="M594.24 432.855C589.7 442.943 584.03 470.537 589.478 485.065" stroke="#5B9652" stroke-width="2"/>
<path d="M587.43 432.098C578.602 440.926 565.114 464.635 576.615 482.795" stroke="#5B9652" stroke-width="2"/>
<path d="M595.069 416.478C596.885 414.057 599.861 416.478 601.122 417.992C594.312 418.748 596.582 427.828 597.339 429.342C597.944 430.552 602.059 431.846 604.076 432.098C603.067 433.359 600.214 435.395 596.582 435.395C592.042 435.395 586.6 432.584 587.43 432.098C587.952 431.792 589.772 431.107 590.529 430.855V424.802C590.529 421.018 592.799 419.505 595.069 416.478Z" fill="#446131" stroke="#33392D" stroke-width="2"/>
<ellipse cx="3.02668" cy="3.03418" rx="3.02668" ry="3.03418" transform="matrix(-0.999462 -0.0328015 -0.0326393 0.999467 620.018 510.99)" fill="#627E4D"/>
<ellipse cx="3.02668" cy="3.03418" rx="3.02668" ry="3.03418" transform="matrix(-0.999462 -0.0328015 -0.0326393 0.999467 580.593 512.732)" fill="#627E4D"/>
<path d="M590.933 540.31L603.312 540.239C604.158 540.234 604.592 539.262 603.935 538.728C602.13 537.261 600.064 536.693 596.956 536.091C594.601 535.635 592.033 537.242 590.287 538.788C589.649 539.352 590.081 540.315 590.933 540.31Z" fill="#627E4D"/>
<path d="M554.672 465.391C561.33 465.391 565.769 471.949 566.778 475.984C567.03 479.323 562.39 490.361 559.968 493.388M638.662 463.878C632.608 467.51 628.942 471.697 628.438 472.958C627.3 474.279 625.707 477.678 628.438 483.731C631.852 491.298 632.608 495.081 634.878 498.108" stroke="#849C5E" stroke-width="2"/>
</g>
<g filter="url(#filter4_d_33_221)">
<path d="M367.078 222.987C367.915 217.131 367.636 211.275 368.751 207.928C370.424 207.928 381.3 207.928 382.137 206.255C382.806 204.917 387.156 202.072 387.993 200.399L413.091 201.236C414.206 202.072 419.114 203.243 419.784 204.582C420.62 206.255 434.006 209.602 436.516 209.602C439.025 209.602 441.535 207.58 443.208 208.765C444.881 209.95 442.371 226.334 442.371 228.843C442.371 231.353 442.372 252.268 441.535 257.288C440.698 262.307 444.044 279.876 442.371 284.895C440.698 289.915 433.169 291.588 428.149 292.425C423.13 293.261 411.417 291.588 409.744 289.078C408.071 286.569 405.561 279.039 406.398 272.346C407.235 265.654 407.235 260.634 407.235 255.615C407.235 250.595 405.561 235.536 405.561 236.373C405.561 237.209 405.254 249.008 404.725 250.595C403.888 253.105 403.051 258.961 403.051 261.471C403.051 263.98 404.725 279.876 404.725 283.222C404.725 286.569 403.888 290.752 402.215 292.425C400.542 294.098 385.483 298.281 375.444 294.935C365.405 291.588 367.915 281.549 368.751 277.366C369.588 273.183 368.752 255.615 367.915 249.758C367.077 243.902 366.241 228.843 367.078 222.987Z" fill="#D5DDAE" stroke="#849C5E" stroke-width="2"/>
<path d="M346.163 177.811C346.832 166.433 364.847 145.183 373.77 135.981C374.607 135.118 375.444 135.144 379.627 135.981C383.81 136.818 405.561 139.327 408.071 139.327C410.581 139.327 423.966 136.818 428.149 135.144C432.332 133.471 436.515 131.798 438.188 131.798C439.862 131.798 454.084 147.693 460.777 160.242C467.469 172.791 459.94 192.87 456.594 199.562C453.247 206.255 437.352 212.111 427.313 210.438C417.273 208.765 416.437 203.745 416.437 201.236C416.437 199.228 423.687 193.706 427.313 191.196V187.013C427.313 185.675 430.101 184.225 431.496 183.667L425.639 179.484L411.417 190.36L396.358 197.053L363.128 178.855C365.09 180.737 367.286 184.504 370.424 184.504C374.607 184.504 387.156 194.543 387.993 201.236C388.829 207.928 371.261 211.275 358.712 207.928C346.163 204.582 345.326 192.033 346.163 177.811Z" fill="#D5DDAE"/>
<path d="M373.77 135.981C364.847 145.183 346.832 166.433 346.163 177.811C345.326 192.033 346.163 204.582 358.712 207.928C371.261 211.275 388.829 207.928 387.993 201.236C387.156 194.543 374.607 184.504 370.424 184.504C366.241 184.504 363.731 177.811 361.221 177.811L396.358 197.053L411.417 190.36L425.639 179.484L431.496 183.667C430.101 184.225 427.313 185.675 427.313 187.013C427.313 188.352 427.313 190.36 427.313 191.196C423.687 193.706 416.437 199.228 416.437 201.236C416.437 203.745 417.273 208.765 427.313 210.438C437.352 212.111 453.247 206.255 456.594 199.562C459.94 192.87 467.469 172.791 460.777 160.242C454.084 147.693 439.862 131.798 438.188 131.798C436.515 131.798 432.332 133.471 428.149 135.144C423.966 136.818 410.581 139.327 408.071 139.327C405.561 139.327 383.81 136.818 379.627 135.981C375.444 135.144 374.607 135.118 373.77 135.981Z" stroke="#849C5E" stroke-width="2"/>
<path d="M429.026 135.981C433.209 134.308 437.392 132.635 439.065 132.635L443.208 138.491C437.987 141.837 431.495 148.53 431.495 155.223C431.495 161.915 429.026 165.262 429.026 166.098L397.195 185.34L373.77 166.935L368.558 164.425H364.375V167.684C364.377 167.713 364.377 167.742 364.375 167.772V167.684C364.313 166.628 361.991 166.121 359.548 166.935C355.532 168.274 350.067 175.58 347.836 179.484C347.166 174.13 350.967 168.051 352.855 165.262C360.385 152.713 371.223 139.606 374.647 136.818C375.483 135.955 376.32 135.981 380.503 136.818C384.686 137.654 406.438 140.164 408.947 140.164C411.457 140.164 424.843 137.654 429.026 135.981Z" fill="#9BB572"/>
<path d="M425.997 209.728C429.873 208.038 444.167 209.728 445.718 209.728C445.718 209.728 446.554 211.275 445.718 217.967C444.881 224.66 443.052 224.938 443.052 224.938C439.862 221.314 442.296 215.101 434.842 215.643C425.539 216.319 416.376 211.275 415.6 211.275C414.825 211.275 408.523 215.013 408.071 217.967C407.451 222.023 408.071 249.758 407.234 251.431C406.398 253.105 404.725 252.268 403.888 251.431C403.051 250.595 404.725 224.938 399.705 218.804C398.868 217.967 392.176 212.111 385.483 207.092C383.157 207.655 376.655 209.053 372.934 213.784C368.282 219.699 370.179 234.233 371.729 242.683C373.28 251.132 372.504 264.652 371.729 272.257C370.954 279.862 372.934 282.386 374.055 284.087C376.746 288.172 386.293 292.408 393.012 294.098C393.012 294.098 389.666 295.771 387.156 295.771C384.646 295.771 374.607 294.098 371.261 291.588C368.667 289.643 368.751 273.183 369.403 262.962C370.004 253.558 368.628 246.063 367.853 240.148C367.078 234.233 367.262 210.438 369.587 210.438C371.913 210.438 381.807 208.038 384.908 206.348C388.009 204.658 387.234 203.813 388.009 205.503C388.785 207.193 399.638 215.643 401.189 215.643C402.429 215.643 410.492 208.883 414.368 205.503C416.694 205.503 422.121 211.418 425.997 209.728Z" fill="#9BB572"/>
<path d="M444.914 139.327C439.894 140.443 430.022 147.191 430.691 165.262" stroke="#849C5E" stroke-width="2" stroke-linecap="round"/>
<path d="M371.261 164.592C369.253 163.923 367.635 165.429 367.078 166.265L398.032 188.853L434.842 167.102C434.005 166.265 431.998 164.592 430.659 164.592C429.32 164.592 408.35 177.42 398.032 183.834C389.945 177.699 373.268 165.261 371.261 164.592Z" fill="white" stroke="white"/>
<path d="M346.162 187.85C348.115 180.924 354.696 167.216 362.058 167.789" stroke="#849C5E" stroke-width="2" stroke-linecap="round"/>
<path d="M363.731 165.262C363.062 165.931 361.779 173.349 361.222 176.974C361.222 178.313 365.683 181.436 367.914 182.83C370.424 182.83 378.79 188.687 382.973 191.196C386.32 193.204 387.156 202.072 387.156 206.255C390.502 209.044 397.363 214.789 398.032 215.458C398.701 216.127 402.215 216.294 403.888 216.294L415.6 207.092C415.879 205.976 416.437 203.243 416.437 201.236C416.437 198.726 427.313 192.033 427.313 191.196C427.313 190.36 428.149 187.85 428.986 185.34C429.655 183.332 435.958 181.715 439.025 181.157C438.746 178.09 438.189 171.62 438.189 170.281C438.189 168.943 435.4 168.051 434.006 167.772L398.032 189.523L365.405 164.425C365.126 164.425 364.401 164.593 363.731 165.262Z" fill="#5B9652" stroke="#53894A" stroke-width="2"/>
<path d="M418.947 201.236C428.986 194.543 429.99 185.34 430.659 185.34L438.188 182.83" stroke="#D5DDAE" stroke-width="2"/>
<path d="M361.221 179.484C362.058 180.321 368.75 183.667 368.75 184.504C368.75 186.177 374.607 187.013 384.646 193.706C385.482 196.216 386.988 201.738 386.319 203.745C385.65 205.753 383.809 198.447 382.973 194.543L380.463 192.87" stroke="#D5DDAE" stroke-width="2"/>
<path d="M372.934 184.504L372.738 185.484L372.934 184.504ZM361.928 177.104C361.538 176.713 360.905 176.713 360.514 177.104C360.124 177.494 360.124 178.127 360.514 178.518L361.221 177.811L361.928 177.104ZM426.476 191.196L427.183 191.903L427.397 191.689L427.457 191.392L426.476 191.196ZM346.163 177.811L345.164 177.752C344.746 184.864 344.73 191.722 346.463 197.247C348.224 202.859 351.802 207.121 358.454 208.895L358.712 207.928L358.969 206.962C353.072 205.389 349.957 201.703 348.372 196.649C346.759 191.507 346.743 184.98 347.161 177.87L346.163 177.811ZM358.712 207.928L358.454 208.895C364.89 210.611 372.372 210.624 378.27 209.343C381.216 208.704 383.836 207.727 385.746 206.423C387.65 205.123 388.993 203.386 388.993 201.236H387.993H386.993C386.993 202.457 386.244 203.662 384.618 204.772C382.998 205.878 380.651 206.78 377.846 207.389C372.241 208.606 365.082 208.592 358.969 206.962L358.712 207.928ZM387.993 201.236H388.993C388.993 196.634 386.004 192.407 382.684 189.309C381.003 187.741 379.191 186.417 377.528 185.428C375.884 184.451 374.317 183.76 373.13 183.523L372.934 184.504L372.738 185.484C373.602 185.657 374.942 186.218 376.506 187.147C378.051 188.065 379.747 189.304 381.319 190.771C384.503 193.742 386.993 197.471 386.993 201.236H387.993ZM372.934 184.504L373.13 183.523C371.218 183.141 368.832 181.963 366.663 180.621C364.502 179.283 362.69 177.865 361.928 177.104L361.221 177.811L360.514 178.518C361.426 179.429 363.378 180.94 365.61 182.321C367.833 183.697 370.466 185.03 372.738 185.484L372.934 184.504ZM438.188 181.157L437.481 180.45C437.549 180.383 437.534 180.426 437.241 180.534C436.998 180.624 436.668 180.723 436.258 180.831C435.424 181.053 434.432 181.275 433.345 181.547C432.294 181.809 431.196 182.109 430.295 182.461C429.845 182.637 429.412 182.838 429.047 183.072C428.698 183.296 428.314 183.612 428.091 184.056L428.986 184.504L429.88 184.951C429.867 184.977 429.901 184.901 430.127 184.755C430.338 184.62 430.636 184.475 431.023 184.324C431.796 184.022 432.788 183.747 433.83 183.487C434.834 183.236 435.934 182.987 436.772 182.764C437.199 182.651 437.601 182.533 437.934 182.411C438.215 182.307 438.619 182.141 438.896 181.864L438.188 181.157ZM428.986 184.504L428.091 184.056C427.955 184.33 427.798 184.596 427.584 184.981C427.379 185.351 427.148 185.785 426.907 186.322C426.425 187.398 425.927 188.845 425.495 191L426.476 191.196L427.457 191.392C427.862 189.365 428.319 188.064 428.733 187.139C428.941 186.675 429.142 186.295 429.333 185.951C429.516 185.623 429.718 185.276 429.88 184.951L428.986 184.504ZM426.476 191.196L425.769 190.489C424.123 192.135 421.693 194.073 419.541 195.967C418.49 196.892 417.508 197.806 416.784 198.631C416.422 199.043 416.101 199.458 415.866 199.863C415.64 200.252 415.437 200.727 415.437 201.236H416.437H417.437C417.437 201.242 417.442 201.132 417.596 200.867C417.74 200.618 417.969 200.312 418.286 199.95C418.921 199.227 419.822 198.384 420.862 197.469C422.893 195.681 425.482 193.604 427.183 191.903L426.476 191.196ZM416.437 201.236H415.437C415.437 202.606 415.667 204.757 417.338 206.786C419.006 208.811 421.981 210.563 427.148 211.425L427.313 210.438L427.477 209.452C422.605 208.64 420.143 207.046 418.882 205.515C417.625 203.989 417.437 202.375 417.437 201.236H416.437ZM427.313 210.438L427.148 211.425C432.397 212.299 439.064 211.203 444.81 209.075C447.695 208.007 450.387 206.664 452.587 205.143C454.773 203.632 456.545 201.895 457.488 200.01L456.594 199.562L455.699 199.115C454.969 200.576 453.499 202.081 451.45 203.498C449.414 204.905 446.878 206.177 444.116 207.2C438.568 209.255 432.268 210.25 427.477 209.452L427.313 210.438ZM456.594 199.562L457.488 200.01C459.194 196.598 461.946 189.82 463.431 182.292C464.909 174.797 465.17 166.356 461.659 159.772L460.777 160.242L459.894 160.713C463.076 166.678 462.919 174.55 461.469 181.905C460.025 189.227 457.34 195.834 455.699 199.115L456.594 199.562Z" fill="#849C5E"/>
<path d="M408.599 23.502C442.312 25.7634 467.811 54.0382 465.627 86.5921C463.444 119.146 434.396 143.762 400.684 141.5C366.971 139.239 341.472 110.964 343.655 78.4103C345.839 45.8565 374.887 21.2406 408.599 23.502Z" fill="#D5DDAE" stroke="#849C5E" stroke-width="2"/>
<ellipse cx="3.71857" cy="3.84275" rx="3.71857" ry="3.84275" transform="matrix(-0.912591 -0.408874 -0.408875 0.912591 430.063 105.558)" fill="#627E4D"/>
<ellipse cx="4.00772" cy="3.52216" rx="4.00772" ry="3.52216" transform="matrix(-0.919785 -0.392421 -0.392422 0.919785 382.234 106.665)" fill="#627E4D"/>
<path d="M411.28 128.945L394.83 128.586C393.772 128.563 393.531 129.715 394.563 129.952C396.993 130.51 399.85 130.696 403.636 130.755C405.924 130.79 408.94 130.527 411.431 130.096C412.462 129.918 412.327 128.968 411.28 128.945Z" fill="#627E4D"/>
<g opacity="0.7">
<path d="M374.503 125.152H380.045C384.983 125.152 387.452 125.152 389.397 124.315C390.683 123.761 391.852 122.95 392.837 121.926C393.821 120.903 394.602 119.688 395.135 118.35C395.94 116.329 395.94 113.762 395.94 108.629C395.94 103.496 395.94 100.93 395.135 98.9084C394.602 97.571 393.821 96.3559 392.837 95.3324C391.852 94.3089 390.683 93.4972 389.397 92.9436C387.452 92.1065 384.983 92.1065 380.045 92.1065C380.045 92.1065 352.019 91.1304 350.903 92.1065C349.788 93.0825 351.182 99.4964 352.855 106.189L352.922 106.413C355.38 114.606 356.217 117.394 357.881 120.091C358.703 121.421 359.791 122.552 361.071 123.406C363.688 125.152 367.297 125.152 374.503 125.152Z" stroke="black" stroke-width="3" stroke-linecap="round" stroke-linejoin="round"/>
<path d="M433.273 125.152H427.731C422.793 125.152 420.324 125.152 418.379 124.315C417.093 123.761 415.924 122.95 414.939 121.926C413.954 120.903 413.173 119.688 412.641 118.35C411.836 116.329 411.836 113.762 411.836 108.629C411.836 103.496 411.836 100.93 412.641 98.9084C413.173 97.571 413.954 96.3559 414.939 95.3324C415.924 94.3089 417.093 93.4972 418.379 92.9436C420.324 92.1065 422.793 92.1065 427.731 92.1065H456.872C456.872 92.1065 457.43 93.6402 456.593 100.333C455.757 107.026 451.228 117.826 449.894 120.091C449.072 121.421 447.985 122.552 446.705 123.406C444.087 125.152 440.479 125.152 433.273 125.152Z" stroke="black" stroke-width="3" stroke-linecap="round" stroke-linejoin="round"/>
<path d="M395.522 111.065C396.359 110.229 396.403 109.327 397.972 108.699C399.541 108.071 401.669 107.719 403.888 107.719C406.107 107.719 408.235 108.071 409.804 108.699C411.373 109.327 411.417 110.229 412.254 111.065" stroke="black" stroke-width="3"/>
</g>
</g>
<g filter="url(#filter5_d_33_221)">
<path d="M151.376 237.093C152.595 230.998 164.073 219.825 169.66 215L187.944 219.571H213.085L229.846 211.952L232.131 214.238C235.179 215 239.403 221.325 240.512 222.618C245.083 227.951 245.083 237.093 244.321 250.045C243.38 266.043 236.702 277.471 233.655 282.042C233.655 282.042 231.369 331.562 231.369 334.609C231.369 337.657 233.655 374.073 233.655 379.558C233.655 385.044 230.1 387.431 228.322 387.939C213.847 393.271 190.992 387.939 189.468 385.653C188.249 383.825 190.992 374.225 192.515 369.654C190.077 372.092 189.468 383.367 187.944 384.129C186.421 384.891 164.327 382.606 162.803 375.749C161.584 370.264 170.422 360.766 174.993 356.703C174.485 349.846 173.469 335.828 173.469 334.609C173.469 333.086 162.803 302.612 162.803 297.279V261.472C149.344 260.964 121.359 259.949 117.093 259.949C111.76 259.949 98.8084 253.854 94.2373 251.568C90.5805 249.74 89.6663 241.664 89.6663 237.855L110.998 241.664L117.093 234.046C115.061 229.729 111.912 220.942 115.569 220.333C119.226 219.723 130.806 231.252 136.139 237.093L139.948 240.141C143.249 241.664 150.157 243.188 151.376 237.093Z" fill="#D5DDAE"/>
<path d="M192.515 369.654C190.077 372.092 189.468 383.367 187.944 384.129C186.421 384.891 164.327 382.606 162.803 375.749C161.584 370.264 170.422 360.766 174.993 356.703C174.485 349.846 173.469 335.828 173.469 334.609C173.469 333.086 162.803 302.612 162.803 297.279C162.803 293.013 162.803 271.63 162.803 261.472C149.344 260.964 121.359 259.949 117.093 259.949C111.76 259.949 98.8084 253.854 94.2373 251.568C90.5805 249.74 89.6663 241.664 89.6663 237.855L110.998 241.664L117.093 234.046C115.061 229.729 111.912 220.942 115.569 220.333C119.226 219.723 130.806 231.252 136.139 237.093L139.948 240.141C143.249 241.664 150.157 243.188 151.376 237.093C152.595 230.998 164.073 219.825 169.66 215L187.944 219.571H213.085L229.846 211.952C230.608 212.714 232.131 214.238 232.131 214.238M192.515 369.654C193.687 368.482 194.075 367.875 194.039 367.369C193.023 352.894 190.992 325.467 190.23 323.182C189.468 320.896 187.182 319.372 184.897 319.372M192.515 369.654C190.992 374.225 188.249 383.825 189.468 385.653C190.992 387.939 213.847 393.271 228.322 387.939C230.1 387.431 233.655 385.044 233.655 379.558C233.655 374.073 231.369 337.657 231.369 334.609C231.369 331.562 233.655 282.042 233.655 282.042M233.655 282.042C236.702 277.471 243.38 266.043 244.321 250.045C245.083 237.093 245.083 227.951 240.512 222.618C239.403 221.325 235.179 215 232.131 214.238M233.655 282.042C227.56 287.121 212.933 297.279 203.181 297.279C190.992 297.279 181.85 290.422 179.564 286.613L188.706 282.042C188.452 280.772 188.097 278.08 188.706 277.471C189.468 276.709 197.848 272.138 200.134 272.138C201.895 272.138 206.824 270.781 210.038 268.066M216.133 244.712C216.133 246.235 214.609 260.71 212.323 265.282C211.799 266.33 210.994 267.258 210.038 268.066M232.131 214.238C226.291 214.346 216.894 220.18 213.847 231.76C210.8 243.34 210.038 260.789 210.038 268.066" stroke="#849C5E" stroke-width="2" stroke-linecap="round"/>
<path d="M194.039 223.38C189.163 223.38 178.294 219.825 173.469 218.047C173.469 218.809 163.04 239.105 162.041 241.664C149.852 272.9 163.566 290.422 165.089 291.946C166.612 293.47 202.419 300.631 202.419 295.755C202.419 290.879 209.022 233.284 213.847 220.333C209.276 221.348 198.915 223.38 194.039 223.38Z" fill="white" stroke="#33392D" stroke-width="2" stroke-linecap="round"/>
<path d="M113.283 262.234C109.627 263.453 107.696 267.313 107.189 269.091C107.189 271.529 109.22 273.408 110.236 273.662C130.298 278.487 171.488 287.984 175.755 287.375C181.088 286.613 210.038 269.091 210.038 266.043C210.038 262.996 202.419 260.71 200.896 259.949C199.677 259.339 158.232 247.759 154.423 247.759C150.614 247.759 116.94 261.015 113.283 262.234Z" fill="#446131" stroke="#33392D" stroke-width="2" stroke-linecap="round"/>
<path d="M200.225 117.581C229.927 119.574 252.388 144.588 250.456 173.398C248.523 202.207 222.923 223.997 193.221 222.005C163.519 220.012 141.059 194.998 142.991 166.189C144.924 137.38 170.523 115.589 200.225 117.581Z" fill="#D5DDAE" stroke="#849C5E" stroke-width="2"/>
<path d="M189.469 281.28C189.469 281.28 183.376 286.613 182.612 286.613C181.849 286.613 191.753 294.993 203.943 295.755C216.132 296.517 206.229 281.28 206.229 281.28L206.991 270.614L197.849 273.662L188.707 278.233L189.469 281.28Z" fill="#D5DDAE" stroke="#D5DDAE" stroke-linecap="round"/>
<path d="M240.511 222.618C245.082 227.951 244.32 242.426 243.558 255.377C242.949 265.739 236.702 277.471 233.654 282.042C227.56 287.121 212.932 297.279 203.181 297.279C193.429 297.279 179.564 289.66 180.325 286.613C181.087 283.566 187.943 282.804 188.705 282.042C189.468 281.28 187.181 279.757 188.705 277.471C190.23 275.185 197.085 272.9 200.133 272.138C203.181 271.376 208.513 270.089 210.037 268.066C211.561 266.043 211.798 266.33 212.323 265.281C214.608 260.71 216.132 246.235 216.132 244.712" stroke="#849C5E" stroke-width="2" stroke-linecap="round"/>
<ellipse cx="3.38631" cy="3.49939" rx="3.38631" ry="3.49939" transform="matrix(-0.994275 0.106855 0.106855 0.994275 195.44 164.718)" fill="#627E4D"/>
<ellipse cx="3.64178" cy="3.1361" rx="3.64178" ry="3.1361" transform="matrix(-0.0667805 -0.997768 -0.997768 0.0667804 163.453 171.985)" fill="#627E4D"/>
<path d="M167.367 193.527L183.813 193.77C184.787 193.785 185.12 192.659 184.215 192.299C181.813 191.344 178.982 191.088 175.045 191.065C172.7 191.052 169.511 191.544 167.103 192.274C166.18 192.554 166.402 193.513 167.367 193.527Z" fill="#627E4D"/>
<path d="M90.5351 214.359L121.605 223.138C123.933 223.759 120.411 228.554 119.65 228.601C119.042 228.638 100.236 223.177 90.9084 220.442C89.6877 221.28 87.417 223.251 88.1 224.431C88.9537 225.905 107.036 246.93 107.129 248.451C107.204 249.668 104.243 251.173 102.753 251.773C95.3807 243.575 80.465 226.883 79.782 225.704C78.9283 224.23 82.3572 217.913 85.2589 215.446C87.5803 213.471 89.7436 213.898 90.5351 214.359Z" fill="#446131" stroke="#33392D" stroke-width="2" stroke-linecap="round"/>
<ellipse cx="162.533" cy="268.987" rx="25.5818" ry="12.0096" transform="rotate(7.60765 162.533 268.987)" fill="#9C9898"/>
<g clip-path="url(#clip0_33_221)">
<path d="M187.851 233.526L188.699 230.583C188.838 230.1 188.779 229.581 188.536 229.141C188.293 228.7 187.884 228.375 187.401 228.235C186.39 227.944 185.334 228.528 185.045 229.531L185.051 229.541C184.992 229.746 185.106 229.953 185.311 230.012C185.516 230.071 185.724 229.956 185.783 229.752L185.778 229.742C185.87 229.462 186.067 229.228 186.327 229.09C186.588 228.952 186.892 228.92 187.176 229.002C187.459 229.084 187.7 229.272 187.848 229.528C187.995 229.783 188.038 230.086 187.967 230.373L186.927 233.982L185.762 234.78C184.811 235.383 184.015 236.201 183.437 237.168L183.016 236.851C182.593 236.531 182.404 235.977 182.552 235.465L183.524 232.09L183.513 232.087L183.516 232.088L184.349 229.196C184.585 228.376 184.212 227.499 183.489 227.117C183.45 227.095 183.407 227.082 183.362 227.079C183.317 227.076 183.272 227.084 183.231 227.101C183.189 227.118 183.152 227.144 183.122 227.177C183.092 227.211 183.07 227.251 183.058 227.294L182.291 229.956C182.248 229.94 182.205 229.926 182.161 229.913L181.897 229.837C181.641 229.764 181.502 229.502 181.574 229.253L182.177 227.159C182.193 227.102 182.196 227.041 182.187 226.983C182.177 226.924 182.155 226.868 182.122 226.818C182.089 226.769 182.045 226.727 181.994 226.696C181.944 226.665 181.887 226.645 181.827 226.638C180.578 226.516 179.361 227.331 179 228.583L178.321 230.94C178.092 231.734 178.173 232.585 178.546 233.322C178.919 234.059 179.558 234.627 180.333 234.912C180.156 235.598 180.185 236.32 180.416 236.989C180.648 237.658 181.072 238.244 181.635 238.673L182.572 239.378C182.486 239.784 182.435 240.196 182.42 240.61L181.816 240.248C181.731 240.196 181.659 240.125 181.608 240.04C181.556 239.954 181.526 239.858 181.521 239.758L181.487 239.051C181.481 238.949 181.436 238.854 181.36 238.786C181.285 238.718 181.185 238.683 181.084 238.689C180.982 238.694 180.887 238.74 180.819 238.815C180.751 238.891 180.716 238.991 180.722 239.092L180.756 239.799C180.777 240.25 181.03 240.663 181.414 240.901L182.428 241.51L182.434 241.789L180.773 241.311C180.355 241.19 180.032 240.883 179.894 240.479L179.668 239.724C179.639 239.627 179.573 239.546 179.484 239.498C179.395 239.451 179.291 239.44 179.194 239.469C179.098 239.498 179.017 239.564 178.969 239.653C178.921 239.741 178.91 239.845 178.939 239.942L179.169 240.714C179.388 241.356 179.903 241.853 180.562 242.043L182.452 242.587L182.459 242.897L180.714 242.863C180.28 242.857 179.882 242.64 179.651 242.288L179.325 241.766C179.273 241.681 179.189 241.62 179.092 241.597C178.995 241.573 178.892 241.589 178.807 241.64C178.633 241.749 178.573 241.985 178.681 242.159L179.017 242.7C179.287 243.111 179.694 243.402 180.163 243.537C180.339 243.588 180.513 243.614 180.702 243.621L182.476 243.655L182.487 244.121L181.93 244.45C181.663 244.604 181.342 244.646 181.042 244.559L180.376 244.368C180.171 244.309 179.963 244.423 179.904 244.628C179.845 244.833 179.965 245.05 180.163 245.107L180.836 245.301C181.334 245.444 181.876 245.379 182.318 245.11L182.506 244.999L182.525 245.894L181.285 246.58C180.719 246.892 180.512 247.61 180.825 248.176L180.83 248.185C181.143 248.751 181.86 248.957 182.426 248.645L182.804 248.436C183.034 248.875 183.418 249.228 183.902 249.411C184.19 249.519 184.498 249.563 184.805 249.538C185.111 249.513 185.409 249.42 185.675 249.267L185.881 249.64C186.194 250.206 186.912 250.412 187.477 250.1L187.487 250.094C188.053 249.782 188.259 249.064 187.947 248.499L187.262 247.26L187.726 246.558L187.834 246.77C188.065 247.233 188.49 247.577 188.987 247.72L189.661 247.914C189.859 247.971 190.083 247.853 190.142 247.648C190.201 247.443 190.086 247.236 189.881 247.177L189.208 246.983C188.907 246.896 188.658 246.69 188.514 246.418L188.209 245.826L188.251 245.764L188.242 245.768L188.453 245.449L189.993 246.376C190.28 246.548 190.604 246.648 190.937 246.668C191.271 246.688 191.605 246.628 191.91 246.492L192.482 246.213C192.666 246.123 192.741 245.891 192.651 245.706C192.562 245.522 192.33 245.447 192.145 245.537L191.592 245.806C191.209 245.981 190.757 245.954 190.386 245.728L188.87 244.816L189.041 244.556L190.953 245.107C191.612 245.297 192.31 245.157 192.84 244.723L193.445 244.192C193.52 244.125 193.567 244.031 193.573 243.931C193.58 243.83 193.547 243.731 193.48 243.655C193.414 243.579 193.32 243.533 193.219 243.526C193.119 243.519 193.019 243.553 192.943 243.619L192.35 244.138C192.019 244.407 191.581 244.495 191.164 244.375L189.48 243.89L189.63 243.662L190.839 243.687C191.29 243.69 191.725 243.474 191.982 243.104L192.387 242.523C192.416 242.482 192.437 242.436 192.448 242.387C192.459 242.338 192.46 242.287 192.452 242.237C192.443 242.188 192.425 242.14 192.398 242.098C192.371 242.055 192.336 242.018 192.295 241.989C192.254 241.96 192.207 241.94 192.158 241.929C192.109 241.918 192.059 241.916 192.009 241.925C191.959 241.933 191.912 241.952 191.869 241.978C191.827 242.005 191.79 242.04 191.761 242.081L191.356 242.662C191.237 242.826 191.051 242.923 190.846 242.92L190.121 242.905C190.345 242.529 190.535 242.134 190.688 241.724L191.877 241.623C192.582 241.56 193.253 241.289 193.805 240.846C194.357 240.402 194.766 239.806 194.981 239.131C195.789 239.302 196.632 239.16 197.34 238.735C198.048 238.309 198.569 237.632 198.797 236.838L199.476 234.481C199.837 233.229 199.239 231.891 198.116 231.33C198.062 231.304 198.004 231.291 197.944 231.29C197.885 231.29 197.826 231.302 197.771 231.326C197.717 231.35 197.668 231.386 197.629 231.431C197.59 231.475 197.56 231.528 197.543 231.585L196.94 233.679C196.869 233.928 196.612 234.076 196.356 234.002L196.092 233.926C196.048 233.913 196.004 233.902 195.959 233.892L196.724 231.238C196.747 231.157 196.731 231.074 196.695 231.008C196.672 230.962 196.638 230.924 196.596 230.897C196.554 230.869 196.505 230.853 196.455 230.851C195.639 230.791 194.857 231.334 194.62 232.154L193.787 235.046L193.78 235.044L192.808 238.419C192.66 238.931 192.205 239.3 191.677 239.346L191.133 239.391C191.159 238.314 190.941 237.244 190.496 236.262L189.866 234.817L190.902 231.218C191.075 230.618 191.707 230.269 192.307 230.442C192.907 230.614 193.257 231.246 193.084 231.846L193.089 231.856C193.03 232.061 193.145 232.268 193.35 232.327C193.555 232.386 193.762 232.272 193.821 232.067L193.816 232.057C194.105 231.054 193.521 229.998 192.518 229.709C191.515 229.421 190.459 230.004 190.17 231.007L189.323 233.947C189.127 233.767 188.892 233.636 188.637 233.563C188.381 233.49 188.112 233.477 187.851 233.526ZM187.033 236.366C187.037 236.442 187.027 236.517 187.002 236.589C186.977 236.66 186.938 236.726 186.888 236.782C186.837 236.838 186.776 236.884 186.708 236.916C186.639 236.949 186.565 236.967 186.49 236.971C186.414 236.974 186.339 236.963 186.268 236.937C186.197 236.911 186.131 236.872 186.076 236.82C186.02 236.769 185.975 236.707 185.944 236.639C185.912 236.57 185.894 236.496 185.892 236.42C185.886 236.27 185.94 236.124 186.042 236.013C186.144 235.902 186.285 235.836 186.436 235.829C186.586 235.822 186.733 235.874 186.845 235.975C186.956 236.075 187.024 236.216 187.033 236.366ZM188.498 236.813C188.538 236.749 188.59 236.694 188.652 236.651C188.713 236.608 188.783 236.577 188.856 236.561C188.929 236.545 189.005 236.543 189.079 236.556C189.153 236.569 189.223 236.596 189.287 236.636C189.35 236.677 189.405 236.729 189.448 236.79C189.491 236.852 189.522 236.921 189.538 236.994C189.555 237.068 189.557 237.143 189.544 237.217C189.531 237.291 189.503 237.362 189.463 237.425C189.382 237.553 189.253 237.644 189.105 237.677C188.957 237.71 188.802 237.683 188.674 237.602C188.546 237.52 188.456 237.392 188.423 237.244C188.39 237.096 188.417 236.941 188.498 236.813Z" fill="#BB0000"/>
</g>
<path d="M168.33 262.087L166.64 260.961C167.204 260.397 171.71 260.961 172.273 260.961C172.836 260.961 176.216 263.214 176.779 263.214C177.342 263.214 178.469 264.904 179.032 266.03C179.595 267.157 179.595 269.41 179.595 270.536C179.595 271.438 178.469 272.039 177.906 272.226C177.53 272.79 176.779 274.029 176.779 274.479C176.779 275.043 175.089 274.479 175.089 275.043C175.089 275.493 173.963 275.982 173.399 276.169C173.024 275.794 172.16 275.155 171.71 275.606C171.147 276.169 168.33 276.733 167.767 276.733C167.203 276.733 167.767 275.606 166.64 276.169C165.514 276.733 163.26 275.043 162.697 275.043C162.134 275.043 160.444 274.479 159.881 273.916C159.317 273.353 158.191 269.973 159.317 269.41C160.444 268.847 161.007 269.41 161.571 269.41C162.134 269.41 167.203 270.536 166.64 269.973C166.077 269.41 169.457 269.973 169.457 269.41C169.457 268.847 172.836 268.283 172.836 267.72C172.836 267.269 174.338 266.03 175.089 265.467C174.902 264.716 174.413 263.327 173.963 263.777C173.4 264.34 171.71 262.651 171.71 262.087C171.71 261.637 169.457 261.9 168.33 262.087Z" fill="#BA6D39" stroke="#9C4925" stroke-width="0.5" stroke-linecap="round"/>
<path d="M153.766 270.286C154.085 270.605 157.897 272.727 159.962 273.666L158.835 271.976C158.46 271.601 157.596 270.849 157.146 270.849H156.019L155.456 270.286C155.08 269.911 153.203 269.723 153.766 270.286Z" fill="#BA6D39"/>
<path d="M157.709 270.849C153.766 268.033 155.456 264.09 155.456 264.653C155.456 265.104 157.333 268.596 158.272 270.286L158.835 271.413L157.709 270.849Z" fill="#BA6D39"/>
<path d="M157.146 264.653C156.695 266.005 158.084 268.221 158.835 269.16H159.962C159.511 269.16 157.897 266.155 157.146 264.653Z" fill="#BA6D39"/>
<path d="M159.399 265.78C159.399 266.231 160.15 267.845 160.525 268.596H159.962L158.835 266.343C159.023 265.968 159.399 265.329 159.399 265.78Z" fill="#BA6D39"/>
<path d="M153.766 270.286C154.085 270.605 157.897 272.727 159.962 273.666L158.835 271.976C158.46 271.601 157.596 270.849 157.146 270.849H156.019L155.456 270.286C155.08 269.911 153.203 269.723 153.766 270.286Z" stroke="#9C4925" stroke-width="0.5" stroke-linecap="round"/>
<path d="M157.709 270.849C153.766 268.033 155.456 264.09 155.456 264.653C155.456 265.104 157.333 268.596 158.272 270.286L158.835 271.413L157.709 270.849Z" stroke="#9C4925" stroke-width="0.5" stroke-linecap="round"/>
<path d="M157.146 264.653C156.695 266.005 158.084 268.221 158.835 269.16H159.962C159.511 269.16 157.897 266.155 157.146 264.653Z" stroke="#9C4925" stroke-width="0.5" stroke-linecap="round"/>
<path d="M159.399 265.78C159.399 266.231 160.15 267.845 160.525 268.596H159.962L158.835 266.343C159.023 265.968 159.399 265.329 159.399 265.78Z" stroke="#9C4925" stroke-width="0.5" stroke-linecap="round"/>
<ellipse cx="161.009" cy="267.464" rx="25.5818" ry="12.0096" transform="rotate(9.07757 161.009 267.464)" fill="#D9D9D9"/>
<path d="M163.289 256.799C169.241 257.75 174.436 259.741 178.024 262.182C181.631 264.635 183.536 267.483 183.112 270.138C182.688 272.793 179.99 274.906 175.799 276.113C171.628 277.314 166.071 277.588 160.119 276.637C154.167 275.686 148.972 273.694 145.384 271.253C141.777 268.8 139.872 265.953 140.296 263.297C140.72 260.642 143.418 258.53 147.609 257.323C151.779 256.121 157.337 255.848 163.289 256.799Z" stroke="#BDBDBD" stroke-width="0.5"/>
<path d="M168.33 260.564L166.64 259.437C167.204 258.874 171.71 259.437 172.273 259.437C172.836 259.437 176.216 261.69 176.779 261.69C177.342 261.69 178.469 263.38 179.032 264.507C179.595 265.633 179.595 267.886 179.595 269.013C179.595 269.914 178.469 270.515 177.906 270.703C177.53 271.266 176.779 272.505 176.779 272.956C176.779 273.519 175.089 272.956 175.089 273.519C175.089 273.97 173.963 274.458 173.399 274.646C173.024 274.27 172.16 273.632 171.71 274.082C171.147 274.646 168.33 275.209 167.767 275.209C167.203 275.209 167.767 274.082 166.64 274.646C165.514 275.209 163.26 273.519 162.697 273.519C162.134 273.519 160.444 272.956 159.881 272.392C159.317 271.829 158.191 268.45 159.317 267.886C160.444 267.323 161.007 267.886 161.571 267.886C162.134 267.886 167.203 269.013 166.64 268.45C166.077 267.886 169.457 268.45 169.457 267.886C169.457 267.323 172.836 266.76 172.836 266.196C172.836 265.746 174.338 264.507 175.089 263.943C174.902 263.192 174.413 261.803 173.963 262.253C173.4 262.817 171.71 261.127 171.71 260.564C171.71 260.113 169.457 260.376 168.33 260.564Z" fill="#E98947" stroke="#D7612D" stroke-width="0.5" stroke-linecap="round"/>
<path d="M153.766 268.763C154.085 269.081 157.897 271.203 159.962 272.142L158.835 270.452C158.46 270.077 157.596 269.326 157.146 269.326H156.019L155.456 268.763C155.08 268.387 153.203 268.199 153.766 268.763Z" fill="#E98947"/>
<path d="M157.709 269.326C153.766 266.509 155.456 262.566 155.456 263.13C155.456 263.58 157.333 267.073 158.272 268.763L158.835 269.889L157.709 269.326Z" fill="#E98947"/>
<path d="M157.146 263.13C156.695 264.482 158.084 266.697 158.835 267.636H159.962C159.511 267.636 157.897 264.632 157.146 263.13Z" fill="#E98947"/>
<path d="M159.399 264.256C159.399 264.707 160.15 266.322 160.525 267.073H159.962L158.835 264.82C159.023 264.444 159.399 263.806 159.399 264.256Z" fill="#E98947"/>
<path d="M153.766 268.763C154.085 269.081 157.897 271.203 159.962 272.142L158.835 270.452C158.46 270.077 157.596 269.326 157.146 269.326H156.019L155.456 268.763C155.08 268.387 153.203 268.199 153.766 268.763Z" stroke="#D7612D" stroke-width="0.5" stroke-linecap="round"/>
<path d="M157.709 269.326C153.766 266.509 155.456 262.566 155.456 263.13C155.456 263.58 157.333 267.073 158.272 268.763L158.835 269.889L157.709 269.326Z" stroke="#D7612D" stroke-width="0.5" stroke-linecap="round"/>
<path d="M157.146 263.13C156.695 264.482 158.084 266.697 158.835 267.636H159.962C159.511 267.636 157.897 264.632 157.146 263.13Z" stroke="#D7612D" stroke-width="0.5" stroke-linecap="round"/>
<path d="M159.399 264.256C159.399 264.707 160.15 266.322 160.525 267.073H159.962L158.835 264.82C159.023 264.444 159.399 263.806 159.399 264.256Z" stroke="#D7612D" stroke-width="0.5" stroke-linecap="round"/>
<g clip-path="url(#clip1_33_221)">
<path d="M152.992 260.91C153.068 260.952 153.152 260.978 153.24 260.986C153.327 260.995 153.417 260.985 153.503 260.957C153.589 260.93 153.669 260.885 153.741 260.826C153.812 260.768 153.872 260.695 153.917 260.614C153.963 260.533 153.993 260.444 154.006 260.352C154.019 260.261 154.015 260.169 153.993 260.081C153.972 259.993 153.933 259.912 153.881 259.842C153.828 259.771 153.762 259.713 153.686 259.67C153.532 259.585 153.349 259.567 153.175 259.623C153.001 259.678 152.852 259.802 152.76 259.966C152.668 260.131 152.641 260.322 152.684 260.499C152.728 260.676 152.838 260.824 152.992 260.91Z" fill="#FCD53F"/>
<path d="M152.557 259.96L152.557 259.96L153.245 261.159L153.245 261.16C153.266 261.198 153.268 261.268 153.222 261.325L153.219 261.327C153.198 261.353 153.17 261.369 153.149 261.374L153.141 261.376C153.119 261.382 153.104 261.379 153.095 261.375C153.086 261.371 153.077 261.364 153.07 261.35L153.068 261.347L152.968 261.17L152.602 261.375L152.532 261.415L152.097 261.661L152.568 262.499C152.655 262.655 152.643 262.887 152.5 263.066L152.496 263.07C152.428 263.158 152.334 263.216 152.235 263.239L152.23 263.241C152.145 263.262 152.062 263.256 151.991 263.228C151.921 263.201 151.859 263.151 151.815 263.084L150.96 263.601L151.072 263.799L151.074 263.802C151.185 263.996 151.168 264.277 150.996 264.488L150.995 264.49C150.937 264.562 150.867 264.619 150.79 264.658C150.714 264.698 150.634 264.719 150.557 264.721C150.48 264.724 150.406 264.709 150.34 264.68C150.275 264.65 150.218 264.606 150.171 264.548L149.304 265.011C149.347 265.146 149.34 265.305 149.276 265.453C149.213 265.601 149.101 265.721 148.967 265.789C148.834 265.857 148.693 265.869 148.572 265.834C148.452 265.8 148.35 265.719 148.284 265.604L148.165 265.391L147.237 265.728C147.247 265.779 147.246 265.835 147.235 265.89C147.224 265.946 147.203 266.001 147.171 266.051C147.14 266.1 147.1 266.142 147.055 266.175C147.01 266.207 146.961 266.229 146.914 266.241L146.913 266.24C146.768 266.276 146.639 266.217 146.571 266.096L146.57 266.095L146.482 265.939L146.205 265.448L145.75 265.782L145.709 265.812L145.252 264.953L145.319 264.916L145.752 264.669L145.508 264.235L145.434 264.103C145.361 263.973 145.37 263.782 145.492 263.631L145.492 263.63C145.554 263.553 145.636 263.503 145.719 263.483L145.72 263.483C145.774 263.47 145.826 263.47 145.872 263.481C145.919 263.492 145.961 263.513 145.996 263.544L146.761 262.922L146.643 262.713L146.614 262.654C146.588 262.592 146.574 262.523 146.571 262.45C146.568 262.353 146.587 262.252 146.629 262.158C146.671 262.063 146.734 261.979 146.811 261.914C146.869 261.865 146.932 261.828 146.997 261.803L147.063 261.783C147.16 261.76 147.256 261.763 147.342 261.79C147.426 261.817 147.502 261.867 147.561 261.935L148.408 261.431C148.372 261.337 148.361 261.229 148.38 261.118C148.398 261.007 148.445 260.901 148.516 260.811C148.607 260.699 148.727 260.623 148.847 260.594L148.848 260.594C149.041 260.547 149.227 260.613 149.342 260.756L149.387 260.822L149.461 260.955L150.352 260.502C150.317 260.426 150.303 260.334 150.316 260.238C150.326 260.165 150.351 260.093 150.39 260.029L150.434 259.968C150.507 259.877 150.603 259.817 150.7 259.791C150.885 259.747 151.05 259.823 151.133 259.971L151.134 259.97L151.491 260.604L152.374 260.138C152.366 260.121 152.36 260.096 152.364 260.066C152.368 260.035 152.381 260.004 152.402 259.977L152.405 259.975C152.425 259.949 152.449 259.935 152.473 259.93L152.475 259.929C152.497 259.924 152.514 259.926 152.526 259.931C152.538 259.936 152.549 259.946 152.557 259.96Z" fill="#F9C23C" stroke="#DCB419"/>
<path d="M153.38 260.4L153.265 260.196C153.202 260.083 153.106 259.995 152.989 259.945C152.872 259.896 152.741 259.886 152.614 259.918C152.457 259.956 152.317 260.055 152.222 260.193C152.128 260.332 152.087 260.5 152.108 260.662L152.047 260.553C151.85 260.204 151.455 260.035 151.06 260.132C150.849 260.182 150.656 260.308 150.515 260.482C150.403 260.619 150.328 260.784 150.296 260.958C150.265 261.132 150.279 261.308 150.337 261.469C150.25 261.332 150.133 261.221 149.994 261.142C149.855 261.064 149.698 261.022 149.536 261.019C149.374 261.015 149.212 261.052 149.061 261.124C148.911 261.197 148.777 261.304 148.67 261.437C148.413 261.752 148.342 262.179 148.478 262.54C148.356 262.401 148.201 262.299 148.026 262.244C147.85 262.189 147.662 262.183 147.478 262.227C147.242 262.284 147.022 262.425 146.864 262.624C146.722 262.801 146.633 263.016 146.608 263.239C146.583 263.462 146.624 263.684 146.725 263.876C146.628 263.789 146.511 263.727 146.384 263.696C146.258 263.666 146.124 263.666 145.993 263.699C145.801 263.745 145.625 263.857 145.496 264.019C145.254 264.318 145.215 264.731 145.39 265.049L145.711 265.622C145.89 265.942 146.249 266.096 146.609 266.008C146.801 265.961 146.977 265.849 147.107 265.688C147.196 265.579 147.26 265.451 147.295 265.315C147.329 265.179 147.333 265.038 147.306 264.904C147.417 265.09 147.582 265.233 147.779 265.314C147.976 265.396 148.196 265.413 148.41 265.362C148.647 265.305 148.867 265.164 149.024 264.964C149.146 264.814 149.229 264.635 149.266 264.445C149.303 264.256 149.293 264.063 149.235 263.885C149.33 264.004 149.45 264.098 149.587 264.161C149.725 264.224 149.875 264.254 150.029 264.249C150.182 264.244 150.334 264.204 150.475 264.131C150.615 264.059 150.74 263.957 150.841 263.831C150.982 263.655 151.07 263.441 151.092 263.219C151.115 262.997 151.072 262.777 150.969 262.589C151.076 262.715 151.214 262.807 151.37 262.857C151.527 262.907 151.695 262.912 151.859 262.871C152.071 262.821 152.263 262.695 152.404 262.522C152.671 262.194 152.715 261.741 152.517 261.392L152.451 261.275C152.587 261.379 152.768 261.418 152.948 261.373C153.088 261.341 153.215 261.258 153.306 261.144C153.391 261.039 153.445 260.911 153.458 260.778C153.471 260.644 153.444 260.512 153.38 260.4" fill="#FCD53F"/>
</g>
</g>
<defs>
<filter id="filter0_d_33_221" x="542" y="125" width="179.248" height="255.814" filterUnits="userSpaceOnUse" color-interpolation-filters="sRGB">
<feFlood flood-opacity="0" result="BackgroundImageFix"/>
<feColorMatrix in="SourceAlpha" type="matrix" values="0 0 0 0 0 0 0 0 0 0 0 0 0 0 0 0 0 0 127 0" result="hardAlpha"/>
<feOffset dy="4"/>
<feGaussianBlur stdDeviation="2"/>
<feComposite in2="hardAlpha" operator="out"/>
<feColorMatrix type="matrix" values="0 0 0 0 0 0 0 0 0 0 0 0 0 0 0 0 0 0 0.25 0"/>
<feBlend mode="normal" in2="BackgroundImageFix" result="effect1_dropShadow_33_221"/>
<feBlend mode="normal" in="SourceGraphic" in2="effect1_dropShadow_33_221" result="shape"/>
</filter>
<filter id="filter1_d_33_221" x="129.007" y="439.945" width="158.236" height="272.632" filterUnits="userSpaceOnUse" color-interpolation-filters="sRGB">
<feFlood flood-opacity="0" result="BackgroundImageFix"/>
<feColorMatrix in="SourceAlpha" type="matrix" values="0 0 0 0 0 0 0 0 0 0 0 0 0 0 0 0 0 0 127 0" result="hardAlpha"/>
<feOffset dy="4"/>
<feGaussianBlur stdDeviation="2"/>
<feComposite in2="hardAlpha" operator="out"/>
<feColorMatrix type="matrix" values="0 0 0 0 0 0 0 0 0 0 0 0 0 0 0 0 0 0 0.25 0"/>
<feBlend mode="normal" in2="BackgroundImageFix" result="effect1_dropShadow_33_221"/>
<feBlend mode="normal" in="SourceGraphic" in2="effect1_dropShadow_33_221" result="shape"/>
</filter>
<filter id="filter2_d_33_221" x="333.738" y="524.365" width="126.364" height="270.635" filterUnits="userSpaceOnUse" color-interpolation-filters="sRGB">
<feFlood flood-opacity="0" result="BackgroundImageFix"/>
<feColorMatrix in="SourceAlpha" type="matrix" values="0 0 0 0 0 0 0 0 0 0 0 0 0 0 0 0 0 0 127 0" result="hardAlpha"/>
<feOffset dy="4"/>
<feGaussianBlur stdDeviation="2"/>
<feComposite in2="hardAlpha" operator="out"/>
<feColorMatrix type="matrix" values="0 0 0 0 0 0 0 0 0 0 0 0 0 0 0 0 0 0 0.25 0"/>
<feBlend mode="normal" in2="BackgroundImageFix" result="effect1_dropShadow_33_221"/>
<feBlend mode="normal" in="SourceGraphic" in2="effect1_dropShadow_33_221" result="shape"/>
</filter>
<filter id="filter3_d_33_221" x="523.958" y="414.451" width="142.017" height="312.54" filterUnits="userSpaceOnUse" color-interpolation-filters="sRGB">
<feFlood flood-opacity="0" result="BackgroundImageFix"/>
<feColorMatrix in="SourceAlpha" type="matrix" values="0 0 0 0 0 0 0 0 0 0 0 0 0 0 0 0 0 0 127 0" result="hardAlpha"/>
<feOffset dy="4"/>
<feGaussianBlur stdDeviation="2"/>
<feComposite in2="hardAlpha" operator="out"/>
<feColorMatrix type="matrix" values="0 0 0 0 0 0 0 0 0 0 0 0 0 0 0 0 0 0 0.25 0"/>
<feBlend mode="normal" in2="BackgroundImageFix" result="effect1_dropShadow_33_221"/>
<feBlend mode="normal" in="SourceGraphic" in2="effect1_dropShadow_33_221" result="shape"/>
</filter>
<filter id="filter4_d_33_221" x="336.307" y="15" width="135.163" height="290.196" filterUnits="userSpaceOnUse" color-interpolation-filters="sRGB">
<feFlood flood-opacity="0" result="BackgroundImageFix"/>
<feColorMatrix in="SourceAlpha" type="matrix" values="0 0 0 0 0 0 0 0 0 0 0 0 0 0 0 0 0 0 127 0" result="hardAlpha"/>
<feOffset dy="4"/>
<feGaussianBlur stdDeviation="2"/>
<feComposite in2="hardAlpha" operator="out"/>
<feColorMatrix type="matrix" values="0 0 0 0 0 0 0 0 0 0 0 0 0 0 0 0 0 0 0.25 0"/>
<feBlend mode="normal" in2="BackgroundImageFix" result="effect1_dropShadow_33_221"/>
<feBlend mode="normal" in="SourceGraphic" in2="effect1_dropShadow_33_221" result="shape"/>
</filter>
<filter id="filter5_d_33_221" x="74.6492" y="116.455" width="180.922" height="282.777" filterUnits="userSpaceOnUse" color-interpolation-filters="sRGB">
<feFlood flood-opacity="0" result="BackgroundImageFix"/>
<feColorMatrix in="SourceAlpha" type="matrix" values="0 0 0 0 0 0 0 0 0 0 0 0 0 0 0 0 0 0 127 0" result="hardAlpha"/>
<feOffset dy="4"/>
<feGaussianBlur stdDeviation="2"/>
<feComposite in2="hardAlpha" operator="out"/>
<feColorMatrix type="matrix" values="0 0 0 0 0 0 0 0 0 0 0 0 0 0 0 0 0 0 0.25 0"/>
<feBlend mode="normal" in2="BackgroundImageFix" result="effect1_dropShadow_33_221"/>
<feBlend mode="normal" in="SourceGraphic" in2="effect1_dropShadow_33_221" result="shape"/>
</filter>
<clipPath id="clip0_33_221">
<rect width="24.379" height="24.379" fill="white" transform="translate(178.693 224.142) rotate(16.0681)"/>
</clipPath>
<clipPath id="clip1_33_221">
<rect width="12.1936" height="13.0594" fill="white" transform="translate(146.328 254.616) rotate(29.2425)"/>
</clipPath>
</defs>
</svg>
